<?xml version="1.0" encoding="utf-8"?>
<!-- Generator: Adobe Illustrator 25.1.0, SVG Export Plug-In . SVG Version: 6.00 Build 0)  -->
<svg version="1.1" id="Layer_1" xmlns="http://www.w3.org/2000/svg" xmlns:xlink="http://www.w3.org/1999/xlink" x="0px" y="0px"
	 viewBox="0 0 996.4 995.5" style="enable-background:new 0 0 996.4 995.5;" xml:space="preserve">
<style type="text/css">
	.st0{opacity:0.2;}
	.st1{clip-path:url(#SVGID_2_);}
	.st2{fill:#CECBD6;}
</style>
<g id="Group_165" class="st0">
	<g>
		<defs>
			<rect id="SVGID_1_" width="996.4" height="995.5"/>
		</defs>
		<clipPath id="SVGID_2_">
			<use xlink:href="#SVGID_1_"  style="overflow:visible;"/>
		</clipPath>
		<g id="Group_56" class="st1">
			<g>
				<path class="st2" d="M1463.3-4071.1c-3.9,349.2,27.7,669,143.4,831.7c63.4,89.8,140.6,154.7,213,218.1
					c280.1,250.6,1182.4,1101.9,706.7,1612.2c-183.4,197.7-422.6,301.2-630.2,404.6c-304.7,151.9-693.9,254.7-958.2,561.2
					c-72.1,82.1-128.6,200.1-90,359.1c129.5,544.2,1287,1329.9,678.6,1991.1c-479.5,515.4-1112.9,291.9-1639.1,542.4
					c-256.8,119.2-281.8,331-349.6,619l6.3-0.3c4.7-21,9.3-42.6,13.6-65.2c89.8-461.8,293.8-561.2,571.2-618.7
					c442.2-97.5,916-56.9,1322.9-393.1c397.4-333,259-814.9-39.2-1227.2c-157.3-212.5-338.2-409.1-475.5-660.3
					c-311.7-562.3,340.1-794.3,543.7-895c322.1-164,668-277.3,970.2-529.5c305.9-252.9,244.7-615.7,16-992.7
					c-237.3-382.9-490-556.9-764.9-832.8c-207.4-205.4-239.6-563-228.5-925.1L1463.3-4071.1z"/>
				<path class="st2" d="M1490.8-4072.2c-38.1,367.8-50.1,810.6,139.7,1025.2c72.1,82.5,153.5,144.6,230.8,209.6
					C2141-2597.5,2989.8-1758.5,2510.7-1287c-188.6,186.5-427.9,281.1-638.1,377.4C1567-769.4,1178-680.8,910.1-388
					c-71.5,76.8-129.2,189.4-90.2,345.2C946.7,473.2,2100.5,1278.9,1504,1908.3C1031,2402,402.2,2170.5-118.6,2384.6
					c-276.7,110.4-294.3,329.4-371,685.2l7.2-0.2c12.4-53.8,24-112.8,35.9-178.1c94.6-532.3,429.9-550.3,717.3-579.5
					c398.9-46,889.1-29.9,1236.9-393.3c612-646.7-549.3-1443-678.3-1968c-54.3-216.3,87.4-342.9,179.2-412.2
					c449.9-347.5,972.8-394.7,1424.5-741.5c194.2-147.4,300.3-363.6,161.4-719.1c-221.5-557.5-590.6-773.9-912.5-1088.4
					c-86.5-83.4-155.8-182.7-181.9-352.5c-37.1-236.6-33-472.6-11.7-708.9L1490.8-4072.2z"/>
				<path class="st2" d="M1538.4-4074.3c-73.6,421.2-133.2,925.4,56.8,1153c117.3,140.7,264.9,231.1,392,341.3
					c252.8,225.6,962.4,1004.3,505.7,1415.2c-193.8,174.3-432.9,260.2-645.7,349.3c-305.2,127.7-701.7,204.4-971.3,487
					c-491.8,515.9,1084.1,1316.1,711,2089c-190.9,395.2-684.2,442.8-962.1,471.4c-273.3,28-577-11.8-839,126.3
					c-230.3,121.5-237.5,437.4-299.2,712.5l15.2-0.6c59.7-274,57.8-581.8,291-703.3c197.9-103.1,429.2-103.5,636.7-109.2
					c283.2-11.7,1669-162.8,1085.4-1202.7C1327.5,721,1075.6,511.1,884.8,184.1c-292.4-501.3,216.7-670.4,414.3-760.8
					c335.2-153.4,680.1-252.9,1008.8-442c270.4-155.6,471-388.3,234.3-874.1c-230.4-472.8-535.7-675.2-841.9-942.2
					c-196.8-171.5-232.1-362.8-210.3-719.9c9.7-158.8,35.6-334.9,65-520L1538.4-4074.3z"/>
				<path class="st2" d="M1616.7-4077.7c-101.8,422-253.2,1040.1-49.7,1294.1c77.4,98.1,175.8,160.7,263,227.1
					c276.7,214.2,1168.8,1086.2,643.3,1514.4C2159.3-784.8,1768-711,1428.4-580.9c-131,48.8-841.3,223.2-641.7,692.9
					c55.3,132.5,138.6,241.3,213.5,339c201.7,267.9,924.5,996.2,456.6,1459.4c-339.5,332.2-827.2,281.9-1210.5,298.3
					c-271,8.3-656.7-20.2-726.6,527.5c-15.5,118.9-27.8,233.1-51.9,335.4l8-0.4c17.5-60.8,31.3-128.5,40.4-203.7
					c44.3-374,108.6-532.5,353.6-600.2c347.5-99.7,712.4-26.7,1064.3-100c264-57.8,913.3-275.2,607.3-975.3
					c-180.5-403.7-482.6-623.2-689.9-978.5c-202.5-341.8-18.7-498.3,169.5-601c445.5-249.7,930.4-299.8,1370.2-579.2
					c185.6-116.7,327.5-301.8,197.9-661c-221.2-603-615.8-787.3-952.8-1100c-114.6-104.9-167.8-234.7-157.2-456.7
					c12.4-289.3,86.5-591,151.3-893.5L1616.7-4077.7z"/>
				<path class="st2" d="M1719.8-4082.1c-92.8,380.6-247.7,762.8-262.2,1134.7c-16,372.1,317.9,504.1,472.7,626.5
					C2187-2114.8,2957.5-1290.8,2450.7-919c-320.6,237-709.2,298.8-1051.8,415.8C1210.5-440.7,989.1-382.2,819-230
					C581.3-20.3,829.2,300.8,964.4,475.5c189.9,249.7,929.5,993.3,467,1435.1c-285.3,269.5-709.4,262.8-1031.3,254.8
					c-223.7-8.7-561.9-58.4-761.1,134.2c-163,155.9-121.7,509.6-191.7,772.8l18.7-0.8c96.1-322.6-5.7-723.4,306.8-841.6
					c313.7-121.9,666.4-32.5,988.5-63.4c253.7-27.2,1096-172.4,747.6-954.1c-182.6-400.7-483.9-617.3-692.2-970.7
					c-202.3-338-7.4-480.8,175.3-570.7c448.4-227.5,930.6-266.2,1374.5-519.8c180.2-101.8,340-270.1,215.4-630.5
					c-215.3-612-623.5-795.1-963.7-1095.8c-93.4-81.9-160.7-186.9-151.5-377.8c16.1-368.5,164.3-752,256.6-1129.6L1719.8-4082.1z"/>
				<path class="st2" d="M1829.4-4086.8c-56.2,308.3-191.6,580.2-278.2,857.8c-98.6,315.8-195.7,624.2,45.5,825.1
					c245.6,204.4,478.8,325.5,702.6,611.6c209.1,267.4,485.5,760.2,126.9,996.3C2099-580.5,1713.6-529,1367.8-426.3
					c-188.2,55.8-407.1,104.5-579.4,244.1C475.2,71.4,993.8,581.7,1121.9,741.7c200.2,249.8,665.5,819,283.8,1169.1
					c-282.5,258.9-706.1,232.9-1022.2,214.1c-205.1-14.9-427.8-36.8-628.5,28.3c-356.2,115.5-191.8,583.8-320.1,919.8l12.4-0.5
					c123.9-334.1-33.3-800,313.8-910.1c197.6-62.6,416.3-40.5,618-25.3c218.4,13.6,1532.5,48.5,1096.5-904
					C1292.6,833,991.5,619.8,781.2,270c-246.1-409.2,119.2-521.1,294.6-586.8c381.6-143,774.2-206.2,1154.1-363.3
					c242-100.2,520.2-266.2,298.8-759.6c-227.3-506.3-564-703.3-886.3-945.2c-212.6-159.6-225.8-341.2-128.9-685
					c87.3-310.1,217.3-583.9,298-895.7c10.7-41,19.3-81.4,26.3-121.4L1829.4-4086.8z"/>
				<path class="st2" d="M1920.3-4090.7c-1.9,100.8-19,209.9-55.5,326.8c-118.9,380.4-330.7,674.5-425.8,1083
					c-65.8,283.1,70.1,390.9,203.1,483.1c319.1,220.8,728.2,473.1,908.8,1022.1c115.6,351.2-79.2,476.4-243,548.9
					c-452.2,200.3-930.7,218.4-1384.7,403.3C750.3-153,531.1-34.8,733.7,302.5c211,351.4,510.7,562.2,697.5,958.7
					c472.5,1003-1047.9,821.5-1229.2,808.1c-211.4-15.8-678.1-122.4-711.9,386.9c-14.3,215.2,7.4,444.4-76.7,617.8l10.9-0.5
					c39.7-93.5,64.9-211,70.4-359.1c13.2-350.1,9.3-556.8,253.2-619.6c315.3-81.1,655.9,24.9,975.7,15.8
					c240.8-6.8,1074.3-93.7,717-858c-185.4-396.8-485.6-608-697.1-955.8C542.2-34.6,758-145.6,928.6-213.7
					c453.3-180.4,930.4-198,1381.3-398.2c167.5-74.3,363.6-206.5,249-565.8c-191.8-600.9-624.4-816.2-960.6-1068.3
					c-120.2-90.1-207.2-198.5-150.2-436.9c96.5-404.9,306.8-697.1,425.7-1075.8c37.4-119.2,55.1-230.1,56.9-332.5L1920.3-4090.7z"/>
				<path class="st2" d="M1967.8-4092.7c41.8,149.6,38,329.9-41.9,541.2c-139.8,370-369.5,630.8-498,1019.5
					c-104.6,316.8,85,422.3,230.2,515.5c307.2,197.3,710.7,466.5,876.4,992.2c110.2,349.5-101.8,455.6-258.2,515.2
					C1821.3-335.6,1345-329.9,889.1-167.8c-166.8,59.4-396.4,162.5-193.8,496c212.3,349.5,511.1,558.4,700.3,951.7
					c478.4,994.8-1040,760.9-1209.2,742.1c-167.1-18.5-641.1-135.5-698.9,257.1c-17.2,116.4-6.4,246.5-6.6,366.8
					c-0.3,188.6-33.2,327.2-88.2,429.2l14.6-0.7c53.9-102.8,86.1-241.6,86.1-429.8c0.1-357.9-11-567.2,241.9-617
					c315.7-62.4,650.8,51.7,969.7,54.6c234.1,2,1062-53.8,700.7-810.7C1217.8,877.6,918.8,668.4,706,322.7
					C504.4-4.9,730.5-100.9,894.8-157.7c455.3-157.3,929.9-163.1,1383.6-336c211.5-80.5,396.2-236.6,225.7-638.4
					c-236.9-558.8-604.2-714.4-946.6-969.5c-124.7-92.9-196.2-204.6-119.8-430.6c129.8-385,358.1-644.5,497.9-1012.8
					c81-213.6,85.5-396,44.1-548.2L1967.8-4092.7z"/>
				<path class="st2" d="M1910.8-4090.3c149,173.3,224.9,425.1,73.2,758.2c-162.6,357-410.4,588.9-570.1,955.6
					c-151.1,346.8,118.5,454.1,270.7,547.6c291.3,179.2,680,459.3,829.7,956.7c104.5,347-123.8,432.8-272.4,480.4
					c-457.3,146.2-931.5,139.3-1389.1,278.1c-160.5,48.6-400.4,136.3-197.4,466c213.8,347.5,511.4,554.9,703.1,945.2
					c449.1,913.8-846.6,732.6-1028.4,702.4c-217-38.7-472.1-104-685.9-33.6c-225.2,74.2-168.2,355.6-162.5,656.6
					c4,210.8-37.7,354.8-107.6,452.6l11.9-0.5c73.6-106.1,115.8-264.5,106.9-500.1c-13.8-363.8-34.6-578.5,228-615.3
					c315.7-44,646.1,78.1,963.8,93c190.7,9,975.8,21.1,727-662.8c-163.3-448.7-530.1-697-745.8-1042.8
					C464.2,23.3,700.2-57.2,858.1-103.6c456.7-134,929.2-127.2,1385.1-272.8c202.5-64.6,409.4-197.2,243.2-601
					c-238.2-578.2-621.6-719.5-970.5-977.3c-130.3-96.3-186.1-210.1-92.5-421c161-362.8,407.4-594.3,570-949.5
					c152.7-332.8,80.3-588.3-66.6-766L1910.8-4090.3z"/>
				<path class="st2" d="M1613-4077.5c305.3,110.8,714.6,442.9,424.4,971.4c-146.7,267.1-351.3,462.9-518,698.1
					c-101.6,143.4-300.5,395.4-99.2,576.9c181.2,163.2,388.9,233.4,574.1,392.2c169.9,145.7,796.6,875.8,381.1,1101.6
					c-179.7,97.7-391.5,109.5-580.1,137c-288.4,42.3-579,59.8-866.2,114.5c-144.7,27.6-559.7,68.9-315.2,461
					c215.5,345.4,512,551.7,706.4,939.1c454.9,906.9-837.1,677.4-1008.7,642.6c-199.8-42.7-410.7-93.2-610.7-75.1
					c-454.8,41.1-83.3,684.7-269.3,1071c-24.3,50.5-53.3,91.2-86.1,124.1l14.8-0.6c91.8-89.7,148.2-238.8,139.1-481.1
					c-11.3-298.7-105.3-631.4,137.2-692.3c211.2-53.1,457.3,20.1,669.6,66c153.1,31.3,1382.3,276.3,1067.7-563.5
					c-107-285.8-348.8-532.7-502.1-715.2C764.3,562.4,360.3,150.9,653.9,5c21-10.6,45.3-20.3,72.8-29.6
					c513.3-174.1,1061-78,1573.6-263.5c537.6-194.5-66-963.8-302.1-1166.1c-184.3-158-390.4-228-571.2-388.4
					c-232.3-206.1,86.5-542.8,184.9-673.3c143.8-190.7,310-356.5,434.9-582c290.9-525.6-96.4-856.4-404.1-980.8L1613-4077.5z"/>
				<path class="st2" d="M-1113,3096.5L-1113,3096.5c-8.1-1.3-16.1-2.7-24.1-4.2l0.3,5.2L-1113,3096.5z M1478.5-3863
					c206.7,9.9,461.1,104.4,624.3,346.5c309.8,459.8-205.1,866.9-385.4,1058.6c-128.1,136.1-286.1,283.8-388.2,476.5
					c-155.8,293.8,253.8,436.6,355.4,498.1c269.4,162.9,577.6,400.5,745.6,821.1c189.5,474.7-203.9,497-381.6,523
					c-385.8,56-775,55.5-1160.4,110.8C751.7-8.9,326.7,10.8,571,396.9c217.2,343.3,512.5,549.2,709.6,933.8
					c415.8,811-612.2,658.9-800.5,623.8c-262.1-48.8-531.8-150.7-794.8-140.9c-200.6,7.5-267.2,119.8-223.8,452.4
					c46.9,358.4,83.6,688.4-182.6,803.9c-9.4,4.1-18.9,7.7-28.4,11.2l27.9-1.1c157-65.8,260.7-232,223.1-599.6
					c-29.4-287.4-119.8-605.8,119.3-650.4c211.8-39.5,454.1,41.4,665.6,95.1c140.4,34,1370.4,326.7,1048.2-505.5
					c-129.9-335.5-422-606.7-599.7-823.2c-110.1-134.1-376-440.4-121.5-550C842.8-52.1,1113-44.8,1350.2-57.5
					c187.2-10.9,374.4-27.1,561-48.5c177.7-20.3,744.8,0.6,528-559.2c-198-511.5-576.1-729-893.5-916.6
					c-155.1-91.8-351.7-198.2-163.7-468.3c218.4-313.5,500.4-495.2,712.6-814.7c354.5-534-182.3-907.4-449.7-984.5
					C1625.5-3854.9,1477.9-3911.9,1478.5-3863z"/>
				<path class="st2" d="M1508.4-3606.8c216.4,7.8,480.8,99,653.1,351.4c322.5,472.2-259.6,840.2-438.8,998.7
					c-140.9,124.6-308,254.2-427.6,434.1c-170,255.7,174.2,388.9,272.9,446c295.8,171.1,649,400.3,832,870.2
					c182.6,469.2-231.6,461-396.3,475.9c-385.8,35-773.8,20.3-1159.1,57c-128.3,12-562.3,9.6-318.4,389.9
					c219,341.4,512.8,548.3,713.1,928.7c135.2,256.4,133.9,503.3-71.6,588.4c-220.6,91.4-483.1,34.1-708.4-16.6
					c-276.3-62.1-583.8-207.1-861.1-169.4c-285.1,38.8-114.3,478.9-89.3,783.5c45.9,561.9-341.9,531.8-650.4,457l0.4,8.3
					c328.7,78.3,737.9,106,654.3-546.4c-36.3-283.8-168.1-661.6,91.4-693.3c212.6-26.1,450.9,62.6,661.8,123.8
					c281,78.6,626,180.4,903,64.1c351.3-147.6,88.7-635.9-90.9-866.8C902.2,852.9,700.9,662.6,537.1,411.7
					C333.6,100,597,68.5,735.3,49.7c458.9-62.4,924.8-15.2,1384.1-77.2c171.6-23,442.3-76.6,290-481.6
					c-195.7-520.2-588.8-737.1-907.9-923.4c-97.6-56.9-347.8-169-197.4-388.5c119.8-174.9,283.6-301,423-423.6
					c183.3-160.9,773.7-532.8,447.5-1015.8c-173.1-256.4-447.5-358.7-667-362L1508.4-3606.8z"/>
				<path class="st2" d="M1536.7-3344c224.5,5.8,498.3,97,677.3,358.5c332,484.7-317.9,804.1-492.3,931.5
					c-153.5,112.1-329.8,224.3-466.1,389.7c-196,237.8,172.2,382.9,267,437.4c288.5,165.6,592.7,360.7,798.2,775.5
					c263.6,532.2-156.3,521-365.5,528.2c-385.2,13.5-772-15.1-1156.9,2.3c-120.1,5.5-562.7-19.6-318.8,355
					c221.2,339.5,513.7,546.7,716.9,924.5c130.4,242.4,145.3,491.1-60.8,567.4c-169.3,62.7-362,26.5-534.7-8.9
					c-315.5-64.8-632.9-220.9-949.4-243.4c-108.1-7.6-254.5,0.3-230.1,248.7c36,363.4,273.2,913.4-89.8,1011.4
					c-153.2,41.3-317.7-5-478-59.4l0.4,7.3c121.6,38.9,244.3,73.6,366.8,74.8c707.3,2.6-30.5-1167.2,312.3-1265
					c40.2-11.4,82.5-10.6,123.4-7.4c468.1,37.7,936.3,359.1,1406.3,273.5c73.4-13.3,166.1-40.9,215.9-140.8
					C1460.2,1452,746.3,751.2,644.1,629c-58.7-70.2-351.4-385.9-171.6-484.4c136.9-75,316.8-54.8,460.5-56.2
					c379.3-3.6,760.3,26.1,1138.6-1.2c160.2-11.6,450.6-36,303.6-439.5c-192.5-527.8-601-746-921.1-931.1
					c-95.8-55.3-362-174.6-189.3-377.8c136-160.1,308.9-269.6,461-379.7c178.6-129.4,838.9-451.7,502.8-948.5
					c-179.1-264.8-465.2-371.4-692.2-370.3L1536.7-3344z"/>
				<path class="st2" d="M1556.7-3076.7c232,4.5,517,99.1,701.7,369.7c339.1,496.9-377.2,758.2-544.4,857.3
					c-165.9,98.4-351.3,194-503.6,343.3c-196.4,192.6,87.3,326.6,185.2,383.8C1712-938.1,2057.2-756.4,2283-293
					c258.3,530.3-186.2,480.7-379.3,476.5C1519.1,175.2,1134,132,749.9,130c-112.2-0.5-562.4-49-318.5,320
					c223.2,337.6,514.8,545.8,720.9,921c124.9,227.6,157,480.1-49.7,547c-167,54-356.5,8.8-525.3-33
					c-313.9-77.7-627.9-242.3-943.3-281.9c-106.9-13.2-259.5-16.9-223.5,238.2c53,375.4,337.8,999.5-91.1,1025.3
					c-156,8.6-315.2-51.6-471.3-115l0.4,9.8c19.7,7.3,35.5,13.2,41.8,15.6c165.1,62.7,360.8,143.8,525.6,79.8
					c335.2-130,17.6-755.1,1.1-1072.6c-10.5-201.9,141.9-181.4,221.1-170.6c463.4,63,926.4,395.4,1392.8,332.2
					c70.2-9.6,161.4-31.5,208.9-127.6c173.7-351.7-549.6-1062.8-644.4-1175.3c-54.1-64.2-351.9-383.3-170.6-467
					c138.4-64,314.6-35.5,457.9-29.9c378.6,14.6,758.4,58.5,1136.8,54.9c148.1-1.4,457.9,4.6,316.3-396.1
					c-188.9-534.1-613.3-755.4-933.3-940.1c-93.8-54.2-377.4-182.3-183.1-366.7c151.7-144,333.6-237,497.9-333.5
					c171.7-101,900.3-363.5,557.1-873.8c-187.4-278.7-480.5-379.4-717.6-382.7L1556.7-3076.7z"/>
				<path class="st2" d="M1566.8-2807.3c243.1,15.1,532.5,100.1,726.7,386.4c304.8,449.7-268.1,636.9-426.4,700.8
					c-186.1,79.3-371.9,168.9-553.6,270.7c-80.3,45.2-360.7,172.4-164.6,343.5c60.7,53,126.7,90.2,190.5,127.7
					c319.1,187.3,749.6,407.6,941.1,938.6c138.9,385.1-182.6,342.4-314.6,335.6c-459.2-23.9-920.3-115.7-1379.1-122.8
					c-120.8-1.9-412.4-18.2-205.6,290c233.5,348.3,576.2,576.7,770.3,1008.2c317.2,705.2-642.7,369.4-759.2,329
					c-257.4-89.5-516.3-221.7-776.7-269.2c-544.9-99.6,103.2,785.6-56.8,1144c-115.5,258.7-519.3,35.1-673-35.1
					c-7.8-3.5-24.3-13.1-43.3-23.4l0.6,15.9c195.4,96.3,410.9,207.9,600.3,154.9c438-122.7-225.8-1122,13.2-1241.5
					c99.8-50,244.9,13.1,345.8,46.4c195.6,64.5,388.8,151.6,584,219.7c120,41.9,1093.8,377.3,776.1-346.3
					c-123.5-281.1-361-516.9-524-703.8c-44.9-51.5-470-480-263.6-558c40.4-15.2,83.3-17.9,124.9-19.6
					c518.3-21.6,1043.6,133,1563,131.2c138.8-0.5,339.5-30.4,228.2-354.9c-170.1-495.4-567.2-734-864.7-905.3
					c-44-25.4-451.6-202.2-305.3-360.3c120-129.8,296.9-188.6,433.1-255.2c103.8-50.8,208.1-99.5,313.3-143.8
					c162.4-64.9,753.1-252.8,443.2-717.9c-198.3-297.7-493.8-383.9-743.5-400.7L1566.8-2807.3z"/>
				<path class="st2" d="M1566.5-2536.7c202.2,15.2,408.8,80.7,594.8,236c86.5,72.1,332.9,328.8,215,531.7
					c-30,51.5-83.6,95.7-166.6,137.8c-173.5,88.3-355.8,128-533.4,191.3c-189.9,67.5-393.5,128.7-575.5,241.5
					c-94.9,58.8-130.4,133.7-20.1,229.5c192.2,167,411.8,244.8,610.2,393.5c183.6,137.7,372,323.5,500.1,596.1
					c246.2,524.2-241.5,391.8-402.8,369.7c-381.5-52.6-763-126.5-1144.5-167.5c-43.5-4.6-499.1-98.6-364.9,168.3
					c77.7,154.3,199,275.2,296.9,386.8c81.1,92.6,786.1,825.1,549.6,1071.8c-46,47.7-107.9,55.2-161.2,56.8
					C504,1919.8,50.9,1565.6-403.9,1458c-570-134.7,173.2,842-12,1170.3c-120.1,213-487.7-11.8-629.9-84.8
					c-18.3-9.6-77.1-49.7-117.8-67.2l0.8,16.7c201.7,110.9,427.8,254,632.1,222.2c392.2-62.8-86.9-885.2-82.9-1154.8
					c3.2-215.2,336-54.7,395.7-32.3c247.5,92.8,491.3,217.4,739.9,301.3c105.8,35.8,813.7,285.6,626.9-271.6
					c-104.7-311.8-397.5-599.4-562.2-787.1c-39.7-45.3-470.6-480.6-263.7-541.2c40.4-11.7,82.8-11.8,124-11
					c517.5,10.1,1038.4,178,1556.4,213.8c128.4,8.7,345.5,7.4,238-316.2c-150.9-453.9-511.6-700.6-783.6-864
					c-121.3-72.8-251.2-132-367.3-229.3c-201.7-168.9,111.3-263.4,182.7-293.6c191.7-81,386-152,580.9-212.3
					c160.7-45.8,280-90.9,367.6-134.1c78.5-38.6,234.7-119.2,199.4-315.1c-48.7-270.6-303.3-437.3-442-507.7
					c-133.5-67.7-273.4-104.2-411.1-112.3L1566.5-2536.7z"/>
				<path class="st2" d="M1554.9-2265.9c210.4,24,424.2,93.3,617.4,258.3c77.6,66.3,340.6,342.7,210.5,525.6
					c-32.1,45.2-88.9,80.5-176,111.8c-184.1,66.1-374.4,88-561,134.3c-201.5,49.9-413.9,93.7-609.6,185.6
					c-97.3,45.9-145.5,112.7-28.8,213.2c199.8,172.4,425.7,256.8,630.8,413.4c193.7,147.7,425.1,369.2,535.4,691.2
					c128.1,373.8-223.4,265.4-331,245.7c-418.7-76.5-837-181.3-1256.1-249c-37.1-5.9-496.2-124.1-362.1,136
					c102.3,198.4,269.1,351.2,396.6,496.4c102.2,116.6,668.4,738.6,462.6,948c-64.2,64.8-163.4,50.3-236,38.8
					c-433.2-68.3-844.2-375.3-1271.6-500.2c-593.1-173.2,248.4,904.1,34.6,1192.9c-108.5,146.5-370.4-10.5-489.1-73.4
					c-88.8-46.9-176.4-99.7-264.1-152.4c-18.3,16.4,75.1,56.7,89.5,65.2c106.9,63.3,750,478.4,709-10
					c-26.3-313.3-221.1-579.6-278.4-874.9c-42.4-218.1,132.2-157.9,201.8-136.8c425.7,128.6,835,436.1,1266.8,501.9
					c76.8,11.7,256.6,38.6,283.3-131.2c54.7-348.4-582.9-969.7-690.4-1095C399.7,623.6,85.1,289.9,268.1,251
					c140.7-29.9,305.5,22,446.9,48.9c375,71.3,749.4,160,1124.3,229.4c111.2,20.6,470.5,126.1,346.3-259.5
					c-131.4-407.7-449.4-654.6-692-813.6c-156.7-100.7-325.3-175.6-476.2-301c-169.6-141.2,20-199.4,102.7-228.5
					c233.5-81.9,473.7-140.8,711.3-189c169.7-29.8,295.6-61.4,387.8-93c74.2-25.4,247.5-80.7,214.9-276.2
					c-45.6-272.9-309.8-449.6-447.7-522.6c-141.2-74.5-284.3-108.8-429.7-127.8L1554.9-2265.9z"/>
			</g>
		</g>
	</g>
</g>
</svg>
