<svg xmlns="http://www.w3.org/2000/svg" viewBox="0 0 343.06 261.83"><defs><style>.cls-1,.cls-12{fill:#6c63ff;}.cls-1{opacity:0.2;}.cls-1,.cls-10,.cls-11,.cls-12,.cls-15,.cls-20,.cls-4,.cls-5,.cls-6{isolation:isolate;}.cls-10,.cls-11,.cls-13,.cls-14,.cls-18,.cls-19,.cls-2,.cls-7,.cls-8,.cls-9{fill:#fff;}.cls-3{fill:#3f3d56;}.cls-4{fill:#fa5959;}.cls-4,.cls-5,.cls-6{opacity:0.8;}.cls-5{fill:#fed253;}.cls-6{fill:#8ccf4d;}.cls-13,.cls-14,.cls-7,.cls-8,.cls-9{stroke:#939393;}.cls-10,.cls-11,.cls-12,.cls-13,.cls-14,.cls-15,.cls-16,.cls-18,.cls-19,.cls-7,.cls-8,.cls-9{stroke-miterlimit:10;}.cls-7{stroke-width:0.29px;}.cls-8{stroke-width:0.4px;}.cls-10,.cls-11,.cls-9{stroke-width:0.42px;}.cls-10,.cls-11,.cls-12,.cls-18,.cls-19{stroke:#401966;}.cls-10{opacity:0.2;}.cls-11,.cls-20{opacity:0.1;}.cls-12,.cls-15{stroke-width:0.44px;}.cls-12{opacity:0.4;}.cls-13{stroke-width:0.42px;}.cls-14{stroke-width:0.38px;}.cls-15{fill:#503bb2;stroke:#fff;}.cls-16{fill:none;stroke:#3c354c;}.cls-16,.cls-18{stroke-width:0.3px;}.cls-17{fill:#300e4c;}.cls-19{stroke-width:0.42px;}</style></defs><title>Asset 64</title><g id="Layer_2" data-name="Layer 2"><g id="f0bd1b09-cbf8-44f4-b18b-431a4c4b7274"><path class="cls-1" d="M105.92,13.72C117.56,1.68,135.84-.77,152.46.19c52.24,3,99.39,32.29,140.19,65.4,14.77,12,29.3,24.9,38.88,41.41,19.52,33.61,13.73,80.18-13.4,107.85-9.24,9.43-20.42,16.63-31.91,23-20.43,11.38-42.48,20.52-65.65,23.11-16.53,1.86-33.27.35-49.71-2.23-45.92-7.23-91-23.22-128.76-50.57-16.57-12-32.19-26.91-39-46.3s-2.46-44,14.46-55.49c7-4.75,15.36-6.89,23.55-8.91,12.06-3,24.31-5.89,35.19-11.92,11.24-6.23,24.54-18.27,22.32-32C96.21,38.73,94.3,25.75,105.92,13.72Z"/><path class="cls-2" d="M50.7,82.05V213.88a4.05,4.05,0,0,0,4,4.06H276.37a4.06,4.06,0,0,0,4.06-4.06h0V82.05Z"/><path class="cls-3" d="M278.47,74.19H52.77a2,2,0,0,0-2,2h0v5.86H280.49V76.19a2,2,0,0,0-2-2Z"/><circle class="cls-4" cx="57.67" cy="78.46" r="1.65"/><circle class="cls-5" cx="62.48" cy="78.46" r="1.65"/><circle class="cls-6" cx="67.3" cy="78.46" r="1.65"/><line class="cls-7" x1="101.48" y1="117.69" x2="101.43" y2="106.05"/><line class="cls-8" x1="101.28" y1="106.05" x2="152.11" y2="106.03"/><line class="cls-9" x1="114.79" y1="149.31" x2="101.5" y2="141.71"/><line class="cls-9" x1="101.34" y1="133.62" x2="101.34" y2="125.64"/><line class="cls-9" x1="101.44" y1="141.75" x2="88.13" y2="149.31"/><rect class="cls-10" x="79.6" y="149.31" width="17.07" height="8.1" rx="2.09"/><rect class="cls-10" x="106.33" y="149.31" width="17.07" height="8.1" rx="2.09"/><rect class="cls-10" x="92.75" y="117.69" width="17.07" height="8.1" rx="2.09"/><rect class="cls-10" x="92.96" y="133.61" width="17.07" height="8.1" rx="2.09"/><line class="cls-8" x1="160.8" y1="112.31" x2="160.65" y2="133.86"/><rect class="cls-11" x="147.63" y="100.15" width="26.1" height="12.38" rx="2.09"/><rect class="cls-12" x="148.16" y="100.4" width="25.04" height="11.88" rx="2.09"/><polyline class="cls-9" points="136.43 149.25 160.57 141.78 184.81 149.2"/><line class="cls-9" x1="162.59" y1="183.56" x2="162.36" y2="175.67"/><line class="cls-13" x1="178.07" y1="171.94" x2="171.05" y2="172.18"/><line class="cls-14" x1="162.32" y1="167.95" x2="162.19" y2="157.41"/><polyline class="cls-9" points="207.19 176.06 197.16 183.56 186.61 176.06"/><rect class="cls-10" x="153.98" y="183.56" width="17.07" height="8.1" rx="2.09"/><rect class="cls-10" x="188.57" y="183.56" width="17.07" height="8.1" rx="2.09"/><rect class="cls-10" x="153.88" y="167.95" width="17.07" height="8.1" rx="2.09"/><rect class="cls-10" x="198.65" y="167.95" width="17.07" height="8.1" rx="2.09"/><rect class="cls-10" x="178.07" y="167.95" width="17.07" height="8.1" rx="2.09"/><rect class="cls-10" x="152.08" y="133.86" width="17.07" height="8.1" rx="2.09"/><rect class="cls-10" x="176.27" y="149.14" width="17.07" height="8.1" rx="2.09"/><rect class="cls-10" x="127.89" y="149.14" width="17.07" height="8.1" rx="2.09"/><rect class="cls-10" x="152.51" y="149.14" width="17.07" height="8.1" rx="2.09"/><line class="cls-7" x1="223.89" y1="106.05" x2="223.83" y2="117.69"/><line class="cls-8" x1="173.2" y1="106.03" x2="224.03" y2="106.05"/><line class="cls-9" x1="223.82" y1="141.71" x2="210.53" y2="149.31"/><line class="cls-9" x1="223.98" y1="125.64" x2="223.98" y2="133.62"/><line class="cls-9" x1="237.19" y1="149.31" x2="223.88" y2="141.75"/><rect class="cls-10" x="228.65" y="149.31" width="17.07" height="8.1" rx="2.09"/><rect class="cls-10" x="201.92" y="149.31" width="17.07" height="8.1" rx="2.09"/><rect class="cls-10" x="215.5" y="117.69" width="17.07" height="8.1" rx="2.09"/><rect class="cls-10" x="215.28" y="133.61" width="17.07" height="8.1" rx="2.09"/><path class="cls-15" d="M73.9,130.35a13.67,13.67,0,0,0,.35,2.67,9.82,9.82,0,0,1-.36,2.33c-.56,3,.52,6.09,1.61,9a4.38,4.38,0,0,1,.38,1.46,14.86,14.86,0,0,1-.66,2.73c-.31,1.95,1.13,3.78,1.16,5.75a11.2,11.2,0,0,0,0,2.71,10.25,10.25,0,0,0,.78,1.64c.46,1,.59,2.07,1,3.05.79,1.77,2.5,2.93,4.12,4a4.33,4.33,0,0,0,2.44-1.51,3.85,3.85,0,0,0,.42-1.32,34.69,34.69,0,0,0,.33-6.12,38.41,38.41,0,0,0-.29-5.25c-.33-2.22-1-4.37-1.57-6.56-.65-2.76-1-5.61-2-8.25a28.1,28.1,0,0,0-3.75-6.42c-.56-.76-1-1.85-2.09-1.68A2.29,2.29,0,0,0,73.9,130.35Z"/><path class="cls-16" d="M86.18,229.32a6.17,6.17,0,0,0,2.64,1.3c.66.1,1.34,0,2,.08a4,4,0,0,1,2.44,1.24,1.05,1.05,0,0,1,.35.77,1,1,0,0,1-.29.53,4.4,4.4,0,0,1-2.38,1.22,19.16,19.16,0,0,1-4,.3l-4.82,0"/><path class="cls-17" d="M68.21,173.11a10.77,10.77,0,0,0,.89,4.27c.4.79,1,1.48,1.45,2.25a14.2,14.2,0,0,1,1.49,7c0,2.49,0,5-.13,7.47a11.61,11.61,0,0,1-.24,2.28c-.15.63-.41,1.24-.55,1.87-.35,1.52,0,3.13-.24,4.68a22,22,0,0,1-1,3.44,17.35,17.35,0,0,0-.74,5.4c.11,4.95-1.45,9.67-1.49,14.62,0,1.7.06,3.41-.08,5.11-.15,1.85-.56,3.67-.76,5.52a1.36,1.36,0,0,0,.28,1.2,1.28,1.28,0,0,0,.83.21,10.07,10.07,0,0,0,3.14-.3c.91-.28,1.72-.77,2.61-1.09,1.65-.61,3.7-.73,4.64-2.21a1,1,0,0,0,.17-.43c0-.42-.45-.68-.67-1a1.6,1.6,0,0,1-.17-.77c-.08-1.95.79-3.79,1.37-5.65a38.92,38.92,0,0,0,1.15-5.54c.6-3.86,1.21-7.81.58-11.67a3.57,3.57,0,0,1,.23-2.79,6.53,6.53,0,0,1,.87-.79A3.38,3.38,0,0,0,83,203.64c0-3,1.38-6.09,1.52-9.13.08-1.76,0-3.52,0-5.28.22-4.65,1.74-9.12,3.12-13.56a6.77,6.77,0,0,0,.4-2,2.33,2.33,0,0,0-.76-1.83c-2.32-1.86-5.76-2.48-8.33-1-.51.31-1,.66-1.52.92C74.69,173.25,71,171.71,68.21,173.11Z"/><path class="cls-17" d="M80,226.92a37.56,37.56,0,0,0,1.14-5.54c.61-3.86,1.22-7.81.58-11.67a3.66,3.66,0,0,1,.23-2.79,6.62,6.62,0,0,1,.88-.79,3.37,3.37,0,0,0,1.12-2.49c0-3,1.39-6.09,1.53-9.13.07-1.76,0-3.52,0-5.28a49,49,0,0,1,2.67-12.13,76.28,76.28,0,0,1,3.56,12.72c.31,1.78.48,3.58.8,5.35a14,14,0,0,1,.44,5.05,19.52,19.52,0,0,1-1.08,3.15c-.5,1.39-.78,2.84-1.26,4.23-.74,2.17-1.91,4.15-2.66,6.31s-1,4.33-2.07,6.3a21.29,21.29,0,0,0-1.82,3.47A5.4,5.4,0,0,0,85.44,229c-.18.81-1.12,1.22-1.9,1.52l-2.85,1.05a7.6,7.6,0,0,1-2.08.54A20.18,20.18,0,0,1,80,226.92Z"/><path class="cls-18" d="M65.79,127.49c.65-.58,1.4-2.56,2-4.6A6.63,6.63,0,1,1,74.9,125c.17,1.16.41,2.38.65,3.47"/><path class="cls-15" d="M77.47,131.7a24.67,24.67,0,0,1,4,8.6c.77,3.13,1,6.46,2.37,9.35.33.63.69,1.25,1.08,1.85a22.59,22.59,0,0,1,2.27,3.91,17.35,17.35,0,0,1,.8,6.89c0,.39,0,.77,0,1.15q-.09,4,.18,8a2.74,2.74,0,0,1-.37,2,2.66,2.66,0,0,1-1,.63l-2,.92a3.72,3.72,0,0,1-1,.37,4.07,4.07,0,0,1-1.35-.09,36,36,0,0,0-14.07.26c-1.49-2.23-1.62-5.11-1.21-7.76a10.1,10.1,0,0,0,.17-4.23c-.16-.59-.46-1.13-.63-1.72-.46-1.6.1-3.32-.16-5-.3-2-1.77-3.65-2.58-5.52a17.83,17.83,0,0,1-1-3.59c-.3-1.5-.6-3-.92-4.48a21.62,21.62,0,0,1-.6-5,22.39,22.39,0,0,1,1.93-7.39,4.81,4.81,0,0,1,1.78-2.63c1.15-.65,7.85-4.71,12.35,3.45"/><path class="cls-16" d="M67.51,239A2.67,2.67,0,0,0,67.6,240a2.54,2.54,0,0,0,1.83,1.26,41.25,41.25,0,0,0,10.35,1.09,20.49,20.49,0,0,0,7.73-.84,3.4,3.4,0,0,0,1.34-.8,1.53,1.53,0,0,0,.43-1.45c-.19-.64-.87-1-1.49-1.27l-3.33-1.5-4.65-2.09"/><path class="cls-19" d="M104.64,130.72a5.93,5.93,0,0,1-1.27.95c-.3.18-.62.37-.94.53a3.77,3.77,0,0,1-1.91.46,4.82,4.82,0,0,1-3-1.65,2.16,2.16,0,0,1-.12-1.28,5.89,5.89,0,0,1,.54-1.68,9.93,9.93,0,0,1,1.77-2.31,7.48,7.48,0,0,1,2.56-1.91,9,9,0,0,1,1-.3l1.79-.44a1.22,1.22,0,0,1,.32,0c.45.07.43.77.12,1.11-.62.67-1.8.72-2.25,1.52a1.28,1.28,0,0,1,1.07,1.1.71.71,0,0,0,.11.4c.13.14.37.11.53.22s.08.63.06,1a3.91,3.91,0,0,0,.18.89A1.84,1.84,0,0,1,104.64,130.72Z"/><path class="cls-15" d="M72.07,146.16a6,6,0,0,0,1.52,1.91,5.73,5.73,0,0,0,2.67.82,66.26,66.26,0,0,0,11.61.42,6.43,6.43,0,0,0,1.31-.16,7.12,7.12,0,0,0,1.39-.6,16.29,16.29,0,0,0,3.88-2.5,10.19,10.19,0,0,0,2.77-4.7,8.37,8.37,0,0,0,2.28-2.87,5.15,5.15,0,0,0,.64-1.46c.1-.54-.18-1.15,0-1.67a4.41,4.41,0,0,1,1.67-2.18.93.93,0,0,0,.38-.38.64.64,0,0,0,0-.41,3.16,3.16,0,0,0-1.93-1.95,9.37,9.37,0,0,0-2.78-.52,7.65,7.65,0,0,0-1,.1l-.9,1.63a2.23,2.23,0,0,1-.55.71,4.27,4.27,0,0,1-.51.3,2.72,2.72,0,0,0-1.26,2.18,2.49,2.49,0,0,0-1.91,2.85,3,3,0,0,0-2.43,1.57,1.37,1.37,0,0,1-.37.55,1.11,1.11,0,0,1-.78.13c-.73-.06-1.47.43-2.09,0a4.2,4.2,0,0,0-2.38-.7,1.52,1.52,0,0,1-.52,0,1.39,1.39,0,0,1-.4-.21,3.76,3.76,0,0,0-.91-.52.9.9,0,0,0-1,.22c-.2-.29-.29-.64-.46-.94a.94.94,0,0,0-.83-.56c.25-.16.09-.59-.19-.71a3.82,3.82,0,0,0-.9-.09c-.77-.11-1.25-.91-2-1.2s-1.61-.2-1.88-.87c-.09-.23-.07-.53-.26-.7a.76.76,0,0,0-.46-.12,4.9,4.9,0,0,0-1.47.22,19.86,19.86,0,0,0-1,8.64A7.7,7.7,0,0,0,72.07,146.16Z"/><path class="cls-20" d="M96,141.23c-.22-.91-1.31-3.52-.77-4.29a11.4,11.4,0,0,1,.81,2.13C96.22,139.78,95.86,140.65,96,141.23Z"/><path class="cls-17" d="M68,120.08c.3.37.5.83.83,1.17a1.07,1.07,0,0,0,1.3.27c.59-.41.28-1.41.74-2,.26-.3.7-.4,1-.66.75-.61.55-1.87,1.22-2.58a2.36,2.36,0,0,1,2.58-.24,5.16,5.16,0,0,0,2.65.59c1.28-.27,1.94-1.66,2.31-2.91a5,5,0,0,0,0-3.76,4.17,4.17,0,0,0-2.53-1.82,27.44,27.44,0,0,0-3.16-.55c-1.39-.25-2.74-.74-4.16-.88a4.84,4.84,0,0,0-4,1.14c-1.47,1.49-1.22,3.91-2,5.87-.42,1.11-1.17,2.07-1.62,3.17-.79,2-.4,4.49,1.34,5.68a1.42,1.42,0,0,0,1,.3c.72-.1,1-1,1-1.74C66.44,119.83,66.75,118.47,68,120.08Z"/></g></g></svg>