<svg data-name="Layer 1" xmlns="http://www.w3.org/2000/svg" width="68" height="36">
	<path d="M36.77 35.77H31a1.9 1.9 0 0 1-1.9-1.9v-14a10 10 0 0 0-9.4-10.05 9.8 9.8 0 0 0-10.15 9.8v14.89a1.25 1.25 0 0 1-1.26 1.26h-7A1.26 1.26 0 0 1 0 34.51V20A19.59 19.59 0 0 1 18.9.26a19.36 19.36 0 0 1 19.77 19.35v14.26a1.91 1.91 0 0 1-1.9 1.9z" fill="#ff6a10" fill-rule="evenodd"/>
	<path d="M66.75 35.77h-7.44a1 1 0 0 1-1.05-1.05V19.87a10 10 0 0 0-9.43-10.06 9.81 9.81 0 0 0-10.15 9.8V33.7a2.07 2.07 0 0 1-2.06 2.07h-5.39a2.1 2.1 0 0 1-2.09-2.09V20A19.59 19.59 0 0 1 48 .26a19.36 19.36 0 0 1 19.8 19.35v15.11a1.06 1.06 0 0 1-1.05 1.05z" fill="#939497" fill-rule="evenodd"/>
	<path d="M38.67 19.61c0-4.2-2.41-9.46-4.7-12.64 0 0-.55.63-1.08 1.38A19.93 19.93 0 0 0 29.15 20v14.43a1.33 1.33 0 0 0 1.33 1.34h6.86a1.34 1.34 0 0 0 1.34-1.34V19.61z" fill="#EC5328" fill-rule="evenodd"/>
</svg>