<svg version="1.1" id="Layer_1" xmlns="http://www.w3.org/2000/svg" x="0" y="0" viewBox="0 0 445.25 111.83" xml:space="preserve" height="49" width="196">
   <style>#newfold_x5F_logo_x5F_fullc .st0{fill:#f27224}#newfold_x5F_logo_x5F_fullc .st1{fill:#939497}</style>
   <g id="newfold_x5F_logo_x5F_fullc">
      <g id="icon_2_">
         <path class="st0" d="M3.34 55.96l20.67-20.31 67.95 65.99H50.23z"/>
         <path class="st1" d="M0 104.45l25.25-19.24L0 60.84z"/>
         <path class="st1" d="M0 104.45l25.25-19.24L0 60.84z"/>
         <path class="st0" d="M95.65 55.87L74.98 76.18 7.03 10.2h41.73z"/>
         <path class="st1" d="M98.99 7.39L73.74 26.63l25.25 24.36z"/>
      </g>
      <g id="wordmark_2_">
         <g id="newfold_2_">
            <path class="st0" d="M126.64 16.8h7.56v4.79c0 .39.2.59.59.59.17 0 .32-.07.46-.21l.46-.46c2.97-3.98 7.5-5.96 13.61-5.96 5.49 0 9.8 1.54 12.94 4.62 3.13 3.08 4.7 7.42 4.7 13.02v27.3h-7.56V34.44c0-3.98-1.01-7-3.02-9.07-2.02-2.07-4.93-3.11-8.74-3.11-4.31 0-7.63 1.3-9.95 3.91-2.32 2.6-3.49 6.48-3.49 11.63v22.68h-7.56V16.8zM178.55 26.38c1.85-3.47 4.44-6.15 7.77-8.02 3.33-1.88 7.24-2.81 11.72-2.81 4.42 0 8.19.92 11.3 2.77 3.11 1.85 5.43 4.3 6.97 7.35s2.31 6.4 2.31 10.04v5.04h-34.86c.28 4.37 1.75 7.84 4.41 10.42s6.23 3.86 10.71 3.86c3.64 0 6.43-.74 8.36-2.23 1.93-1.48 3.35-3.54 4.24-6.17h7.98c-1.06 4.09-3.23 7.63-6.51 10.63-3.28 3-7.97 4.49-14.07 4.49-4.59 0-8.64-.94-12.14-2.81s-6.2-4.55-8.11-8.02c-1.9-3.47-2.86-7.56-2.86-12.26s.93-8.81 2.78-12.28zm31.67 8.06c0-3.81-.98-6.79-2.94-8.95-1.96-2.16-5.04-3.23-9.24-3.23-3.92 0-7.13 1.05-9.62 3.15-2.49 2.1-4.02 5.11-4.58 9.03h26.38zM225.09 16.8h7.64l8.4 35.53c.11.39.24.66.38.8s.35.21.63.21.5-.07.67-.21c.17-.14.28-.41.34-.8l8.32-35.53h13.61l8.32 35.53c.11.39.24.66.38.8s.35.21.63.21.5-.07.67-.21c.17-.14.28-.41.34-.8l8.4-35.53h7.64v1.68l-10.25 42h-13.44l-8.65-36.62c-.17-.5-.45-.76-.84-.76-.22 0-.39.06-.5.17-.11.11-.22.31-.34.59l-8.65 36.62h-13.44l-10.25-42V16.8zM295.65 16.8h10.5v-1.26c0-5.26 1.27-9.17 3.82-11.72C312.52 1.27 316.42 0 321.69 0h7.56v6.72H314.97c-.39 0-.7.11-.92.34-.22.22-.34.53-.34.92v8.82h11.34v6.72h-11.34v36.96h-7.56V23.52h-10.5V16.8zM363.14 18.23c3.44 1.79 6.16 4.42 8.15 7.9 1.99 3.47 2.98 7.64 2.98 12.52s-.99 9.04-2.98 12.52c-1.99 3.47-4.7 6.1-8.15 7.9-3.44 1.79-7.29 2.69-11.55 2.69-4.26 0-8.11-.9-11.55-2.69-3.44-1.79-6.16-4.42-8.15-7.9-1.99-3.47-2.98-7.64-2.98-12.52s.99-9.04 2.98-12.52c1.99-3.47 4.7-6.1 8.15-7.9 3.44-1.79 7.29-2.69 11.55-2.69 4.26 0 8.11.9 11.55 2.69zm-22.51 8.36c-2.77 2.88-4.16 6.9-4.16 12.05s1.39 9.17 4.16 12.05c2.77 2.88 6.43 4.33 10.96 4.33s8.19-1.44 10.96-4.33c2.77-2.88 4.16-6.9 4.16-12.05s-1.39-9.17-4.16-12.05c-2.77-2.88-6.43-4.33-10.96-4.33s-8.19 1.44-10.96 4.33zM391.07 0v60.48h-7.56V0h7.56zM403.38 25.87c2.04-3.47 4.69-6.06 7.94-7.77s6.72-2.56 10.42-2.56c6.22 0 11.03 2.04 14.45 6.13.28.39.59.59.92.59.39 0 .59-.22.59-.67V0h7.56v60.48h-7.56v-4.79c0-.45-.2-.67-.59-.67-.34 0-.64.2-.92.59-3.42 4.09-8.23 6.13-14.45 6.13-3.7 0-7.17-.85-10.42-2.56s-5.89-4.3-7.94-7.77c-2.04-3.47-3.07-7.73-3.07-12.77s1.02-9.3 3.07-12.77zm8.65 24.82c2.77 2.88 6.43 4.33 10.96 4.33s8.19-1.44 10.96-4.33c2.77-2.88 4.16-6.9 4.16-12.05s-1.39-9.17-4.16-12.05c-2.77-2.88-6.43-4.33-10.96-4.33s-8.19 1.44-10.96 4.33c-2.77 2.88-4.16 6.9-4.16 12.05s1.39 9.17 4.16 12.05z"/>
         </g>
         <g id="digital_2_">
            <path class="st0" d="M127.77 85.78c1.03-1.75 2.36-3.05 3.99-3.91 1.63-.86 3.38-1.29 5.24-1.29 3.12 0 5.55 1.03 7.26 3.08.14.2.3.3.46.3.2 0 .29-.11.29-.34V72.77h3.8v30.4h-3.8v-2.41c0-.22-.1-.34-.29-.34-.17 0-.32.1-.46.3-1.72 2.06-4.14 3.08-7.26 3.08-1.86 0-3.6-.43-5.24-1.29s-2.96-2.16-3.99-3.91c-1.03-1.75-1.54-3.88-1.54-6.42 0-2.51.51-4.65 1.54-6.4zm4.35 12.48c1.39 1.45 3.23 2.17 5.51 2.17s4.12-.72 5.51-2.17 2.09-3.47 2.09-6.06c0-2.59-.7-4.61-2.09-6.06-1.39-1.45-3.23-2.17-5.51-2.17s-4.12.73-5.51 2.17c-1.39 1.45-2.09 3.47-2.09 6.06 0 2.59.7 4.61 2.09 6.06zM159.38 72.77v5.07h-5.49v-5.07h5.49zm-.85 8.45v21.96h-3.8V81.22h3.8zM166.98 103.9c.22 1.41.88 2.52 1.96 3.34 1.08.82 2.55 1.22 4.41 1.22 2.53 0 4.5-.65 5.89-1.94s2.09-3.11 2.09-5.45v-1.52c0-.17-.08-.25-.25-.25-.14 0-.27.07-.38.21-1.55 2.03-3.94 3.04-7.18 3.04-1.89 0-3.63-.43-5.24-1.29s-2.89-2.11-3.86-3.76c-.97-1.65-1.46-3.62-1.46-5.93s.49-4.29 1.46-5.93c.97-1.65 2.26-2.9 3.86-3.76 1.6-.86 3.35-1.29 5.24-1.29 3.07 0 5.48 1.03 7.22 3.08.25.31.48.46.68.46.11 0 .2-.04.25-.11s.1-.16.13-.27l.8-2.53h2.53v19.64c0 3.46-1.04 6.16-3.12 8.09-2.08 1.93-4.98 2.89-8.7 2.89-3.18 0-5.68-.73-7.5-2.17-1.82-1.45-2.84-3.37-3.06-5.76h4.23zm.78-8.26a6.75 6.75 0 002.68 2.62c1.12.61 2.36.91 3.72.91s2.59-.3 3.72-.91 2.02-1.48 2.68-2.62c.66-1.14.99-2.5.99-4.07 0-1.58-.33-2.94-.99-4.08-.66-1.14-1.56-2.01-2.68-2.62s-2.36-.91-3.72-.91-2.59.3-3.72.91a6.75 6.75 0 00-2.68 2.62c-.66 1.14-.99 2.5-.99 4.08 0 1.57.33 2.93.99 4.07zM195.69 72.77v5.07h-5.49v-5.07h5.49zm-.84 8.45v21.96h-3.8V81.22h3.8zM198.44 81.22h5.07v-5.91h3.8v5.91h5.7v3.38h-5.7v14.57c0 .2.06.35.17.46s.27.17.46.17H213.64v3.38h-2.96c-2.42 0-4.22-.59-5.41-1.77-1.18-1.18-1.77-2.98-1.77-5.41V84.6h-5.07v-3.38zM218.64 92.05c1.34-1.11 3.34-1.7 6.02-1.75l8.02-.17v-.89c0-1.66-.48-2.96-1.44-3.88s-2.45-1.39-4.48-1.39c-1.8 0-3.17.39-4.1 1.18-.93.79-1.39 1.8-1.39 3.04h-4.01a7.68 7.68 0 011.27-3.88c.76-1.15 1.84-2.06 3.25-2.72 1.41-.66 3.07-.99 4.98-.99 3.21 0 5.63.77 7.26 2.32 1.63 1.55 2.45 3.73 2.45 6.54v13.72h-3.8v-2.28c0-.17-.08-.25-.25-.25-.14 0-.28.08-.42.25-1.52 1.94-3.76 2.91-6.71 2.91-2.7 0-4.82-.66-6.36-1.99-1.54-1.32-2.3-3.05-2.3-5.19.01-1.94.68-3.47 2.01-4.58zm3.19 7.37c.93.68 2.22 1.01 3.88 1.01 2.17 0 3.87-.59 5.11-1.77 1.24-1.18 1.86-2.91 1.86-5.19v-.17l-8.02.17c-1.44.03-2.5.32-3.19.87s-1.03 1.32-1.03 2.3c0 1.17.46 2.1 1.39 2.78zM245.99 72.77v30.4h-3.8v-30.4h3.8z"/>
         </g>
      </g>
   </g>
</svg>