<svg xmlns="http://www.w3.org/2000/svg" xmlns:xlink="http://www.w3.org/1999/xlink" width="145" height="253" viewBox="0 0 145 253"><defs><linearGradient id="a" x1="-0.06" y1="0.457" x2="0.717" y2="0.772" gradientUnits="objectBoundingBox"><stop offset="0" stop-color="#2962ff"/><stop offset="1" stop-color="#66a9f8"/></linearGradient><clipPath id="b"><rect width="145" height="253" transform="translate(4072 8404)" fill="url(#a)"/></clipPath><linearGradient id="c" x1="1.284" y1="0.742" x2="-0.409" y2="0.5" gradientUnits="objectBoundingBox"><stop offset="0" stop-color="#ea6a1b"/><stop offset="1" stop-color="#f05b32"/></linearGradient><linearGradient id="d" x1="0.063" y1="0.887" x2="1.365" y2="0.578" xlink:href="#c"/></defs><g transform="translate(-4072 -8404)" clip-path="url(#b)"><g transform="translate(3689.901 8646.984) rotate(-90)"><path d="M203.581,88.149c-14.866,22.781-29.119,26.485-36.661,30.172-18.468,9.03-51.366,3.683-80.337-7.245-24.927-9.4-46.505-24.173-57.321-22.927C12.895,90.033,1.953,106.728.742,118.321c-2.857,27.341,2.892,38.973,11.209,42.668,49.766,22.12,251.24-9.471,251.24-9.471V0S240.9,6.423,226.384,27.2C213.178,46.1,218.447,65.368,203.581,88.149Z" transform="translate(4.988 381.898)" opacity="0.15" fill="url(#c)"/><path d="M158.248,0a32.117,32.117,0,0,0-22.162,16.988c-6.46,13.076-2.1,33.15-16.112,50.7S89.11,87.038,80.05,87.2c-24.422.438-37.376-22.516-58.041-19.509s-32.886,22.2-8.548,39.993,143.711,3.61,143.711,3.61Z" transform="translate(110.263 414.202)" opacity="0.2" fill="url(#d)"/></g></g></svg>