<svg xmlns="http://www.w3.org/2000/svg" width="18" height="14.951" viewBox="0 0 18 14.951"><defs><style>.a{fill:#fff;}</style></defs><g transform="translate(0)"><path class="a" d="M1.012,47.738l-.028.006H13.028L9.242,43.949a.994.994,0,0,1,0-1.4l.589-.589a.986.986,0,0,1,1.391,0l6.491,6.49a.992.992,0,0,1,0,1.4l-6.491,6.491a.986.986,0,0,1-1.391,0l-.589-.589a.975.975,0,0,1-.287-.7.946.946,0,0,1,.287-.682l3.829-3.816H1a1.02,1.02,0,0,1-1-1.01v-.834A1,1,0,0,1,1.012,47.738Z" transform="translate(0 -41.674)"/></g></svg>