<svg xmlns="http://www.w3.org/2000/svg" width="36.759" height="28" viewBox="0 0 36.759 28"><defs><style>.a{fill:#fff;}</style></defs><path class="a" d="M36.759,64.231A3.236,3.236,0,0,0,33.528,61H3.231A3.236,3.236,0,0,0,0,64.231V85.769A3.236,3.236,0,0,0,3.231,89h30.3a3.236,3.236,0,0,0,3.231-3.231Zm-34.605.436L12.527,74.95,2.154,85.323ZM18.448,77.788,3.687,63.154H33.082Zm-4.392-1.321,3.637,3.606a1.077,1.077,0,0,0,1.52,0l3.546-3.546L33.082,86.846H3.677ZM24.282,75,34.605,64.677V85.323Z" transform="translate(0 -61)"/></svg>