<svg xmlns="http://www.w3.org/2000/svg" width="28.972" height="43.169" viewBox="0 0 28.972 43.169"><defs><style>.a{fill:#fff;}</style></defs><g transform="translate(-133 -140)"><path class="a" d="M151.7,173.237l5.557-7.58c2.485-3.388,4.715-6.792,4.715-11.171A14.5,14.5,0,0,0,147.545,140h-.061A14.5,14.5,0,0,0,133,154.486c0,4.378,2.23,7.783,4.715,11.171l5.557,7.58H136.81l-3.745,9.932h28.843l-3.745-9.932Zm-11.946-9.076c-2.311-3.152-4.225-6.056-4.225-9.675a11.969,11.969,0,0,1,11.9-11.957h.057a11.971,11.971,0,0,1,11.957,11.957c0,3.619-1.914,6.524-4.225,9.675L147.5,174.72Zm-3.032,16.479,1.837-4.873h6.566l2.336,3.186s1.953-2.57,2.4-3.186h6.549l1.837,4.873Zm0,0"/><path class="a" d="M216.843,214.921a8.921,8.921,0,1,0-8.922,8.921,8.932,8.932,0,0,0,8.922-8.921Zm-8.922,6.391a6.391,6.391,0,1,1,6.392-6.391,6.4,6.4,0,0,1-6.392,6.391Zm0,0" transform="translate(-60.435 -60.435)"/></g></svg>