<svg xmlns="http://www.w3.org/2000/svg" width="37.001" height="37.001" viewBox="0 0 37.001 37.001"><defs><style>.a{fill:#fff;}</style></defs><g transform="translate(-114.001 -204)"><path class="a" d="M140.593,241a10.3,10.3,0,0,1-3.537-.632,37.553,37.553,0,0,1-22.424-22.424,10.237,10.237,0,0,1-.522-5.03,10.5,10.5,0,0,1,5.394-7.683A10.3,10.3,0,0,1,124.437,204a1.157,1.157,0,0,1,1.131.914l1.815,8.469a1.156,1.156,0,0,1-.313,1.06l-3.1,3.1a30.437,30.437,0,0,0,13.488,13.489l3.1-3.1a1.157,1.157,0,0,1,1.06-.313l8.469,1.815a1.156,1.156,0,0,1,.914,1.131,10.3,10.3,0,0,1-1.233,4.933,10.494,10.494,0,0,1-7.682,5.394,10.244,10.244,0,0,1-1.494.11Zm-17.08-34.638a8.1,8.1,0,0,0-6.708,10.793,35.072,35.072,0,0,0,21.04,21.04,8.1,8.1,0,0,0,10.793-6.708l-6.89-1.476-3.239,3.238a1.156,1.156,0,0,1-1.309.229A32.739,32.739,0,0,1,121.523,217.8a1.156,1.156,0,0,1,.229-1.309l3.238-3.239Zm0,0"/><path class="a" d="M312.508,223.656a1.156,1.156,0,0,1-1.156-1.156,16.2,16.2,0,0,0-16.187-16.187,1.156,1.156,0,1,1,0-2.313,18.5,18.5,0,0,1,18.5,18.5,1.156,1.156,0,0,1-1.156,1.156Zm0,0" transform="translate(-162.662)"/><path class="a" d="M307.883,267.027a1.156,1.156,0,0,1-1.156-1.156,11.576,11.576,0,0,0-11.562-11.562,1.156,1.156,0,1,1,0-2.313,13.891,13.891,0,0,1,13.875,13.875,1.156,1.156,0,0,1-1.156,1.156Zm0,0" transform="translate(-162.662 -43.371)"/><path class="a" d="M303.258,310.4a1.156,1.156,0,0,1-1.156-1.156,6.945,6.945,0,0,0-6.937-6.937,1.156,1.156,0,0,1,0-2.313,9.26,9.26,0,0,1,9.25,9.25,1.156,1.156,0,0,1-1.156,1.156Zm0,0" transform="translate(-162.662 -86.746)"/></g></svg>