<svg xmlns="http://www.w3.org/2000/svg" width="84" height="84" viewBox="0 0 84 84"><defs><style>.a{fill:#3d77c5;}.b,.c,.e{fill:#fff;}.c{stroke:#fff;stroke-width:0.2px;}.d,.e{stroke:none;}.f{fill:none;}</style></defs><g transform="translate(-9449 -1075)"><circle class="a" cx="42" cy="42" r="42" transform="translate(9449 1075)"/><g transform="translate(9469.822 1093.399)"><g class="b" transform="translate(-7.622 -2.5)"><path class="d" d="M 28.74613189697266 49.89302444458008 C 27.07816123962402 49.89302444458008 25.4560718536377 48.95557403564453 24.05522155761719 47.18203353881836 C 22.71526718139648 45.48556518554688 21.56264495849609 43.00955581665039 20.71928024291992 40.01726150512695 C 18.50546455383301 40.56470108032227 16.52177429199219 40.84220123291016 14.82179164886475 40.84220123291016 C 11.54442119598389 40.84220123291016 9.24459171295166 39.86196136474609 8.170921325683594 38.00744247436523 C 6.524649620056152 35.15066146850586 8.172971725463867 30.82198524475098 12.69366550445557 26.12164497375488 C 8.177347183227539 21.42619132995605 6.510861396789551 17.11584854125977 8.120811462402344 14.2862434387207 C 9.187431335449219 12.43534278869629 11.481201171875 11.45726299285889 14.7544116973877 11.45726299285889 C 16.50035285949707 11.45726299285889 18.49017524719238 11.73258876800537 20.67030334472656 12.27576351165771 C 21.55293083190918 9.229513168334961 22.68110275268555 6.819187164306641 24.02400207519531 5.111173152923584 C 25.43843078613281 3.312172889709473 27.01045227050781 2.400002956390381 28.69640159606934 2.400002956390381 C 31.994873046875 2.400002956390381 34.89942932128906 5.979597091674805 36.67327499389648 12.22590732574463 C 38.85308456420898 11.6828670501709 40.84293746948242 11.40753269195557 42.58866119384766 11.40753269195557 C 45.86186981201172 11.40753269195557 48.15564346313477 12.38561344146729 49.22198104858398 14.23603343963623 C 50.8681640625 17.09262657165527 49.21982955932617 21.42130088806152 44.69913482666016 26.12164306640625 C 49.19805526733398 30.79940605163574 50.88335800170898 35.12754821777344 49.32269287109375 38.00502395629883 C 48.24767303466797 39.86196136474609 45.94784164428711 40.84220123291016 42.67045974731445 40.84220123291016 C 40.94601440429688 40.84220123291016 39.01588439941406 40.57226943969727 36.77227783203125 40.01709365844727 C 35.88961791992188 43.06361770629883 34.76150131225586 45.47373199462891 33.41852188110352 47.18185424804688 C 32.00409317016602 48.98085403442383 30.43207168579102 49.89302444458008 28.74613189697266 49.89302444458008 Z M 23.00103187561035 39.31544494628906 C 24.46571159362793 44.33911895751953 26.64417457580566 47.45518112182617 28.69640159606934 47.45518112182617 C 30.74862861633301 47.45518112182617 32.92709350585938 44.33913040161133 34.39176940917969 39.31545639038086 C 32.34238815307617 38.64691925048828 30.42702674865723 37.89294052124023 28.69640159606934 37.07342529296875 C 26.96569061279297 37.89297866821289 25.05032730102539 38.64694976806641 23.00103187561035 39.31544494628906 Z M 37.3178825378418 37.68439483642578 C 39.34487533569336 38.18039321899414 41.16302108764648 38.43182373046875 42.72331237792969 38.43182373046875 C 45.05672073364258 38.43182373046875 46.60763168334961 37.87236404418945 47.20837020874023 36.81392288208008 C 48.23186111450195 35.0106086730957 46.62543487548828 31.58161544799805 43.01485824584961 27.85268592834473 C 41.82696914672852 28.94802856445313 40.34820556640625 30.12287139892578 38.24050521850586 31.64633750915527 C 38.06386947631836 33.56791305541992 37.75357818603516 35.59853744506836 37.3178825378418 37.68439483642578 Z M 14.37953853607178 27.80221748352051 C 10.77409172058105 31.57347869873047 9.167238235473633 35.02170944213867 10.18443202972412 36.81392288208008 C 10.78340148925781 37.84072113037109 12.38155174255371 38.40676116943359 14.68388175964355 38.40676116943359 C 16.24333190917969 38.40676116943359 18.10476303100586 38.14051055908203 20.07286071777344 37.63629531860352 C 19.66623878479004 35.89453125 19.3648624420166 33.917236328125 19.15239143371582 31.59769630432129 C 17.57507133483887 30.49974822998047 15.96982097625732 29.22321891784668 14.37953853607178 27.80221748352051 Z M 31.46887588500977 35.75705718994141 C 32.64890670776367 36.23260116577148 33.8035888671875 36.65121078491211 34.98862075805664 37.03313064575195 C 35.25163269042969 35.87251663208008 35.43861389160156 34.70046234130859 35.63026428222656 33.32685089111328 C 34.95389938354492 33.73297500610352 34.25909042358398 34.153564453125 33.57564163208008 34.60919189453125 C 33.01418304443359 34.94620132446289 32.42744064331055 35.25387191772461 31.86003112792969 35.55142211914063 C 31.72875595092773 35.62026214599609 31.59821128845215 35.68871688842773 31.46887588500977 35.75705718994141 Z M 21.76353073120117 33.28474044799805 C 21.94162368774414 34.56654739379883 22.12882423400879 35.81415557861328 22.40418434143066 36.98727798461914 C 23.52621650695801 36.66611099243164 24.62880706787109 36.23398590087891 25.9243221282959 35.7075080871582 C 25.85763931274414 35.67224502563477 25.79064178466797 35.63691711425781 25.72338104248047 35.6014518737793 C 25.09283065795898 35.26899337768555 24.44083404541016 34.92520904541016 23.82029914855957 34.51183700561523 C 23.09699630737305 34.10490036010742 22.40605735778809 33.69266128540039 21.76353073120117 33.28474044799805 Z M 21.48222351074219 30.29196929931641 C 22.5931282043457 31.01645088195801 23.74200248718262 31.7645263671875 25.01664161682129 32.49990463256836 C 26.11910820007324 33.16136169433594 27.32254028320313 33.803955078125 28.69551277160645 34.46433639526367 C 30.1344165802002 33.7441291809082 31.27117347717285 33.13738632202148 32.37616348266602 32.49990463256836 C 33.64525985717773 31.76773071289063 34.83408355712891 31.02545547485352 35.91048049926758 30.29321098327637 C 36.00695419311523 28.9732780456543 36.05587005615234 27.57002639770508 36.05587005615234 26.12164306640625 C 36.05587005615234 24.67370796203613 36.00698471069336 23.27090263366699 35.91056823730469 21.95132637023926 C 34.7998161315918 21.2269401550293 33.6508903503418 20.47881889343262 32.37616348266602 19.74339294433594 C 31.15575218200684 19.05997276306152 29.91727256774902 18.41540145874023 28.6954460144043 17.82779312133789 C 27.52288627624512 18.36703300476074 26.28547859191895 19.01136589050293 25.01664161682129 19.74339294433594 C 23.91879081726074 20.35820388793945 22.86145210266113 21.04960250854492 21.83892250061035 21.71823310852051 C 21.71948623657227 21.79633712768555 21.6005916595459 21.87408638000488 21.48222351074219 21.95132064819336 C 21.38581848144531 23.2708568572998 21.33694076538086 24.67366790771484 21.33694076538086 26.12164306640625 C 21.33694076538086 27.56962776184082 21.38581848144531 28.97243118286133 21.48222351074219 30.29196929931641 Z M 16.11565208435059 26.12164306640625 C 16.87737846374512 26.80148887634277 17.87153244018555 27.66421699523926 18.99767875671387 28.50786781311035 C 18.99460983276367 28.14802742004395 18.9840259552002 27.77760314941406 18.97373199462891 27.41748237609863 C 18.96148109436035 26.98892211914063 18.94882202148438 26.54577255249023 18.94882202148438 26.12164306640625 C 18.94882202148438 25.33611488342285 18.94882202148438 24.52608871459961 18.98723602294922 23.74325180053711 C 17.86544418334961 24.58436393737793 16.87502861022949 25.44390106201172 16.11565208435059 26.12164306640625 Z M 38.39513397216797 23.73542785644531 C 38.39820098876953 24.09526824951172 38.40878677368164 24.4656925201416 38.41907119750977 24.82581329345703 C 38.43131256103516 25.25437355041504 38.4439697265625 25.69751358032227 38.4439697265625 26.12164306640625 C 38.4439697265625 26.90717124938965 38.4439697265625 27.71720886230469 38.40557098388672 28.50004577636719 C 39.52739715576172 27.65890121459961 40.51780319213867 26.79936790466309 41.27715301513672 26.12164306640625 C 40.51540756225586 25.44178771972656 39.52124786376953 24.57905387878418 38.39513397216797 23.73542785644531 Z M 38.24040222167969 20.6953296661377 C 39.81780624389648 21.79332542419434 41.42305755615234 23.06985282897949 43.01326370239258 24.49079895019531 C 46.61872100830078 20.71954727172852 48.2255744934082 17.27131652832031 47.20837020874023 15.47910308837891 C 46.58367156982422 14.42196273803711 44.97177124023438 13.83893299102783 42.67045974731445 13.83893299102783 C 41.01787567138672 13.83893299102783 39.16961288452148 14.12055778503418 37.31927871704102 14.65388298034668 C 37.72623825073242 16.39631843566895 38.02780151367188 18.37444686889648 38.24040222167969 20.6953296661377 Z M 14.72234153747559 13.78920269012451 C 12.4210319519043 13.78920269012451 10.80913162231445 14.37223339080811 10.18355178833008 15.43088340759277 C 9.154295921325684 17.24437522888184 10.77960777282715 20.67357444763184 14.42721176147461 24.39103698730469 C 15.61517429351807 23.29557609558105 17.09406280517578 22.12060546875 19.20202827453613 20.59695816040039 C 19.37869453430176 18.67502212524414 19.68908500671387 16.64393615722656 20.12490844726563 14.55766487121582 C 18.17871475219727 14.05475902557373 16.31258964538574 13.78920269012451 14.72234153747559 13.78920269012451 Z M 33.52409362792969 17.73220825195313 C 34.2469482421875 18.13891410827637 34.93741226196289 18.55088233947754 35.57954406738281 18.95855140686035 C 35.40153121948242 17.67722702026367 35.21442413330078 16.43017959594727 34.93912887573242 15.2570915222168 C 33.95436096191406 15.54988098144531 32.81508255004883 15.9687442779541 31.46552658081055 16.53423881530762 C 31.51412391662598 16.5599536895752 31.5628833770752 16.5857048034668 31.61175155639648 16.61151313781738 C 32.25794982910156 16.95280647277832 32.92612075805664 17.30569839477539 33.52409362792969 17.73220825195313 Z M 22.40390396118164 15.21139049530029 C 22.14102745056152 16.37164688110352 21.9541130065918 17.5433349609375 21.76253509521484 18.91647338867188 L 23.8211612701416 17.68129348754883 C 24.19522094726563 17.45686340332031 24.57500076293945 17.24165344238281 24.94228172302246 17.03352355957031 C 25.25276565551758 16.85758399963379 25.57218933105469 16.67657661437988 25.88888168334961 16.48956298828125 C 24.69320487976074 15.99211597442627 23.5113582611084 15.58147239685059 22.40390396118164 15.21139049530029 Z M 23.00103187561035 12.92784023284912 C 25.05035591125488 13.59635639190674 26.96571922302246 14.3503360748291 28.69640159606934 15.16987228393555 C 30.42708396911621 14.3503360748291 32.34244537353516 13.59635639190674 34.39176940917969 12.92784023284912 C 32.92709350585938 7.904167175292969 30.74861907958984 4.788113117218018 28.69640159606934 4.788113117218018 C 26.64417457580566 4.788113117218018 24.46571159362793 7.904167175292969 23.00103187561035 12.92784023284912 Z"/><path class="e" d="M 28.69640159606934 2.500003814697266 C 25.31478118896484 2.500003814697266 22.48018264770508 6.329193115234375 20.73964309692383 12.39623260498047 C 18.53919219970703 11.84164428710938 16.51805877685547 11.5572624206543 14.75440979003906 11.5572624206543 C 11.61550903320313 11.5572624206543 9.290294647216797 12.45713424682617 8.207733154296875 14.335693359375 C 6.566650390625 17.22001266479492 8.456382751464844 21.59623336791992 12.83260345458984 26.12164306640625 C 8.456382751464844 30.64705276489258 6.566650390625 35.02327346801758 8.257461547851563 37.95734405517578 C 9.351520538330078 39.84707260131836 11.68881225585938 40.74220275878906 14.82179260253906 40.74220275878906 C 16.56233215332031 40.74220275878906 18.60126113891602 40.44382476806641 20.78937149047852 39.89679336547852 C 22.48018264770508 45.96383285522461 25.364501953125 49.79302215576172 28.74613189697266 49.79302215576172 C 32.12775421142578 49.79302215576172 34.96234130859375 45.96383285522461 36.7028923034668 39.89679336547852 C 38.89099884033203 40.44382476806641 40.88019180297852 40.74220275878906 42.67046356201172 40.74220275878906 C 45.80344390869141 40.74220275878906 48.14073944091797 39.84707260131836 49.23479080200195 37.95734405517578 C 50.82615280151367 35.02327346801758 48.9364128112793 30.64705276489258 44.56020355224609 26.12164306640625 C 48.9364128112793 21.59623336791992 50.82615280151367 17.22001266479492 49.13534164428711 14.28596115112305 C 48.05288314819336 12.40758514404297 45.72709655761719 11.50753784179688 42.58864974975586 11.50753021240234 C 40.82478713989258 11.50752639770508 38.80425643920898 11.79181289672852 36.60343170166016 12.34649276733398 C 34.91261291503906 6.329193115234375 32.07802200317383 2.500003814697266 28.69640159606934 2.500003814697266 M 28.69640159606934 15.28055191040039 C 26.70721244812012 14.335693359375 24.71802139282227 13.58974456787109 22.87802124023438 12.99298477172852 C 24.36991119384766 7.821083068847656 26.60775184631348 4.688114166259766 28.69640159606934 4.688114166259766 C 30.7850513458252 4.688114166259766 33.02289199829102 7.821083068847656 34.5147819519043 12.99298477172852 C 32.67478179931641 13.58974456787109 30.68559074401855 14.335693359375 28.69640159606934 15.28055191040039 M 14.4239501953125 24.53029251098633 C 10.64449310302734 20.70110321044922 9.053142547607422 17.22001266479492 10.09746170043945 15.38001251220703 C 10.74394989013672 14.28596115112305 12.38503265380859 13.68920135498047 14.72233200073242 13.68920135498047 C 16.26396179199219 13.68920135498047 18.15369033813477 13.9378547668457 20.24234008789063 14.4848747253418 C 19.84450149536133 16.37461471557617 19.49639129638672 18.46326446533203 19.29747009277344 20.6513729095459 C 17.5072021484375 21.94434356689453 15.81639099121094 23.23732376098633 14.4239501953125 24.53029251098633 M 43.01856994628906 24.62975311279297 C 41.57641220092773 23.33677291870117 39.93533325195313 21.99407386779785 38.14505004882813 20.75083351135254 C 37.94612884521484 18.56271362304688 37.64776229858398 16.47406387329102 37.20019149780273 14.58434295654297 C 39.23911285400391 13.98758316040039 41.12884140014648 13.73893356323242 42.67046356201172 13.73893356323242 C 45.00776290893555 13.73893356323242 46.64884948730469 14.335693359375 47.29534149169922 15.42974472045898 C 48.33966064453125 17.26975250244141 46.74831390380859 20.75083351135254 43.01856994628906 24.62975311279297 M 21.63477325439453 19.1097526550293 C 21.83370208740234 17.66758346557617 22.03261184692383 16.37461471557617 22.33098983764648 15.08163452148438 C 23.52451324462891 15.47947311401367 24.81748199462891 15.92704391479492 26.11045074462891 16.47406387329102 C 25.364501953125 16.92163467407227 24.61856079101563 17.31947326660156 23.87261199951172 17.76704406738281 C 23.12667083740234 18.21461486816406 22.38072204589844 18.66218185424805 21.63477325439453 19.1097526550293 M 35.70830154418945 19.15947341918945 C 35.01206970214844 18.7119026184082 34.26613235473633 18.26434326171875 33.47045135498047 17.8167724609375 C 32.77424240112305 17.31947326660156 31.97856140136719 16.92163467407227 31.23262214660645 16.5238037109375 C 32.52558898925781 15.97677230834961 33.81856155395508 15.47947311401367 35.01206970214844 15.13136291503906 C 35.31045150756836 16.37461471557617 35.50936889648438 17.71731185913086 35.70830154418945 19.15947341918945 M 28.69640159606934 34.57570266723633 C 27.45315170288086 33.97895050048828 26.20991134643555 33.33246231079102 24.96667098999023 32.58652496337891 C 23.67370223999023 31.84057235717773 22.52991104125977 31.09462356567383 21.38613128662109 30.34868240356445 C 21.28666305541992 29.00597381591797 21.23694229125977 27.56381225585938 21.23694229125977 26.12164306640625 C 21.23694229125977 24.67948341369629 21.28666305541992 23.23732376098633 21.38613128662109 21.89461326599121 C 22.52991104125977 21.14867210388184 23.72343063354492 20.35299301147461 24.96667098999023 19.65677261352539 C 26.25964164733887 18.91082382202148 27.50288200378418 18.26434326171875 28.69640159606934 17.71731185913086 C 29.93965148925781 18.31406402587891 31.18288230895996 18.96055221557617 32.42613220214844 19.65677261352539 C 33.71910095214844 20.40272331237793 34.86289215087891 21.14867210388184 36.00667190551758 21.89461326599121 C 36.10613250732422 23.23732376098633 36.1558723449707 24.67948341369629 36.1558723449707 26.12164306640625 C 36.1558723449707 27.56381225585938 36.10614013671875 29.00597381591797 36.00667190551758 30.34868240356445 C 34.91261291503906 31.09462356567383 33.71910095214844 31.84057235717773 32.42613220214844 32.58652496337891 C 31.13315200805664 33.33246231079102 29.88992118835449 33.97895050048828 28.69640159606934 34.57570266723633 M 19.09855270385742 28.70759391784668 C 17.95477294921875 27.86219215393066 16.91044235229492 26.9670524597168 15.96557998657227 26.12164306640625 C 16.91044235229492 25.27624320983887 17.95477294921875 24.381103515625 19.09855270385742 23.53569221496582 C 19.04882049560547 24.381103515625 19.04882049560547 25.27624320983887 19.04882049560547 26.12164306640625 C 19.04882049560547 26.9670524597168 19.09855270385742 27.86219215393066 19.09855270385742 28.70759391784668 M 38.29424285888672 23.53569221496582 C 39.43803405761719 24.381103515625 40.48236083984375 25.27624320983887 41.42722320556641 26.12164306640625 C 40.48236083984375 26.9670524597168 39.43803405761719 27.86219215393066 38.29424285888672 28.70759391784668 C 38.34397125244141 27.86219215393066 38.34397125244141 26.9670524597168 38.34397125244141 26.12164306640625 C 38.34397125244141 25.27624320983887 38.29424285888672 24.381103515625 38.29424285888672 23.53569221496582 M 14.68387985229492 38.50676345825195 C 12.36082458496094 38.50676345825195 10.72212219238281 37.93412399291992 10.09746170043945 36.86328125 C 9.053142547607422 35.02327346801758 10.64449310302734 31.54219245910645 14.37422180175781 27.66326332092285 C 15.81639099121094 28.95623207092285 17.45748138427734 30.29895210266113 19.24774169921875 31.54219245910645 C 19.44666290283203 33.73030090332031 19.74504089355469 35.81895446777344 20.19261169433594 37.70868301391602 C 18.11425399780273 38.24825286865234 16.24459457397461 38.50676345825195 14.68387985229492 38.50676345825195 M 42.72330856323242 38.53181457519531 C 41.16632080078125 38.53181457519531 39.29566192626953 38.27729034423828 37.20019149780273 37.75841522216797 C 37.59803009033203 35.86868286132813 37.94614410400391 33.78003311157227 38.14506149291992 31.59192276000977 C 39.93533325195313 30.29895210266113 41.62614059448242 29.00597381591797 43.01858139038086 27.71299362182617 C 46.74831390380859 31.54219245910645 48.33966064453125 35.02327346801758 47.29534149169922 36.86328125 C 46.67010879516602 37.96487426757813 45.04611968994141 38.53181457519531 42.72330856323242 38.53181457519531 M 21.63477325439453 33.08382415771484 C 22.33098983764648 33.5313835144043 23.07694244384766 33.97895050048828 23.87261199951172 34.42652130126953 C 24.61856079101563 34.92382049560547 25.41424179077148 35.32166290283203 26.16018104553223 35.7194938659668 C 24.81748199462891 36.26652526855469 23.57424163818359 36.76382446289063 22.33098983764648 37.11193084716797 C 22.03261184692383 35.86869049072266 21.83370208740234 34.52598571777344 21.63477325439453 33.08382415771484 M 35.06181335449219 37.16166305541992 C 33.81856155395508 36.76381301879883 32.57532119750977 36.31625366210938 31.23262214660645 35.76922225952148 C 31.97856140136719 35.37138366699219 32.77424240112305 34.97354125976563 33.52017211914063 34.52597045898438 C 34.26613235473633 34.02868270874023 35.01208114624023 33.58111572265625 35.75803375244141 33.133544921875 C 35.55910110473633 34.57570266723633 35.36019134521484 35.86868286132813 35.06181335449219 37.16166305541992 M 28.69640159606934 47.55518341064453 C 26.60775184631348 47.55518341064453 24.36991119384766 44.42221450805664 22.87802124023438 39.25030517578125 C 24.71802139282227 38.6535530090332 26.70721244812012 37.9076042175293 28.69640159606934 36.96273422241211 C 30.68559074401855 37.9076042175293 32.67478179931641 38.6535530090332 34.5147819519043 39.25031280517578 C 33.02289199829102 44.42221450805664 30.7850513458252 47.55518341064453 28.69640159606934 47.55518341064453 M 28.69640159606934 2.300003051757813 C 32.02635192871094 2.300003051757813 34.95342254638672 5.870506286621094 36.74292755126953 12.10562133789063 C 38.89394760131836 11.57601165771484 40.85987854003906 11.30753326416016 42.58865356445313 11.30753326416016 C 45.89967346191406 11.30753326416016 48.22340393066406 12.30292129516602 49.30863189697266 14.18610382080078 C 50.16800308227539 15.67737197875977 50.16802215576172 17.52616119384766 49.30868148803711 19.68112182617188 C 48.50654983520508 21.69262313842773 47.00259017944336 23.85888862609863 44.83769607543945 26.12165069580078 C 49.31923675537109 30.80669784545898 50.98569869995117 35.14860534667969 49.41060256958008 38.05269241333008 L 49.40927124023438 38.05514526367188 L 49.40788269042969 38.05755233764648 C 48.31532287597656 39.9447021484375 45.98556137084961 40.94220352172852 42.67046356201172 40.94220352172852 C 40.96185302734375 40.94220352172852 39.05325317382813 40.6786994934082 36.84149169921875 40.13712310791016 C 35.95920562744141 43.1525764465332 34.83449554443359 45.54269409179688 33.49713897705078 47.2436637878418 C 32.06278228759766 49.0680046081543 30.46431159973145 49.99302291870117 28.74613189697266 49.99302291870117 C 27.04646110534668 49.99302291870117 25.39723205566406 49.04243469238281 23.97674179077148 47.24401092529297 C 22.64260482788086 45.55491638183594 21.49393463134766 43.10074996948242 20.64939880371094 40.13742828369141 C 18.46552276611328 40.67149353027344 16.50572204589844 40.94220352172852 14.82179260253906 40.94220352172852 C 11.5067024230957 40.94220352172852 9.17694091796875 39.9447021484375 8.084373474121094 38.05755233764648 C 7.224800109863281 36.56592178344727 7.224781036376953 34.71712493896484 8.084121704101563 32.56216430664063 C 8.886253356933594 30.55066299438477 10.39020919799805 28.3843994140625 12.55510330200195 26.12163734436035 C 8.056537628173828 21.41895484924316 6.408531188964844 17.09349060058594 8.033901214599609 14.23679351806641 C 9.119663238525391 12.35265350341797 11.44338989257813 11.35726165771484 14.75440979003906 11.35726165771484 C 16.48350143432617 11.35726165771484 18.44962692260742 11.62578582763672 20.60113143920898 12.15560531616211 C 21.48337936401367 9.140415191650391 22.60811996459961 6.750236511230469 23.94539260864258 5.049362182617188 C 25.37975311279297 3.225021362304688 26.97822189331055 2.300003051757813 28.69640159606934 2.300003051757813 Z M 34.26853942871094 12.86294555664063 C 33.55462646484375 10.44110488891602 32.65637969970703 8.422538757324219 31.66586112976074 7.016254425048828 C 30.68524169921875 5.624011993408203 29.65842247009277 4.888111114501953 28.69640159606934 4.888111114501953 C 27.7343807220459 4.888111114501953 26.70756149291992 5.624011993408203 25.72694206237793 7.016254425048828 C 24.73641967773438 8.422538757324219 23.83817291259766 10.44110488891602 23.124267578125 12.86294555664063 C 25.12595748901367 13.51971435546875 26.99923706054688 14.25806045532227 28.69640159606934 15.05925750732422 C 30.3935661315918 14.25806045532227 32.266845703125 13.51971435546875 34.26853942871094 12.86294555664063 Z M 20.00754928588867 14.63076782226563 C 18.10284042358398 14.14534759521484 16.27907562255859 13.88920211791992 14.72233200073242 13.88920211791992 C 12.45783233642578 13.88920211791992 10.87650299072266 14.45478439331055 10.2696418762207 15.48176193237305 C 9.788852691650391 16.32894134521484 9.913852691650391 17.58958435058594 10.63290023803711 19.12435150146484 C 11.36130523681641 20.67911720275879 12.67266845703125 22.44901466369629 14.43091201782227 24.2518196105957 C 15.60266876220703 23.17865180969238 17.05678558349609 22.02538299560547 19.10663223266602 20.54253387451172 C 19.28166961669922 18.65903472900391 19.58456039428711 16.67152786254883 20.00754928588867 14.63076782226563 Z M 43.00763702392578 24.35177230834961 C 46.53473663330078 20.64127349853516 48.10979461669922 17.26992416381836 47.12140274047852 15.52846145629883 C 46.51630020141602 14.50451278686523 44.93497085571289 13.93893432617188 42.67046356201172 13.93893432617188 C 41.53573226928711 13.93893432617188 39.71763610839844 14.07680511474609 37.43817138671875 14.72388458251953 C 37.83265686035156 16.43659973144531 38.12671661376953 18.37519454956055 38.33572769165039 20.63987922668457 C 39.88024139404297 21.71748352050781 41.45090484619141 22.96541023254395 43.00763702392578 24.35177230834961 Z M 25.66455078125 16.50518035888672 C 24.57287216186523 16.05855178833008 23.49464416503906 15.68233871459961 22.47721481323242 15.34137725830078 C 22.24080657958984 16.40443801879883 22.06601333618164 17.48291015625 21.89068984985352 18.72296142578125 L 23.76971054077148 17.59554290771484 C 24.14482116699219 17.3704833984375 24.52513122558594 17.15496444702148 24.8929328918457 16.94655227661133 C 25.14635467529297 16.80293655395508 25.40573120117188 16.65596008300781 25.66455078125 16.50518035888672 Z M 35.45071792602539 18.75901412963867 C 35.28701782226563 17.59262084960938 35.11208343505859 16.45688247680664 34.86580657958984 15.38350296020508 C 33.95635223388672 15.65894317626953 32.91527557373047 16.04083251953125 31.69977951049805 16.544921875 C 32.33444213867188 16.88016510009766 32.98837661743164 17.22784423828125 33.57786560058594 17.64772033691406 C 34.23259735107422 18.01618957519531 34.86080169677734 18.38897705078125 35.45071792602539 18.75901412963867 Z M 35.81442642211914 22.00800895690918 C 34.71767425537109 21.29280471801758 33.58269500732422 20.55492210388184 32.32617950439453 19.83001327514648 C 31.12268257141113 19.15607070922852 29.90056228637695 18.51946258544922 28.69448852539063 17.93832778930664 C 27.53739547729492 18.47227096557617 26.3173828125 19.10840606689453 25.06661987304688 19.83001327514648 C 23.97060012817383 20.44380378723145 22.9146728515625 21.1342830657959 21.89352035522461 21.80202293395996 C 21.78805541992188 21.87098121643066 21.68301010131836 21.93966865539551 21.5783805847168 22.00797653198242 C 21.48451995849609 23.31064987182617 21.43694305419922 24.69409370422363 21.43694305419922 26.12164306640625 C 21.43694305419922 27.54920196533203 21.48451995849609 28.93261337280273 21.57837677001953 30.23528861999512 C 22.67512893676758 30.95049095153809 23.81010818481445 31.68837356567383 25.06661987304688 32.41328430175781 C 26.15606880187988 33.06691741943359 27.34275436401367 33.70133972167969 28.69465065002441 34.35292053222656 C 30.11093330383301 33.64328002929688 31.23426628112793 33.04323577880859 32.32619094848633 32.41328430175781 C 33.57743072509766 31.69140815734863 34.75038909912109 30.95979499816895 35.81425476074219 30.23768424987793 C 35.90824127197266 28.93421173095703 35.95587158203125 27.55000686645508 35.95587158203125 26.12164306640625 C 35.95587158203125 24.69430923461914 35.90829467773438 23.3108959197998 35.81442642211914 22.00800895690918 Z M 41.12685394287109 26.12164306640625 C 40.41584014892578 25.48882675170898 39.51360321044922 24.70927810668945 38.49758911132813 23.93795013427734 C 38.50214385986328 24.23213577270508 38.51068115234375 24.53095054626465 38.51902008056641 24.82296371459961 C 38.53129196166992 25.25222206115723 38.54397201538086 25.69608306884766 38.54397201538086 26.12164306640625 C 38.54397201538086 26.83754539489746 38.54397201538086 27.57375717163086 38.51493835449219 28.29215812683105 C 39.52396392822266 27.52508544921875 40.41986846923828 26.75088500976563 41.12685394287109 26.12164306640625 Z M 18.89520263671875 28.30533599853516 C 18.89064788818359 28.01115226745605 18.88211059570313 27.71234703063965 18.87377166748047 27.42033386230469 C 18.86149978637695 26.9910831451416 18.84881973266602 26.54720306396484 18.84881973266602 26.12164306640625 C 18.84881973266602 25.4057502746582 18.84882354736328 24.66953277587891 18.87785339355469 23.95112609863281 C 17.86885070800781 24.71820449829102 16.97294998168945 25.49239540100098 16.26594924926758 26.12164306640625 C 16.97694396972656 26.75445365905762 17.87917327880859 27.53399467468262 18.89520263671875 28.30533599853516 Z M 19.05706787109375 31.65314674377441 C 17.51262664794922 30.5755786895752 15.94196319580078 29.32765007019043 14.38515853881836 27.94124221801758 C 10.85806655883789 31.6517505645752 9.283008575439453 35.02310180664063 10.27140045166016 36.76456451416016 C 10.85111999511719 37.75833129882813 12.4185905456543 38.3067626953125 14.68387985229492 38.3067626953125 C 16.2100830078125 38.3067626953125 18.02825927734375 38.05007934570313 19.95334243774414 37.56352233886719 C 19.55952835083008 35.85221099853516 19.26583862304688 33.9151611328125 19.05706787109375 31.65314674377441 Z M 42.72331237792969 38.33181381225586 C 44.98583984375 38.33181381225586 46.54778289794922 37.77522277832031 47.12140274047852 36.76456451416016 C 47.60287094116211 35.91626358032227 47.47991943359375 34.65542221069336 46.76585388183594 33.11835479736328 C 46.04560089111328 31.5679759979248 44.74892807006836 29.79848480224609 43.01066589355469 27.99234199523926 C 41.839111328125 29.06521606445313 40.38509368896484 30.21837997436523 38.33589935302734 31.70076370239258 C 38.16091918945313 33.58354187011719 37.85822296142578 35.57015991210938 37.43548965454102 37.61008453369141 C 39.41690063476563 38.08903884887695 41.19512939453125 38.33181381225586 42.72331237792969 38.33181381225586 Z M 23.7679328918457 34.59710311889648 C 23.11222839355469 34.22814178466797 22.48310852050781 33.85483932495117 21.89235687255859 33.48427963256836 C 22.05617141723633 34.65148544311523 22.23122406005859 35.78797912597656 22.47774124145508 36.86189651489258 C 23.5028076171875 36.56210708618164 24.51858520507813 36.16893768310547 25.68758583068848 35.69563293457031 C 25.68396759033203 35.6937255859375 25.68036079406738 35.69182205200195 25.6767406463623 35.68991088867188 C 25.04500961303711 35.35682678222656 24.39179992675781 35.01240539550781 23.7679328918457 34.59710311889648 Z M 34.91507339477539 36.90423965454102 C 35.1517219543457 35.84053039550781 35.32664489746094 34.76139831542969 35.50207901000977 33.52056503295898 C 34.88372802734375 33.89266967773438 34.25237274169922 34.27822113037109 33.63111114501953 34.6923828125 L 33.62715148925781 34.69502258300781 L 33.62306976318359 34.69747161865234 C 33.06314086914063 35.03343200683594 32.47510147094727 35.34180450439453 31.90641212463379 35.6400146484375 C 31.83969688415527 35.67499923706055 31.77317237854004 35.70988464355469 31.70689392089844 35.74470901489258 C 32.78066253662109 36.17258071899414 33.83590316772461 36.55393600463867 34.91507339477539 36.90423965454102 Z M 34.26853561401367 39.38035202026367 C 32.26682662963867 38.72358322143555 30.39354705810547 37.98522567749023 28.69640159606934 37.18402862548828 C 26.99922752380371 37.98524475097656 25.12594985961914 38.72359085083008 23.124267578125 39.38034439086914 C 23.83817291259766 41.80219268798828 24.73641967773438 43.82075500488281 25.72694206237793 45.22704315185547 C 26.70756149291992 46.61928176879883 27.7343807220459 47.35518264770508 28.69640159606934 47.35518264770508 C 29.65842247009277 47.35518264770508 30.68524169921875 46.61928176879883 31.66586112976074 45.22704315185547 C 32.65637969970703 43.82075500488281 33.55462646484375 41.80219268798828 34.26853561401367 39.38035202026367 Z"/></g><g class="c" transform="translate(18.24 20.787)"><circle class="d" cx="2.835" cy="2.835" r="2.835"/><circle class="f" cx="2.835" cy="2.835" r="2.935"/></g></g></g></svg>