<svg xmlns="http://www.w3.org/2000/svg" width="84" height="84" viewBox="0 0 84 84"><defs><style>.a{fill:#3d77c5;}.b{fill:#fff;}</style></defs><g transform="translate(-9449 -1182)"><circle class="a" cx="42" cy="42" r="42" transform="translate(9449 1182)"/><g transform="translate(9469.912 1207.617)"><g transform="translate(0 0)"><path class="b" d="M0,15.845V49.47H13.148v2.4h-2.4v2.4H30.22v-2.4h-2.4v-2.4H40.965V15.845ZM25.416,51.874H15.549v-2.4h9.868v2.4Zm13.148-4.8H2.4V42.263H38.564v4.807Zm0-7.207H2.4V18.245H38.564V39.862Z" transform="translate(0 -15.845)"/></g><g transform="translate(8.584 7.173)"><path class="b" d="M115.023,107.2l-1.7-1.7-6.036,6.036,6.036,6.036,1.7-1.7-4.339-4.338Z" transform="translate(-107.29 -105.498)"/></g><g transform="translate(24.647 7.173)"><path class="b" d="M309.754,105.5l-1.7,1.7,4.339,4.339-4.339,4.338,1.7,1.7,6.036-6.036Z" transform="translate(-308.057 -105.498)"/></g><g transform="translate(17.912 5.971)"><g transform="translate(0 0)"><rect class="b" width="14.283" height="2.4" transform="matrix(0.195, -0.981, 0.981, 0.195, 0, 14.008)"/></g></g></g></g></svg>