<svg xmlns="http://www.w3.org/2000/svg" fill="none" viewBox="0 0 1700 632" height="632" width="1700">
<mask height="632" width="1700" y="0" x="0" maskUnits="userSpaceOnUse" id="mask0">
<rect fill="#FAF8F2" height="632" width="1700" opacity="0.5"></rect>
</mask>
<g mask="url(#mask0)">
<path fill="#ECE6D3" d="M-170.754 32.5376C-236.367 172.175 32.8561 320.191 77.911 327.122C133.361 332.321 174.085 318.458 232.135 173.765C290.184 29.0717 213.073 5.67841 90.9072 -63.6357C-31.2589 -132.95 -92.0019 -135.062 -170.754 32.5376Z" opacity="0.6"></path>
<path fill="#ECE6D3" d="M242.24 545.163C170.265 698.339 465.59 860.705 515.013 868.309C575.84 874.011 620.512 858.805 684.189 700.083C747.867 541.361 663.28 515.7 529.27 439.666C395.259 363.631 328.627 361.314 242.24 545.163Z" opacity="0.6"></path>
<path fill="#ECE6D3" d="M958.054 563.186C900.075 686.577 1137.97 817.371 1177.79 823.496C1226.79 828.09 1262.77 815.84 1314.07 687.982C1365.36 560.124 1297.22 539.452 1189.27 478.203C1081.32 416.953 1027.64 415.087 958.054 563.186Z" opacity="0.6"></path>
<path fill="#ECE6D3" d="M726.173 36.2531C654.624 188.525 948.205 349.933 997.337 357.491C1057.8 363.16 1102.21 348.043 1165.51 190.258C1228.82 32.4736 1144.73 6.96375 1011.51 -68.6217C878.289 -144.207 812.05 -146.51 726.173 36.2531Z" opacity="0.6"></path>
<path fill="#ECE6D3" d="M1436.05 -28.8138C1378.08 94.5771 1615.97 225.371 1655.79 231.496C1704.79 236.09 1740.77 223.84 1792.07 95.9817C1843.36 -31.8765 1775.22 -52.548 1667.27 -113.797C1559.32 -175.047 1505.64 -176.913 1436.05 -28.8138Z" opacity="0.6"></path>
</g>
</svg>
