<svg height="350" viewBox="0 0 520 350" width="520" xmlns="http://www.w3.org/2000/svg" xmlns:xlink="http://www.w3.org/1999/xlink"><defs><path id="b" d="M91 90h338a1 1 0 0 1 1 1v210a1 1 0 0 1-1 1H91a1 1 0 0 1-1-1V91a1 1 0 0 1 1-1z"/><filter id="a" height="151.9%" width="132.4%" x="-16.2%" y="-16.5%"><feOffset dy="20" in="SourceAlpha" result="shadowOffsetOuter1"/><feGaussianBlur in="shadowOffsetOuter1" result="shadowBlurOuter1" stdDeviation="15"/><feColorMatrix in="shadowBlurOuter1" values="0 0 0 0 0 0 0 0 0 0 0 0 0 0 0 0 0 0 0.12 0"/></filter><path id="c" d="M19 16h16a3 3 0 0 1 3 3v16a3 3 0 0 1-3 3H19a3 3 0 0 1-3-3V19a3 3 0 0 1 3-3z"/><path id="d" d="M19 16h16a3 3 0 0 1 3 3v16a3 3 0 0 1-3 3H19a3 3 0 0 1-3-3V19a3 3 0 0 1 3-3z"/><path id="e" d="M19 16h16a3 3 0 0 1 3 3v16a3 3 0 0 1-3 3H19a3 3 0 0 1-3-3V19a3 3 0 0 1 3-3z"/><path id="f" d="M19 16h16a3 3 0 0 1 3 3v16a3 3 0 0 1-3 3H19a3 3 0 0 1-3-3V19a3 3 0 0 1 3-3z"/><path id="g" d="M19 16h16a3 3 0 0 1 3 3v16a3 3 0 0 1-3 3H19a3 3 0 0 1-3-3V19a3 3 0 0 1 3-3z"/></defs><g fill="none" fill-rule="evenodd"><path d="M22 50h76c6.627 0 12 5.373 12 12v76c0 6.627-5.373 12-12 12H22c-6.627 0-12-5.373-12-12V62c0-6.627 5.373-12 12-12z" fill="#e8e6ef"/><path d="M391 0h56c6.627 0 12 5.373 12 12v56c0 6.627-5.373 12-12 12h-56c-6.627 0-12-5.373-12-12V12c0-6.627 5.373-12 12-12z" fill="#e0f1e1"/><path d="M280 60h40c5.523 0 10 4.477 10 10v40c0 5.523-4.477 10-10 10h-40c-5.523 0-10-4.477-10-10V70c0-5.523 4.477-10 10-10z" fill="#e0e9ec"/><path d="M73 210h24a8 8 0 0 1 8 8v24a8 8 0 0 1-8 8H73a8 8 0 0 1-8-8v-24a8 8 0 0 1 8-8z" fill="#dbecf7"/><path d="M424 210h40c5.523 0 10 4.477 10 10v40c0 5.523-4.477 10-10 10h-40c-5.523 0-10-4.477-10-10v-40c0-5.523 4.477-10 10-10z" fill="#d5f1ec"/><path d="M478 120h24a8 8 0 0 1 8 8v24a8 8 0 0 1-8 8h-24a8 8 0 0 1-8-8v-24a8 8 0 0 1 8-8z" fill="#efebfc"/><path d="M198 10h24a8 8 0 0 1 8 8v24a8 8 0 0 1-8 8h-24a8 8 0 0 1-8-8V18a8 8 0 0 1 8-8z" fill="#f8e8e3"/><use fill="#000" filter="url(#a)" xlink:href="#b"/><use fill="#fff" xlink:href="#b"/><g fill="#dddee2" transform="translate(101 200)"><rect height="5" rx="1" width="30"/><rect height="5" rx="1" width="45" x="40"/><path d="M269 0h48a1 1 0 0 1 1 1v3a1 1 0 0 1-1 1h-48a1 1 0 0 1-1-1V1a1 1 0 0 1 1-1z"/><rect height="5" rx="1" width="38" x="95"/></g><path d="M90 90h340v100H90z" fill="#495060"/><g transform="translate(175 132)"><rect fill="#fff" height="17" rx="2" width="170" y="15"/><rect fill="#dddee2" height="5" rx="1" width="66" x="6" y="21"/><path d="M36 0h98a1 1 0 0 1 1 1v3a1 1 0 0 1-1 1H36a1 1 0 0 1-1-1V1a1 1 0 0 1 1-1z" fill="#fff"/></g><rect fill="#ffbd6f" height="12" rx="2" width="12" x="100" y="100"/><g fill="#7f8490"><rect height="4" rx="1" width="20" x="122" y="104"/><rect height="4" rx="1" width="20" x="152" y="104"/><rect height="4" rx="1" width="20" x="182" y="104"/><rect height="4" rx="1" width="20" x="212" y="104"/><rect height="4" rx="1" width="20" x="242" y="104"/><rect height="4" rx="1" width="20" x="272" y="104"/><rect height="4" rx="1" width="20" x="302" y="104"/></g><rect fill="#63c3ff" height="4" rx="1" width="20" x="400" y="104"/><g transform="translate(101 215)"><path d="M0 0h54v77H0z" fill="#f7f8fa"/><g fill="#dddee2" transform="translate(7 49)"><path d="M1 0h38a1 1 0 0 1 1 1v2a1 1 0 0 1-1 1H1a1 1 0 0 1-1-1V1a1 1 0 0 1 1-1z"/><rect height="4" rx="1" width="16" y="7"/><rect height="4" rx="1" width="10" x="30" y="17"/></g><use fill="#fff" xlink:href="#c"/><use fill="#73bfee" fill-opacity=".9" xlink:href="#c"/><path d="M27.416 23c-1.196 0-2.226.7-2.71 1.712a1.551 1.551 0 0 0-2.224 1.126 2.327 2.327 0 0 0 .753 4.527h7.188a2.133 2.133 0 0 0-.005-4.266c.001-.031.005-.061.005-.092A3.007 3.007 0 0 0 27.416 23zm0 .388a2.621 2.621 0 0 1 2.619 2.619l-.002.024-.002.058-.01.396.396.002c.96.002 1.74.785 1.74 1.745a1.75 1.75 0 0 1-1.736 1.745h-7.185a1.94 1.94 0 1 1-.627-3.773l.217-.074.039-.228a1.16 1.16 0 0 1 1.666-.843l.354.177.17-.357a2.632 2.632 0 0 1 2.361-1.491z" fill="#fff" stroke="#fff" stroke-width=".7"/><path d="M22.727 28.455h8.182l-.146 2.727h-7.885z" fill="#81c6f0"/><path d="M26.534 27.607a1.917 1.917 0 1 0 0 3.835c1.055.01 1.917-.853 1.917-1.917s-.862-1.918-1.917-1.918zm3.253 5.188c-.07.057-.148.01-.148.01l-1.674-1.675c-.386.34-.881.55-1.44.55a2.154 2.154 0 0 1-2.156-2.155c0-1.193.963-2.156 2.155-2.156s2.156.963 2.156 2.156c0 .55-.21 1.055-.55 1.44l1.674 1.675s.053.097-.017.155z" fill="#fff" stroke="#fff" stroke-width=".7"/></g><g transform="translate(167 215)"><path d="M0 0h54v77H0z" fill="#f7f8fa"/><g fill="#dddee2" transform="translate(7 49)"><path d="M1 0h38a1 1 0 0 1 1 1v2a1 1 0 0 1-1 1H1a1 1 0 0 1-1-1V1a1 1 0 0 1 1-1z"/><rect height="4" rx="1" width="16" y="7"/><rect height="4" rx="1" width="10" x="30" y="17"/></g><use fill="#fff" xlink:href="#d"/><use fill="#a2d070" fill-opacity=".9" xlink:href="#d"/><g fill="#fff" fill-rule="nonzero" stroke="#fff" stroke-width=".3"><path d="M26.81 32.718a.333.333 0 0 0 .553 0l3.145-4.673c.376-.6.575-1.288.575-1.992 0-2.125-1.794-3.855-4-3.855s-4 1.73-4 3.855c0 .705.2 1.395.583 2.004zm.273-9.853c1.838 0 3.334 1.43 3.334 3.188 0 .578-.164 1.144-.468 1.628l-2.863 4.254-2.861-4.242a3.077 3.077 0 0 1-.475-1.64c0-1.758 1.495-3.188 3.333-3.188z"/><path d="M27.083 27.872c1.045 0 1.896-.822 1.896-1.833s-.85-1.834-1.896-1.834c-1.045 0-1.895.823-1.895 1.834s.85 1.833 1.895 1.833zm0-3c.678 0 1.229.523 1.229 1.167 0 .643-.551 1.166-1.229 1.166-.677 0-1.228-.523-1.228-1.166 0-.644.551-1.167 1.228-1.167z"/></g></g><g transform="translate(233 215)"><path d="M0 0h54v77H0z" fill="#f7f8fa"/><g fill="#dddee2" transform="translate(7 49)"><path d="M1 0h38a1 1 0 0 1 1 1v2a1 1 0 0 1-1 1H1a1 1 0 0 1-1-1V1a1 1 0 0 1 1-1z"/><rect height="4" rx="1" width="16" y="7"/><rect height="4" rx="1" width="10" x="30" y="17"/></g><use fill="#fff" xlink:href="#e"/><use fill="#fda548" fill-opacity=".9" xlink:href="#e"/><path d="M31.192 24h-8.384a.798.798 0 0 0-.808.808v4.798c0 .455.354.808.808.808h8.384a.798.798 0 0 0 .808-.808v-4.798a.798.798 0 0 0-.808-.808zm-.202.404L27 27.838l-3.99-3.484h7.98zm-8.434 5.455c-.101-.05-.101-.202-.101-.303v-4.798c0-.101.05-.202.1-.303l3.081 2.676zm.454.1l2.93-2.525 1.06.96 1.06-.96 2.93 2.526zm8.586-.403c0 .1-.05.202-.101.303l-3.08-2.677 3.08-2.677c.101.05.101.202.101.303z" fill="#fff" fill-rule="nonzero" stroke="#fff" stroke-width=".6"/></g><g transform="translate(299 215)"><path d="M0 0h54v77H0z" fill="#f7f8fa"/><g fill="#dddee2" transform="translate(7 49)"><path d="M1 0h38a1 1 0 0 1 1 1v2a1 1 0 0 1-1 1H1a1 1 0 0 1-1-1V1a1 1 0 0 1 1-1z"/><rect height="4" rx="1" width="16" y="7"/><rect height="4" rx="1" width="10" x="30" y="17"/></g><use fill="#fff" xlink:href="#f"/><use fill="#afa7e2" fill-opacity=".9" xlink:href="#f"/><path d="M27.253 31c.35 0 4.247-2.85 4.247-5.557 0-1.347-1.114-2.443-2.483-2.443a2.48 2.48 0 0 0-1.767.727A2.482 2.482 0 0 0 25.483 23C24.114 23 23 24.096 23 25.443 23 28.181 26.904 31 27.253 31z" stroke="#fff" stroke-width="1.2"/></g><g transform="translate(365 215)"><path d="M0 0h54v77H0z" fill="#f7f8fa"/><g fill="#dddee2" transform="translate(7 49)"><path d="M1 0h38a1 1 0 0 1 1 1v2a1 1 0 0 1-1 1H1a1 1 0 0 1-1-1V1a1 1 0 0 1 1-1z"/><rect height="4" rx="1" width="16" y="7"/><rect height="4" rx="1" width="10" x="30" y="17"/></g><use fill="#fff" xlink:href="#g"/><use fill="#f7a298" xlink:href="#g"/><path d="M23.25 28.417v1.666m2.5-5v5m2.5-3.333v3.333m2.5-6.666v6.666" stroke="#fff" stroke-linecap="round" stroke-linejoin="round" stroke-width="1.4"/></g></g></svg>