<svg width="520" height="360" viewBox="0 0 520 360" fill="none" xmlns="http://www.w3.org/2000/svg"><g clip-path="url(#a)"><g filter="url(#b)"><mask id="c" fill="#fff"><rect x="134.396" y="10" width="300" height="216" rx="1"/></mask><rect x="134.396" y="10" width="300" height="216" rx="1" fill="#fff"/><rect x="134.396" y="10" width="300" height="216" rx="1" stroke="#DEDEE2" stroke-width="4" mask="url(#c)"/></g><path fill-rule="evenodd" clip-rule="evenodd" d="M140.396 7a6 6 0 0 0-6 6v11a1 1 0 0 0 1 1h298a1 1 0 0 0 1-1V13a6 6 0 0 0-6-6h-288zm5.25 11.25a2.25 2.25 0 1 0 0-4.5 2.25 2.25 0 0 0 0 4.5zm11.25-2.25a2.25 2.25 0 1 1-4.5 0 2.25 2.25 0 0 1 4.5 0zm6.75 2.25a2.25 2.25 0 1 0 0-4.5 2.25 2.25 0 0 0 0 4.5z" fill="#DEDEE2"/><rect x="386.396" y="37" width="30" height="4" rx="2" fill="#DEDEE2"/><rect x="346.396" y="37" width="30" height="4" rx="2" fill="#DEDEE2"/><rect x="306.396" y="37" width="30" height="4" rx="2" fill="#DEDEE2"/><rect x="266.396" y="37" width="30" height="4" rx="2" fill="#DEDEE2"/><rect x="174.396" y="37" width="30" height="4" rx="2" fill="#DEDEE2"/><rect x="152.396" y="32" width="14" height="14" rx="2" fill="#DEDEE2"/><path fill="#C6E2F7" d="M292.396 137h54v54h-54z"/><path fill="#FBE5B4" d="M292.396 137h54v54h-54z"/><rect x="292.396" y="197" width="54" height="4" rx="2" fill="#DEDEE2"/><rect x="298.396" y="205" width="42" height="4" rx="2" fill="#DEDEE2"/><path fill-rule="evenodd" clip-rule="evenodd" d="M333.009 166.872c-1.354.26-2.534.634-3.945 1.008-.144-1.411-.345-3.225-.374-4.117-.115-2.822-.864-4.722-2.851-6.421-1.554-1.382-2.62.95-4.837.979-1.353.029-2.562-4.175-4.866-3.254-3.311 1.354-5.47 4.492-5.787 8.264-.058.864-.374 2.678-.576 4.088-1.439-.403-2.591-.863-3.973-1.209-2.505-.604-4.521-.662-3.513 1.555.72 1.641 7.601 3.455 17.045 3.685 9.444.231 16.383-1.238 17.189-2.85 1.008-2.159-1.007-2.217-3.512-1.728z" fill="#fff"/><path fill="#D0E9D6" d="M222.396 137h54v54h-54z"/><rect x="222.396" y="197" width="54" height="4" rx="2" fill="#DEDEE2"/><rect x="228.396" y="205" width="42" height="4" rx="2" fill="#DEDEE2"/><path fill-rule="evenodd" clip-rule="evenodd" d="M262.304 165.416a15.284 15.284 0 0 0-.332-1.206 46.04 46.04 0 0 1-.937-3.541c-1.316-6.064-1.927-7.38-3.854-8.038-.118-.047-.259-.094-.417-.147a15.637 15.637 0 0 1-.523-.182 2.48 2.48 0 0 0-.357-.132c-.098-.031-.2-.062-.301-.103-1.445-.654-2.115-1.498-2.615-2.128-.363-.457-.637-.801-1.052-.88-.45-.07-1.181-.062-2.043-.054a73.954 73.954 0 0 1-1.929 0c-.862-.008-1.593-.016-2.044.054-.446.081-.734.441-1.114.915-.501.626-1.161 1.451-2.552 2.093-.102.041-.203.072-.301.103-.129.04-.251.079-.357.132-.188.071-.365.129-.523.182-.159.053-.3.1-.417.147-1.928.658-2.539 1.974-3.855 8.038a50.035 50.035 0 0 1-1.021 3.89v.001c-.098.326-.18.6-.248.856-.188.893-.141 8.367.094 9.213.102.331.26.511.382.65.104.118.182.208.182.337l.188 1.786h2.774l.188-2.115c.59-.59.532-2.495.465-4.691-.04-1.304-.083-2.71.005-4.005.209-.698.438-1.396.655-2.057.367-1.122.701-2.139.849-2.878.752 4.7-.423 14.101-.94 15.558.658 1.128 4.371 1.739 7.849 1.786l.47-1.598v-20.751a.507.507 0 0 0 0-.426v-.727a341.433 341.433 0 0 0-2.867-2.303h-4.7s3.431-1.316 4.23-3.384c0 .282.094.517.282.94v-.423c.113-.53.958-.511 2.214-.484.305.007.634.014.982.014h.094c.348 0 .678-.007.985-.014 1.268-.027 2.136-.046 2.211.484a.64.64 0 0 1 0 .423c.189-.423.283-.658.283-.94.799 2.021 4.23 3.384 4.23 3.384h-4.795s-1.739 1.645-2.773 2.303v21.904l.47 1.598c3.479-.047 7.145-.658 7.803-1.786-.517-1.457-1.692-10.858-.94-15.558.148.739.481 1.756.849 2.877v.001c.217.661.446 1.359.655 2.057.087 1.295.045 2.695.005 3.992-.067 2.187-.125 4.084.465 4.704l.188 2.115h2.773l.188-1.786c0-.124.082-.212.185-.323.132-.142.3-.322.379-.664.376-.846.423-8.32.235-9.213zm-13.631-9.191a.521.521 0 0 0-.47-.304.522.522 0 0 0-.517.517c0 .282.235.517.517.517a.521.521 0 0 0 .47-.304v-.426zm.282-4.91h-.047c-.352 0-.688-.007-1-.013-.851-.017-1.523-.031-1.867.107.799 1.504 2.209 3.337 2.914 4.136.705-.846 2.115-2.632 2.914-4.136-.397-.166-1.029-.145-1.828-.118-.334.012-.698.024-1.086.024zm-10.905 25.194c0 .188.188.376.376.376a.372.372 0 0 0 .377-.376c0-.188-.189-.376-.377-.376a.404.404 0 0 0-.376.376zm10.435-5.03a.522.522 0 0 0-.517-.517.522.522 0 0 0-.517.517c0 .282.235.517.517.517a.522.522 0 0 0 .517-.517zm-.517-5.499c.282 0 .517.235.517.517a.522.522 0 0 1-.517.517.522.522 0 0 1-.517-.517c0-.282.235-.517.517-.517zm.517-4.465a.522.522 0 0 0-.517-.517.522.522 0 0 0-.517.517c0 .282.235.517.517.517a.522.522 0 0 0 .517-.517zm-.517 14.43c.282 0 .517.235.517.517a.522.522 0 0 1-.517.517.522.522 0 0 1-.517-.517c0-.282.235-.517.517-.517zm11.046.564a.37.37 0 0 0 .376.376.37.37 0 0 0 .376-.376.37.37 0 0 0-.376-.376.37.37 0 0 0-.376.376z" fill="#fff"/><path fill="#FADADA" d="M362.396 137h54v54h-54z"/><rect x="362.396" y="197" width="54" height="4" rx="2" fill="#DEDEE2"/><rect x="368.396" y="205" width="42" height="4" rx="2" fill="#DEDEE2"/><path fill-rule="evenodd" clip-rule="evenodd" d="M394.725 150.28s-.292-.098-.486.146c-1.557 2.334-3.113 2.578-4.378 2.578-1.216 0-2.772-.195-4.377-2.578-.146-.244-.487-.146-.487-.146-2.091 1.556-6.031 2.091-6.566 2.772-1.168 1.508-3.794 11.285-4.135 13.62.584 3.453 3.405 11.576 3.405 11.576.924.097 2.627-.389 3.259-.924 0 0-1.994-9.485-1.946-10.604.292-.875 1.751-6.031 2.238-6.031.243 0 .973 1.654.973 5.156 0 2.626-.876 7.928-.876 9.631 2.092.778 6.032 1.07 8.415 1.07 2.237-.146 6.469-.39 8.561-1.119 0-1.703-.876-7.004-.876-9.631 0-3.502.73-5.156.973-5.156.486 0 1.946 5.156 2.237 6.032.049 1.118-1.945 10.603-1.945 10.603.632.535 2.335 1.022 3.259.924 0 0 2.87-8.171 3.405-11.576-.341-2.335-2.968-12.112-4.135-13.619-.486-.633-4.426-1.168-6.518-2.724z" fill="#fff"/><path fill="#E0E0F5" d="M152.396 137h54v54h-54z"/><rect x="152.396" y="197" width="54" height="4" rx="2" fill="#DEDEE2"/><rect x="158.396" y="205" width="42" height="4" rx="2" fill="#DEDEE2"/><path fill-rule="evenodd" clip-rule="evenodd" d="M192.803 169.265c-.297-8.459-2.029-12.714-3.068-14.594-.197-.247-1.088-.544-1.088-.544h.742V152s-5.244.198-10.042.198c-4.799 0-10.043-.198-10.043-.198v1.979l-.049.148h.742s-.891.346-1.088.544c-1.039 1.831-2.771 6.135-3.068 14.594-.098 2.325-.247 4.205-.445 5.788 2.127 1.435 8.657 2.226 12.219 1.286.495-1.484.347-7.074 1.781-8.954 1.435 1.88 1.237 7.47 1.781 8.954 3.562.99 10.092.149 12.219-1.286-.346-1.583-.494-3.463-.593-5.788z" fill="#fff"/><path fill="#C6E2F7" d="M292.396 52h54v54h-54z"/><path fill="#D0E9D6" d="M292.396 52h54v54h-54z"/><path fill-rule="evenodd" clip-rule="evenodd" d="M326.073 67s-3.573.376-6.677.376c-3.103 0-6.677-.376-6.677-.376v2.633c-6.442 8.276-6.583 16.599-8.323 18.574.376.282 1.411.893 4.796 1.317.518-3.997 3.668-14.107 4.562-16.928-.753 2.962-3.339 13.495-3.433 17.069v.705c.094.047 5.455.705 5.69.705.047-.14.094-.376.188-.752 0-.094.047-.188.047-.282.329-2.022 1.504-12.273 1.693-13.166-.189 4.373-.753 13.354-.753 13.448.894.14 1.411.188 2.21.188.8 0 1.317-.047 2.21-.188 0-.094-.564-9.075-.752-13.448.141.893 1.364 11.144 1.693 13.166 0 .094.047.188.047.282.047.329.094.611.188.752.235 0 5.595-.611 5.689-.705 0-.188.047-.423 0-.705-.094-3.527-2.68-14.06-3.432-17.07.893 2.822 4.044 12.979 4.561 16.928 3.386-.423 4.42-1.034 4.796-1.316-1.74-1.975-1.881-10.25-8.323-18.574V67z" fill="#fff"/><rect x="292.396" y="113" width="54" height="4" rx="2" fill="#DEDEE2"/><rect x="298.396" y="121" width="42" height="4" rx="2" fill="#DEDEE2"/><path fill="#FADADA" d="M222.396 52h54v54h-54z"/><rect x="222.396" y="113" width="54" height="4" rx="2" fill="#DEDEE2"/><rect x="228.396" y="121" width="42" height="4" rx="2" fill="#DEDEE2"/><path fill-rule="evenodd" clip-rule="evenodd" d="M261.896 72.63c-.296-1.396-2.074-5.67-3.259-6.94-.254-.254-1.015-.254-1.396 0l-.134.078c-.986.568-2.17 1.251-5.368 6.27-.861 1.35-1.565 2.66-2.243 3.925-2.322 4.326-4.353 8.11-11.426 11.056-2.328.974-1.1 4.148-1.1 4.148s4.485 1.862 13.753 1.185c2.243-.17 3.259-1.312 3.64-2.285.332-.837.681-2.024 1.063-3.326.836-2.846 1.833-6.239 3.169-7.72 1.396-1.566 3.597-4.951 3.301-6.39zm-5.121 11.216l.085 4.105c1.015.211 1.693-.043 1.693-.043s-.085-2.793.084-4.74c.085-1.1.423-2.92.72-4.316-.122.146-.23.292-.332.43a9.02 9.02 0 0 1-.219.29c-.761 1.015-1.438 2.58-2.031 4.273zm-1.369-5.734l.057-.276c.264-1.174.684-2.573 1.106-3.981.933-3.11 1.879-6.262 1.179-7.107h-.169c-.296 0-2.539 1.524-5.374 5.883-.587.897-1.061 1.821-1.514 2.705-.102.201-.204.4-.306.596-1.735 3.3-3.894 7.279-6.856 8.76-.592.55 5.84 2.158 8.295.085 2.668-2.224 3.173-4.68 3.582-6.665z" fill="#fff"/><path fill="#E0E0F5" d="M362.396 52h54v54h-54z"/><rect x="362.396" y="113" width="54" height="4" rx="2" fill="#DEDEE2"/><rect x="368.396" y="121" width="42" height="4" rx="2" fill="#DEDEE2"/><path fill-rule="evenodd" clip-rule="evenodd" d="M400.331 91.618l-.864-1.835c-1.458-4.211-3.996-9.826-4.212-14.47-.162-4.319 1.944-3.995 1.782-8.152-.702-.702-1.62-1.728-1.62-2.592V60.25h-.756v4.697s-3.239.108-4.751 2.43c-.054.054-.216.108-.378.162-.162-.054-.324-.108-.378-.162-1.511-2.322-4.751-2.43-4.751-2.43V60.25h-.756v4.32c0 .863-.917 1.889-1.619 2.59-.162 4.158 1.943 3.888 1.781 8.153-.162 5.022-3.131 11.176-4.535 15.442l-.378.81 1.242.594-.324.81 1.674.755.81-1.836c.108.054.216.054.324.108l-.216.54 1.079.432-.216.648 1.728.594.54-1.62-.216 1.998 1.566.162.108-.864 1.512.162.054-.27h.485v.702l1.674-.054-.054-.756v.216l1.458-.162.054.594 1.566-.162-.162-1.62h.162l.486 1.998 1.727-.594-.27-.864 1.35-.54-.27-.648c.108-.053.27-.053.378-.108l.702 1.512 1.62-.756-.054-.486.918-.431z" fill="#fff"/><path fill="#FBE5B4" d="M152.396 52h54v54h-54z"/><rect x="152.396" y="113" width="54" height="4" rx="2" fill="#DEDEE2"/><rect x="158.396" y="121" width="42" height="4" rx="2" fill="#DEDEE2"/><path fill-rule="evenodd" clip-rule="evenodd" d="M190.587 68.746c-.517-.658-4.42-1.176-6.442-2.727 0 0-.282-.095-.47.14-.987 1.458-1.975 2.68-4.279 2.68s-3.291-1.222-4.279-2.68c-.141-.235-.47-.14-.47-.14-2.022 1.504-5.925 2.069-6.442 2.727-1.129 1.458-2.727 4.655-3.809 6.724.988 1.646 3.245 2.633 4.844 2.774.517-.517 1.316-2.022 1.786-2.022.235 0 .706 1.6.706 5.032 0 2.586-.847 7.805-.847 9.451 2.022.752 6.16.705 8.511.705 2.351 0 6.489.047 8.511-.705 0-1.646-.846-6.865-.846-9.451 0-3.433.47-5.032.705-5.032.47 0 1.27 1.505 1.787 2.022 1.552-.14 3.809-1.175 4.843-2.774-1.081-2.069-2.68-5.266-3.809-6.724z" fill="#fff"/><path fill="url(#d)" d="M135.896 52h297v7.5h-297z"/><path fill="#EBC49B" d="M491.301 347.069h-5.388v7.543h5.388zm-13.931 0h-5.388v7.543h5.388z"/><path fill-rule="evenodd" clip-rule="evenodd" d="M484.195 351.933l-2.786 2.662-6.259 1.475a1.94 1.94 0 0 0-1.386 1.214l-.319.878c-.158.435.183.89.66.88l18.236-.373c.656-.012 1.166-.558 1.112-1.19l-.473-5.644-2.249.722a3.848 3.848 0 0 1-3.06-.306l-1.082-.611a2.038 2.038 0 0 0-2.394.293z" fill="#373463"/><path fill-rule="evenodd" clip-rule="evenodd" d="M469.186 351.933l-2.785 2.662-6.259 1.475a1.94 1.94 0 0 0-1.387 1.214l-.318.878c-.158.435.182.89.66.88l18.236-.373c.656-.012 1.165-.558 1.111-1.19l-.473-5.644-2.249.722a3.846 3.846 0 0 1-3.059-.306l-1.083-.611a2.038 2.038 0 0 0-2.394.293z" fill="#373463"/><path d="M479.656 355.612s-2.487.496-3.457 1.078c-.969.581-1.678 1.694-1.678 1.694" stroke="#48458D" stroke-linecap="round" stroke-linejoin="round"/><path fill-rule="evenodd" clip-rule="evenodd" d="M460.367 221.052h39.435c.765 2.516-1.909 4.923-1.66 6.745.879 6.453-4.546 21.703-4.546 21.703l-1.445 8.388s.466 41.398 1.445 53.716c.15 1.897 1.958 30.475 1.8 40.396h-13s.41-14.43-1.491-28.877a788.788 788.788 0 0 0-.96-7.075c.041.5.34 5.247.344 7.074.002.489.849 18.578.107 28.878h-13s-.887-45.66-2.813-50.295c-1.162-2.796-3.333-25.748-5.573-41.982-.893-6.189-.623-24.208.031-30.281.318-2.953.952-5.465 1.326-8.39z" fill="#485781"/><path fill-rule="evenodd" clip-rule="evenodd" d="M499.886 223.147l-1.128 5.011H458.51v-4.247s-1.614-14.773 1.08-26.627c2.693-11.853 5.637-13.406 5.12-17.366-.517-3.959 9.018-25.624 10.85-28.044 1.834-2.419 9.093-2.86 12.172 0 3.08 2.859 11.444 15.395 12.154 18.035.711 2.638 2.924 35.786 2.924 35.786s-2.288 3.793-2.924 8.317c-.54 3.846.621 8.466 0 9.135z" fill="#FC5854"/><path fill-rule="evenodd" clip-rule="evenodd" d="M492.483 230l-4.368 2.292s-4.879-1.242-6.026-.704l1.331 2.431s-2.792.734-2.062 1.642c.728.906 3.772 6.799 4.767 7.302.997.503 4.389-2.09 5.086-2.675.698-.584 5.276-6.269 5.276-6.269L492.483 230z" fill="#EBC49B"/><path fill-rule="evenodd" clip-rule="evenodd" d="M478.794 150.822c9.3-.931 27.642 9.867 29.29 13.163 1.648 3.298 13.89 37.973 10.303 42.994C514.799 212 497.075 237 497.075 237l-6.774-8.842 11.278-32.662-22.785-44.674z" fill="#FC5854"/><path fill-rule="evenodd" clip-rule="evenodd" d="M479.071 313.597a.414.414 0 0 0 .401-.509c-.088-.358-8.799-35.722-10.298-42.396-1.487-6.628-.674-34.483-.666-34.763a.41.41 0 0 0-.113-.296l-4.194-4.445a.411.411 0 1 0-.598.565l4.075 4.322c-.073 2.578-.773 28.269.691 34.798 1.502 6.684 10.214 42.054 10.301 42.41a.414.414 0 0 0 .401.314z" fill="#31416F"/><path fill-rule="evenodd" clip-rule="evenodd" d="M415.919 169.744c-.329-.415.101-5.618.101-5.618s-1.817-2.377-1.896-3.199c-.043-.445.155-2.586.993-1.489l2.588 3.368 2.416 1.466c.932.63 2.821 3.211 2.821 3.211l4.352 4.272a326.452 326.452 0 0 0-2.666 4.899s-8.38-6.496-8.709-6.91z" fill="#EBC49B"/><path fill-rule="evenodd" clip-rule="evenodd" d="M467.886 167.556C462.489 176.272 457.232 200 449.428 200c-7.804 0-22.417-19.239-25.998-21.176l3.264-10.096s12.052 8.645 18.954 11.315c8.613-9.968 12.781-27.654 27.958-27.654 11.48-.211-5.72 15.167-5.72 15.167z" fill="#FC5854"/><path fill-rule="evenodd" clip-rule="evenodd" d="M484.736 150.822c-20.693 0-28.245 6.642-26.762 16.29l2.631 38.031 11.586-17.03 12.545-37.291z" fill="#FC5854"/><path d="M460.384 187.272s-.909-5.624.338-12.007c1.247-6.384 3.767-9.007 3.767-9.007m-13.905 27.018s-1.217-5.759-1.774-7.789c-.557-2.031-4.443-5.677-4.443-5.677" stroke="#C4302D" stroke-width=".8" stroke-linecap="round" stroke-linejoin="round"/><path fill-rule="evenodd" clip-rule="evenodd" d="M473.555 150.336v-1.591s-5.669 1.049-7.266-.414c-.667-.612-1.339-3.345-1.703-7.687-.038-.463-1.762-.061-1.762-.534 0-2.646 2.937-4.648 2.621-6.359-1.16-6.264-.677-7.96 1.1-9.787 3.949-4.063 19.675-5.577 21.788 1.263 2.115 6.839.033 10.759-3.219 20.644v4.465c0 4.497-1.607 6.133-6.178 6.133-6.452 0-5.381-6.133-5.381-6.133z" fill="#EBC49B"/><path fill-rule="evenodd" clip-rule="evenodd" d="M476.385 137.318s-1.545-3.391-1.545-1.727c0 .943-.409 6.652-2.624 6.652-.427 0-2.331.35-3.88 0-.782-.177-.997-.46-1.252-1.054-.185-.432-2.498-.545-2.498-.545s-2.119 8.861-.43 10.178c1.689 1.317 5.344 0 9.399-2.077 4.056-2.077 2.83-11.427 2.83-11.427z" fill="#564D52"/><path fill-rule="evenodd" clip-rule="evenodd" d="M465.28 142.812c-.278-.325-1.111-.426-1.111-.426l-.361 1.756s.951.274 1.356 0c.405-.274.394-1.006.116-1.33z" fill="#EBC49B"/><path fill-rule="evenodd" clip-rule="evenodd" d="M481.015 139.292s4.727-5.55.956-7.947c-2.024-1.285-3.985 2.119-5.368 5.552-1.196 2.967-2.422-3.927-2.422-3.927s-3.235-1.359-3.776-4.437c0 0-7.672-.212-8.837-5.129-.585-2.473 2.581-7.297 10.855-7.72 8.274-.422 11.975 2.146 15.075 6.694 3.465 5.082 3.151 11.183-2.384 23.493l-4.099-6.579z" fill="#564D52"/><path d="M462.896 223.5h24m2.561 4l15.139-26.699s-6.746-16.646-8.429-24.801c-1.684-8.155.729-12.5.729-12.5" stroke="#C4302D" stroke-linecap="square"/><path fill="#FFB27D" d="M81.174 347.042h-5.376v7.526h5.376zm-12.902 0h-5.375v7.526h5.375z"/><path fill-rule="evenodd" clip-rule="evenodd" d="M74.084 351.895l-2.78 2.656-6.244 1.471a1.936 1.936 0 0 0-1.383 1.212l-.318.875c-.158.435.182.889.658.879l18.194-.372c.655-.013 1.163-.557 1.109-1.188l-.472-5.631-2.243.721a3.839 3.839 0 0 1-3.053-.306l-1.08-.609a2.03 2.03 0 0 0-2.388.292z" fill="#8A3F31"/><path fill-rule="evenodd" clip-rule="evenodd" d="M60.108 351.895l-2.78 2.656-6.244 1.471a1.936 1.936 0 0 0-1.383 1.212l-.318.875c-.158.435.181.889.658.879l18.194-.372c.654-.013 1.162-.557 1.109-1.188l-.472-5.631-2.244.721a3.839 3.839 0 0 1-3.052-.306l-1.08-.609a2.03 2.03 0 0 0-2.389.292z" fill="#8A3F31"/><path d="M68.557 354.568s-2.481.495-3.448 1.075c-.967.58-1.674 2.688-1.674 2.688" stroke="#A6665B" stroke-linecap="round" stroke-linejoin="round"/><path fill-rule="evenodd" clip-rule="evenodd" d="M51.308 221.318h39.344c.763 2.51-1.904 4.912-1.656 6.729.877 6.438-4.535 21.653-4.535 21.653l-1.442 8.368s-.254 47.228.723 59.517c.149 1.893.217 3.743.222 5.566.002.488-.03.96-.074 1.421-.278 9.454.01 17.948-.148 27.846l-10.665-.218c0-8.383.618-14.634-1.278-29.048-.32-2.438-.643-4.817-.957-7.059.04.499.339 5.235.343 7.058.001.488-.022 18.772-.762 29.049h-10.99c.34 0 1.484-14.634-.413-29.048-1.357-10.314-2.743-19.658-3.505-21.368-1.19-2.661-3.325-25.688-5.56-41.885-.891-6.175-.621-24.151.031-30.211.317-2.946.95-5.452 1.322-8.37z" fill="#CD7050"/><path fill-rule="evenodd" clip-rule="evenodd" d="M90.736 223.408l-1.125 5H49.456v-4.238s-1.61-14.738 1.077-26.564c2.687-11.826 5.624-13.376 5.108-17.327-.515-3.949 8.997-25.564 10.826-27.978 1.83-2.414 9.071-2.853 12.143 0 3.073 2.852 11.418 15.359 12.126 17.993.71 2.632 2.917 35.703 2.917 35.703s-2.283 3.784-2.917 8.298c-.54 3.837.62 8.445 0 9.113z" fill="#F1E1D3"/><path fill-rule="evenodd" clip-rule="evenodd" d="M68.881 245.918a.41.41 0 0 1-.312-.143 16.097 16.097 0 0 1-3.743-8.61.409.409 0 0 1 .362-.453.414.414 0 0 1 .453.363 15.258 15.258 0 0 0 3.552 8.163.414.414 0 0 1-.043.581.417.417 0 0 1-.269.099z" fill="#7F4D4E"/><path fill-rule="evenodd" clip-rule="evenodd" d="M77.02 239.118l-4.944.658s-5.008-.375-6.042.352l1.729 2.158s-6.663 6.062-6.52 6.472l.79 2.264 2.438-1.457s.15 1.422.566 1.622c.416.202 1.115.219 1.115.219s.618 1.025 1.492 1.79c.873.764 1.47-1.584 2.534-1.262 1.067.321 5.742-4.142 6.326-4.838.584-.695 7.453-5.709 7.453-5.709l-6.936-2.269z" fill="#FFB27D"/><path fill-rule="evenodd" clip-rule="evenodd" d="M75.621 149.912c4.065.983 16.387 10.124 18.032 13.413 1.644 3.29 15.291 41.382 11.089 47.994-4.202 6.612-20.785 34.188-20.785 34.188l-12.47-8.205 16.822-30.162-12.688-57.228z" fill="#F1E1D3"/><path d="M88.129 161.479s-9.256 1.64-9.256 9.256c0 7.617 9.824 36.901 9.824 36.901l-11.251 20.772" stroke="#C39679" stroke-linecap="square"/><path fill-rule="evenodd" clip-rule="evenodd" d="M69.97 313.649a.413.413 0 0 0 .4-.509c-.089-.357-8.78-35.638-10.275-42.297-1.484-6.613-.673-34.403-.665-34.682a.41.41 0 0 0-.112-.296l-4.184-4.435a.41.41 0 1 0-.597.564l4.066 4.312c-.073 2.572-.772 28.203.69 34.717 1.498 6.669 10.19 41.957 10.276 42.312a.413.413 0 0 0 .4.314z" fill="#7F4D4E"/><path fill-rule="evenodd" clip-rule="evenodd" d="M29.245 141.676c.052-.526 6.749-1.239 7.384-1.885.636-.646-1.635-4.598.934-4.598s1.81 5.099 1.23 6.483c-.439 1.048-2.163 4.774-2.163 4.774l-1.624 6.044c-1.775.538-3.995-.568-5.76 0 0 0 .657-4.293.652-5.806-.008-3.304-.676-4.772-.652-5.012z" fill="#FFB27D"/><path fill-rule="evenodd" clip-rule="evenodd" d="M25.937 123.976l7.775 1.317a5.001 5.001 0 0 1 4.156 5.223l-.054.921a5.001 5.001 0 0 1-5.965 4.612l-7.247-1.439 1.335-10.634zM9.481 112.808s7.723 6.845 11.795 8.935c4.072 2.09 8.73 3.743 8.73 3.743l-1.575 9.798s-4.272-.837-9.683.198c-5.41 1.035-15.135 3.663-15.135 3.663l5.868-26.337z" fill="#FC5854"/><path d="M5.056 138.092c.96.152 1.824-.279 2.51-.878.69-.604 1.32-1.476 1.874-2.5 1.114-2.057 2.037-4.93 2.545-8.136.508-3.206.517-6.223.094-8.523-.212-1.145-.54-2.169-1.01-2.957-.467-.782-1.157-1.459-2.116-1.611-.96-.152-1.825.279-2.51.878-.691.604-1.32 1.476-1.875 2.5-1.114 2.057-2.037 4.93-2.545 8.136-.508 3.205-.517 6.223-.093 8.523.21 1.145.54 2.169 1.01 2.957.467.782 1.156 1.459 2.116 1.611z" fill="#fff" stroke="#FC5854" stroke-width="2" stroke-linejoin="round"/><ellipse cx="6.648" cy="125.896" rx="2.022" ry="4.717" transform="rotate(8 6.648 125.896)" fill="#FC5854"/><path fill-rule="evenodd" clip-rule="evenodd" d="M30.35 132.771l7.109.437s-.35 10.605-2.347 12.163c-1.997 1.557-2.74 1.508-3.717 0-.422-.652-.401-2.023 0-5.58.219-1.933-1.044-7.02-1.044-7.02z" fill="#FC5854"/><path fill-rule="evenodd" clip-rule="evenodd" d="M29.053 138.145c.288-2.955 2.805-4.142 5.201-2.995 1.568.75 1.325 4.879-.084 6.849-.745 1.042-2.425 1.342-3.003 1.707-1.673 1.053-2.402-2.607-2.114-5.561z" fill="#FFB27D"/><path fill-rule="evenodd" clip-rule="evenodd" d="M58.81 167.946c-2.563 5.807-16.811 31.506-26.672 29.356-11.182-2.438-4.416-47.39-4.416-47.39h9.885v23.841s9.688-19.105 17.6-19.105c11.454-.21 3.603 13.298 3.603 13.298z" fill="#F1E1D3"/><path fill-rule="evenodd" clip-rule="evenodd" d="M72.192 150.327c-20.646 0-24.75 7.551-23.271 17.176l2.625 37.943 11.559-16.991 9.087-38.128z" fill="#F1E1D3"/><path d="M51.133 181.972l.232-8.388 1.805-6.157m-21.633 18.059s1.003-4.544 2.253-7.031c1.25-2.488 3.181-3.784 3.181-3.784" stroke="#C39679" stroke-linecap="round" stroke-linejoin="round"/><path fill-rule="evenodd" clip-rule="evenodd" d="M62.732 152.269l-1.172-5.724s-3.652-.216-4.65-2.132c-.416-.802-.114-3.593 1.027-7.788.122-.447-1.818-.105-1.683-.562.263-.89 4.552-3.895 4.84-5.607 1.05-6.268 2.082-7.694 4.371-8.8 5.088-2.462 20.348 1.485 19.996 8.618-.352 7.134-3.642 10.099-10.063 18.256l.224 1.382c.713 4.42-3.12 8.239-7.538 7.509a6.551 6.551 0 0 1-5.352-5.152z" fill="#FFB27D"/><path fill-rule="evenodd" clip-rule="evenodd" d="M73.8 140.964s6.326-3.59 3.608-7.125c-2.72-3.534-10.795 8.287-10.795 8.287l-.714-1.755 3.651-7.667s-2.569-2.377-2.026-5.448c0 0-7.12-2.816-6.534-7.823.14-1.189 2.665-3.503 4.91-3.68 7.205-.568 20.825 5.219 20.825 10.49 0 6.913-1.937 12.635-11.327 22.287l-1.597-7.566z" fill="#2F302F"/><path fill-rule="evenodd" clip-rule="evenodd" d="M188.989 133.482c8.58 5.197 5.591 29.42 5.436 31.889-1.335 21.279-7.302 27.949-18.48 29.984-10.315 2.112-10.188 1.676-20.509.596.599-12.494-1.022-58.908 15.516-64.241 5.912-1.984 12.502-1.581 18.037 1.772z" fill="#000"/><path fill-rule="evenodd" clip-rule="evenodd" d="M154.943 277.792l2.005 20.895s-3.326 14.199-3.504 17.826c-.143 2.939-.028 26.285.737 36.028.103 1.304 6.412.913 6.373-.186-.048-1.385 4.124-14.813 11.154-56.012 1.749-10.247 5.876-74.483 5.876-74.483l-15.649.546s-7.714 7.158-9.134 18.404c-1.42 11.246 2.142 36.982 2.142 36.982z" fill="#485781"/><path fill-rule="evenodd" clip-rule="evenodd" d="M171.125 258.285l1.241 39.951s.554 18.43.567 22.061c.01 2.942.907 23.254 2.181 32.944.08.606 6.953.186 6.536-.597-.417-.782 8.495-67.119 8.495-67.119l-3.825-45.324-15.509-13.569.314 31.653z" fill="#485781"/><path d="M172.027 294.565s6.48-29.927 8.49-39.142c2.009-9.216 2.648-22.661 2.648-22.661" stroke="#31416F" stroke-linecap="square"/><path fill-rule="evenodd" clip-rule="evenodd" d="M209.873 182.861l-31.149-8.929 4.904 13.68s26.563 4.355 29.376 5.282c2.813.926 9.51-31.337 9.69-31.674v-9.582s-.4-1.855-1.106-2.323c-.384-.253-1.402-2.013-2.064-.458l1.032 4.218-.104 1.838c.124 1.148-1.274 4.735-1.274 4.735l-9.305 23.213z" fill="#895836"/><path fill-rule="evenodd" clip-rule="evenodd" d="M178.57 170.959c4.164 3.042 13.887 10.309 14.994 18.755.491 3.746-3.144 8.179-6.175 13.601-4.403 7.876-4.776 24.817-4.776 24.817s-5.56 1.64-11.746 1.64c-5.556 0-12.536-3.82-12.536-3.82s2.35-3.662 2.766-8.993c.566-7.242-.233-16.453-.889-23.343-1.139-11.963.256-13.321 9.078-27.586 6.584-.014 3.144.121 6.679 3.639.432.429 2.094.917 2.605 1.29z" fill="#373463"/><path fill-rule="evenodd" clip-rule="evenodd" d="M178.57 170.959l3.96-9.475s3.55.888 5.076-.64c.573-.575 1.107-2.596 1.331-6.35.028-.448.078-.097.095-.562.018-.484 1.486-.052 1.961-.521.616-.605-1.944-4.809-1.982-5.837-.172-4.734-.946-9.309-2.75-11.006-4.118-3.873-18.29-4.184-20.09 2.727-1.801 6.912.136 14.688 5.946 19.874l-3.907 8.563s1.043 2.932 4.338 3.771 6.022-.544 6.022-.544z" fill="#895836"/><path fill-rule="evenodd" clip-rule="evenodd" d="M190.972 139.264c-7.039 7.976-11.469 18.849-21.532 22.299-1.155-3.81-7.03-12.458-7.03-16.44.002-3.981 1.342-8.156 4.421-10.679 2.313-1.897 5.371-2.682 8.36-2.791 6.105-.222 12.469 2.478 15.781 7.611z" fill="#000"/><path fill-rule="evenodd" clip-rule="evenodd" d="M181.491 218.8s-2.122-31.816-2.303-32.822c-.989-7.495-10.878-15.369-13.496-3.272-1.39 6.419 8.374 39.84 7.691 39.653 3.406 9.943 15.335 31.429 16.023 32.333 1.687 2.212 2.979 2.85 2.979 2.85s1.326-.198 1.403-.496c.077-.298.08-.497.08-.497s.157.213.461.338c.304.125 1.521-.154 1.604-.41.084-.257-.014-.422-.014-.422s.281.228.593.309c.313.081 1.104-.175 1.276-.253.172-.078.157-.395.157-.395s.362.389.567.37c1.187-.114 1.447-.318 1.355-.852-.315-1.827-1.717-3.737-1.717-3.737s2.058-3.649-4.031-4.646c-.68-.109-12.628-28.051-12.628-28.051z" fill="#895836"/><path fill-rule="evenodd" clip-rule="evenodd" d="M186.707 354.542l6.748 1.59a2.092 2.092 0 0 1 1.494 1.309l.344.946c.17.47-.197.96-.712.949l-19.66-.401c-.707-.014-1.256-.602-1.198-1.284l.51-6.085 2.424.779c1.097.354 2.3.233 3.299-.331l1.167-.657a2.194 2.194 0 0 1 2.581.315l3.003 2.87z" fill="#373463"/><path fill-rule="evenodd" clip-rule="evenodd" d="M166.517 354.243l6.748 1.59a2.087 2.087 0 0 1 1.494 1.309l.344.946c.17.47-.196.96-.711.949l-19.661-.402c-.707-.014-1.256-.601-1.198-1.284l.51-6.084 2.424.779c1.097.354 2.3.232 3.299-.331l1.167-.658a2.195 2.195 0 0 1 2.581.316l3.003 2.87z" fill="#373463"/></g><defs><filter id="b" x="114.396" y="0" width="340" height="256" filterUnits="userSpaceOnUse" color-interpolation-filters="sRGB"><feFlood flood-opacity="0" result="BackgroundImageFix"/><feColorMatrix in="SourceAlpha" values="0 0 0 0 0 0 0 0 0 0 0 0 0 0 0 0 0 0 127 0"/><feOffset dy="10"/><feGaussianBlur stdDeviation="10"/><feColorMatrix values="0 0 0 0 0 0 0 0 0 0 0 0 0 0 0 0 0 0 0.1 0"/><feBlend in2="BackgroundImageFix" result="effect1_dropShadow"/><feBlend in="SourceGraphic" in2="effect1_dropShadow" result="shape"/></filter><linearGradient id="d" x1="135.896" y1="52" x2="135.896" y2="59.5" gradientUnits="userSpaceOnUse"><stop stop-opacity=".06"/><stop offset="1" stop-opacity=".01"/></linearGradient><clipPath id="a"><path fill="#fff" d="M0 0h520v360H0z"/></clipPath></defs></svg>