<?xml version="1.0" encoding="UTF-8"?>
<svg width="1800px" height="400px" viewBox="0 0 1800 400" version="1.1" xmlns="http://www.w3.org/2000/svg" xmlns:xlink="http://www.w3.org/1999/xlink">
    <!-- Generator: Sketch 52.2 (67145) - http://www.bohemiancoding.com/sketch -->
    <title>SECTION 6-CONTACT US</title>
    <desc>Created with Sketch.</desc>
    <defs>
        <radialGradient cx="50%" cy="50%" fx="50%" fy="50%" r="338.957618%" gradientTransform="translate(0.500000,0.500000),scale(0.222222,1.000000),rotate(-1.269049),scale(1.000000,1.366439),translate(-0.500000,-0.500000)" id="radialGradient-1">
            <stop stop-color="#ec5327" offset="0%"></stop>
            <stop stop-color="#ec5327" offset="100%"></stop>
        </radialGradient>
        <rect id="path-2" x="0" y="337" width="1800" height="400"></rect>
        <linearGradient x1="10.6098571%" y1="23.6118022%" x2="82.2588103%" y2="104.204499%" id="linearGradient-4">
            <stop stop-color="#FFFFFF" offset="0%"></stop>
            <stop stop-color="#FFFFFF" offset="100%"></stop>
        </linearGradient>
        <linearGradient x1="13.1385531%" y1="85.4430791%" x2="103.467582%" y2="-12.3074026%" id="linearGradient-5">
            <stop stop-color="#ff6a10" offset="0%"></stop>
            <stop stop-color="#ec5327" stop-opacity="0.77" offset="39.6252009%"></stop>
            <stop stop-color="#ff6a10" stop-opacity="0.991706295" offset="71.1148529%"></stop>
            <stop stop-color="#ec5327" offset="100%"></stop>
        </linearGradient>
    </defs>
    <g id="Process-Page" stroke="none" stroke-width="1" fill="none" fill-rule="evenodd">
        <g id="13-C.Site-Process-Desktop" transform="translate(0.000000, -4383.000000)">
            <g id="SECTION-6-CONTACT-US" transform="translate(0.000000, 4046.000000)">
                <mask id="mask-3" fill="white">
                    <use xlink:href="#path-2"></use>
                </mask>
                <use id="b.ground-opaque-rec" fill="url(#radialGradient-1)" transform="translate(900.000000, 537.000000) scale(1, -1) translate(-900.000000, -537.000000) " xlink:href="#path-2"></use>
                <g id="curved-lines" mask="url(#mask-3)" stroke="url(#linearGradient-4)" stroke-width="0.5">
                    <g transform="translate(20.000000, 0.000000)">
                        <path d="M12.7868852,421.810621 C322.132528,402.90627 630.888229,454.339765 939.053987,576.111106 C1247.21974,697.882447 1547.20721,742.363635 1839.01639,709.55467" id="c.-line-20" stroke-dasharray="3,2"></path>
                        <path d="M12.7868852,441.810621 C322.132528,422.90627 630.888229,474.339765 939.053987,596.111106 C1247.21974,717.882447 1547.20721,762.363635 1839.01639,729.55467" id="c.-line-19" stroke-dasharray="3,2" transform="translate(925.901639, 589.000000) rotate(-2.000000) translate(-925.901639, -589.000000) "></path>
                        <path d="M12.7868852,461.810621 C322.132528,442.90627 630.888229,494.339765 939.053987,616.111106 C1247.21974,737.882447 1547.20721,782.363635 1839.01639,749.55467" id="c.-line-18" stroke-dasharray="5,4" transform="translate(925.901639, 609.000000) rotate(-4.000000) translate(-925.901639, -609.000000) "></path>
                        <path d="M12.7868852,491.810621 C322.132528,472.90627 630.888229,524.339765 939.053987,646.111106 C1247.21974,767.882447 1547.20721,812.363635 1839.01639,779.55467" id="c.-line-17" stroke-dasharray="7,4" transform="translate(925.901639, 639.000000) rotate(-7.000000) translate(-925.901639, -639.000000) "></path>
                        <path d="M12.7868852,521.810621 C322.132528,502.90627 630.888229,554.339765 939.053987,676.111106 C1247.21974,797.882447 1547.20721,842.363635 1839.01639,809.55467" id="c.-line-16" stroke-dasharray="9,7" transform="translate(925.901639, 669.000000) rotate(-10.000000) translate(-925.901639, -669.000000) "></path>
                        <path d="M12.7868852,569.810621 C322.132528,550.90627 630.888229,602.339765 939.053987,724.111106 C1247.21974,845.882447 1547.20721,890.363635 1839.01639,857.55467" id="c.-line-15" stroke-dasharray="13,9" transform="translate(925.901639, 717.000000) rotate(-13.000000) translate(-925.901639, -717.000000) "></path>
                        <path d="M12.7868852,611.810621 C322.132528,592.90627 630.888229,644.339765 939.053987,766.111106 C1247.21974,887.882447 1547.20721,932.363635 1839.01639,899.55467" id="c.-line-14" stroke-dasharray="16,12" transform="translate(925.901639, 759.000000) rotate(-17.000000) translate(-925.901639, -759.000000) "></path>
                        <path d="M12.7868852,401.810621 C322.132528,382.90627 630.888229,434.339765 939.053987,556.111106 C1247.21974,677.882447 1547.20721,722.363635 1839.01639,689.55467" id="c.-line-13" stroke-dasharray="3,2" transform="translate(925.901639, 549.000000) rotate(1.000000) translate(-925.901639, -549.000000) "></path>
                        <path d="M12.7868852,381.810621 C322.132528,362.90627 630.888229,414.339765 939.053987,536.111106 C1247.21974,657.882447 1547.20721,702.363635 1839.01639,669.55467" id="c.-line-12" stroke-dasharray="3,2" transform="translate(925.901639, 529.000000) rotate(2.000000) translate(-925.901639, -529.000000) "></path>
                        <path d="M12.7868852,361.810621 C322.132528,342.90627 630.888229,394.339765 939.053987,516.111106 C1247.21974,637.882447 1547.20721,682.363635 1839.01639,649.55467" id="c.-line-11" stroke-dasharray="3,2" transform="translate(925.901639, 509.000000) rotate(4.000000) translate(-925.901639, -509.000000) "></path>
                        <path d="M12.8555775,342.345531 C322.201221,323.441181 630.956921,374.874676 939.122679,496.646017 C1247.28844,618.417358 1552.83044,662.175032 1855.74869,627.919038" id="c.-line-10" stroke-dasharray="3,2" transform="translate(934.302134, 488.867684) rotate(6.000000) translate(-934.302134, -488.867684) "></path>
                        <path d="M12.7868852,322.808961 C322.175435,303.912843 630.97396,355.323942 939.182461,477.042259 C1247.39096,598.760577 1550.06785,637.531007 1847.21311,593.353549" id="c.-line-9" stroke-dasharray="3,2" transform="translate(930.000000, 465.000000) rotate(8.000000) translate(-930.000000, -465.000000) "></path>
                        <path d="M16.0655738,301.813533 C325.257946,282.894735 633.860668,334.367537 941.873739,456.231936 C1249.88681,578.096336 1548.93436,607.73272 1839.01639,545.141086" id="c.-line-8" stroke-dasharray="3,2" transform="translate(927.540984, 437.500000) rotate(10.000000) translate(-927.540984, -437.500000) "></path>
                        <path d="M16.0655738,281.813533 C325.257946,262.894735 633.860668,314.367537 941.873739,436.231936 C1249.88681,558.096336 1548.93436,587.73272 1839.01639,525.141086" id="c.-line-7" stroke-dasharray="3,2" transform="translate(927.540984, 417.500000) rotate(12.000000) translate(-927.540984, -417.500000) "></path>
                        <path d="M16.0655738,261.813533 C325.257946,242.894735 633.860668,294.367537 941.873739,416.231936 C1249.88681,538.096336 1548.93436,567.73272 1839.01639,505.141086" id="c.-line-6" stroke-dasharray="2,1" transform="translate(927.540984, 397.500000) rotate(12.000000) translate(-927.540984, -397.500000) "></path>
                        <path d="M16.0655738,231.813533 C325.257946,212.894735 633.860668,264.367537 941.873739,386.231936 C1249.88681,508.096336 1548.93436,537.73272 1839.01639,475.141086" id="c.-line-5" stroke-dasharray="2,1" transform="translate(927.540984, 367.500000) rotate(12.000000) translate(-927.540984, -367.500000) "></path>
                        <path d="M16.0655738,201.813533 C325.257946,182.894735 633.860668,234.367537 941.873739,356.231936 C1249.88681,478.096336 1548.93436,507.73272 1839.01639,445.141086" id="c.-line-4" stroke-dasharray="2,1" transform="translate(927.540984, 337.500000) rotate(12.000000) translate(-927.540984, -337.500000) "></path>
                        <path d="M16.0655738,171.813533 C325.257946,152.894735 633.860668,204.367537 941.873739,326.231936 C1249.88681,448.096336 1548.93436,477.73272 1839.01639,415.141086" id="c.-line-3" stroke-dasharray="3,2" transform="translate(927.540984, 307.500000) rotate(9.000000) translate(-927.540984, -307.500000) "></path>
                        <path d="M16.0655738,141.813533 C325.257946,122.894735 633.860668,174.367537 941.873739,296.231936 C1249.88681,418.096336 1548.93436,447.73272 1839.01639,385.141086" id="c.-line-2" stroke-dasharray="3,2" transform="translate(927.540984, 277.500000) rotate(6.000000) translate(-927.540984, -277.500000) "></path>
                        <path d="M16.0655738,101.813533 C325.257946,82.8947354 633.860668,134.367537 941.873739,256.231936 C1249.88681,378.096336 1548.93436,407.73272 1839.01639,345.141086" id="c.-line-1" stroke-dasharray="3,2" transform="translate(927.540984, 237.500000) rotate(6.000000) translate(-927.540984, -237.500000) "></path>
                        <path d="M16.0655738,61.8135328 C325.257946,42.8947354 633.860668,94.3675366 941.873739,216.231936 C1249.88681,338.096336 1548.93436,367.73272 1839.01639,305.141086" id="c.-line-1-copy" stroke-dasharray="5,3" transform="translate(927.540984, 197.500000) rotate(3.000000) translate(-927.540984, -197.500000) "></path>
                    </g>
                </g>
                <rect id="b.ground-transparent-rec" fill="url(#linearGradient-5)" opacity="0.97" mask="url(#mask-3)" transform="translate(900.000000, 537.000000) scale(1, -1) translate(-900.000000, -537.000000) " x="0" y="337" width="1800" height="400"></rect>
            </g>
        </g>
    </g>
</svg>