<svg xmlns="http://www.w3.org/2000/svg" xmlns:xlink="http://www.w3.org/1999/xlink" width="1920.65" height="1119.09" viewBox="0 0 1920.65 1119.09">
  <defs>
    <clipPath id="clip-path">
      <path id="Path_3841" data-name="Path 3841" d="M0,0H1920V1119.09L-.65,1115.937Z" transform="translate(0 4)" fill="rgba(255,255,255,0.3)"/>
    </clipPath>
    <clipPath id="clip-path-2">
      <rect id="Rectangle_1746" data-name="Rectangle 1746" width="1920" height="1117" transform="translate(48.387 -127.016)" fill="none"/>
    </clipPath>
  </defs>
  <g id="calendar-bg" transform="translate(-3997 -28)">
    <g id="Mask_Group_46" data-name="Mask Group 46" transform="translate(3997.65 24)" clip-path="url(#clip-path)">
      <path id="Path_3839" data-name="Path 3839" d="M17.109,1633.9l-362.372-288.062c-90.106-71.629-101.583-204.224-25.128-290.27L600.611-51.1,924.979-45.55V1457.765s-29.285,174.879-198.307,174.879S17.109,1633.9,17.109,1633.9Z" transform="translate(1183.196 51.099)" fill="#d5e0ed" opacity="0.2"/>
    </g>
    <g id="Group_1331" data-name="Group 1331" transform="translate(3949.263 155.016)" opacity="0.05">
      <g id="Group_1184" data-name="Group 1184" clip-path="url(#clip-path-2)">
        <g id="Group_1040" data-name="Group 1040">
          <path id="Path_3549" data-name="Path 3549" d="M1726.188-147.836c-118.686,0-238.916-28.526-240.116-28.814s-121.319-28.786-239.884-28.786-238.683,28.5-239.883,28.786-121.43,28.814-240.117,28.814S527.272-176.362,526.072-176.65s-121.319-28.786-239.884-28.786S47.505-176.938,46.305-176.65l-.233-.972c1.2-.289,121.43-28.814,240.116-28.814S525.1-177.911,526.3-177.622s121.319,28.786,239.883,28.786,238.684-28.5,239.884-28.786,121.43-28.814,240.116-28.814,238.916,28.525,240.117,28.814,121.319,28.786,239.883,28.786,238.684-28.5,239.884-28.786l.233.972C1965.1-176.362,1844.875-147.836,1726.188-147.836Z" fill="#28482d"/>
        </g>
        <g id="Group_1041" data-name="Group 1041">
          <path id="Path_3550" data-name="Path 3550" d="M1726.188-156.925c-118.686,0-238.916-28.525-240.116-28.813s-121.319-28.787-239.884-28.787-238.683,28.5-239.883,28.787-121.43,28.813-240.117,28.813S527.272-185.45,526.072-185.738s-121.319-28.787-239.884-28.787-238.683,28.5-239.883,28.787l-.233-.973c1.2-.288,121.43-28.814,240.116-28.814S525.1-187,526.3-186.711s121.319,28.786,239.883,28.786,238.684-28.5,239.884-28.786,121.43-28.814,240.116-28.814S1485.1-187,1486.305-186.711s121.319,28.786,239.883,28.786,238.684-28.5,239.884-28.786l.233.973C1965.1-185.45,1844.875-156.925,1726.188-156.925Z" fill="#28482d"/>
        </g>
        <g id="Group_1042" data-name="Group 1042">
          <path id="Path_3551" data-name="Path 3551" d="M1726.188-138.748c-118.686,0-238.916-28.525-240.116-28.814s-121.319-28.786-239.884-28.786-238.683,28.5-239.883,28.786-121.43,28.814-240.117,28.814-238.916-28.525-240.116-28.814-121.319-28.786-239.884-28.786S47.505-167.85,46.305-167.562l-.233-.972c1.2-.288,121.43-28.814,240.116-28.814S525.1-168.822,526.3-168.534s121.319,28.786,239.883,28.786,238.684-28.5,239.884-28.786,121.43-28.814,240.116-28.814,238.916,28.526,240.117,28.814,121.319,28.786,239.883,28.786,238.684-28.5,239.884-28.786l.233.972C1965.1-167.273,1844.875-138.748,1726.188-138.748Z" fill="#28482d"/>
        </g>
        <g id="Group_1043" data-name="Group 1043">
          <path id="Path_3552" data-name="Path 3552" d="M1726.188-166.013c-118.686,0-238.916-28.525-240.116-28.814s-121.319-28.786-239.884-28.786-238.683,28.5-239.883,28.786-121.43,28.814-240.117,28.814-238.916-28.525-240.116-28.814-121.319-28.786-239.884-28.786-238.683,28.5-239.883,28.786l-.233-.972c1.2-.288,121.43-28.814,240.116-28.814S525.1-196.087,526.3-195.8s121.319,28.786,239.883,28.786,238.684-28.5,239.884-28.786,121.43-28.814,240.116-28.814S1485.1-196.087,1486.305-195.8s121.319,28.786,239.883,28.786,238.684-28.5,239.884-28.786l.233.972C1965.1-194.538,1844.875-166.013,1726.188-166.013Z" fill="#28482d"/>
        </g>
        <g id="Group_1044" data-name="Group 1044">
          <path id="Path_3553" data-name="Path 3553" d="M1726.188-175.1c-118.686,0-238.916-28.526-240.116-28.814S1364.753-232.7,1246.188-232.7s-238.683,28.5-239.883,28.786S884.875-175.1,766.188-175.1s-238.916-28.526-240.116-28.814S404.753-232.7,286.188-232.7,47.505-204.2,46.305-203.915l-.233-.973c1.2-.288,121.43-28.813,240.116-28.813S525.1-205.176,526.3-204.888,647.624-176.1,766.188-176.1s238.684-28.5,239.884-28.787S1127.5-233.7,1246.188-233.7s238.916,28.525,240.117,28.813S1607.624-176.1,1726.188-176.1s238.684-28.5,239.884-28.787l.233.973C1965.1-203.627,1844.875-175.1,1726.188-175.1Z" fill="#28482d"/>
        </g>
        <g id="Group_1045" data-name="Group 1045">
          <path id="Path_3554" data-name="Path 3554" d="M1726.188-129.66c-118.686,0-238.916-28.526-240.116-28.814s-121.319-28.786-239.884-28.786-238.683,28.5-239.883,28.786S884.875-129.66,766.188-129.66s-238.916-28.526-240.116-28.814S404.753-187.26,286.188-187.26s-238.683,28.5-239.883,28.786l-.233-.972c1.2-.289,121.43-28.814,240.116-28.814S525.1-159.735,526.3-159.446,647.624-130.66,766.188-130.66s238.684-28.5,239.884-28.786,121.43-28.814,240.116-28.814,238.916,28.525,240.117,28.814,121.319,28.786,239.883,28.786,238.684-28.5,239.884-28.786l.233.972C1965.1-158.186,1844.875-129.66,1726.188-129.66Z" fill="#28482d"/>
        </g>
        <g id="Group_1046" data-name="Group 1046">
          <path id="Path_3555" data-name="Path 3555" d="M1726.188-93.307c-118.686,0-238.916-28.525-240.116-28.813s-121.319-28.787-239.884-28.787-238.683,28.5-239.883,28.787S884.875-93.307,766.188-93.307,527.272-121.832,526.072-122.12s-121.319-28.787-239.884-28.787S47.505-122.408,46.305-122.12l-.233-.973c1.2-.288,121.43-28.814,240.116-28.814S525.1-123.381,526.3-123.093,647.624-94.307,766.188-94.307s238.684-28.5,239.884-28.786,121.43-28.814,240.116-28.814,238.916,28.526,240.117,28.814,121.319,28.786,239.883,28.786,238.684-28.5,239.884-28.786l.233.973C1965.1-121.832,1844.875-93.307,1726.188-93.307Z" fill="#28482d"/>
        </g>
        <g id="Group_1047" data-name="Group 1047">
          <path id="Path_3556" data-name="Path 3556" d="M1726.188-102.395c-118.686,0-238.916-28.526-240.116-28.814s-121.319-28.786-239.884-28.786-238.683,28.5-239.883,28.786-121.43,28.814-240.117,28.814-238.916-28.526-240.116-28.814-121.319-28.786-239.884-28.786S47.505-131.5,46.305-131.209l-.233-.972c1.2-.289,121.43-28.814,240.116-28.814S525.1-132.47,526.3-132.181s121.319,28.786,239.883,28.786,238.684-28.5,239.884-28.786,121.43-28.814,240.116-28.814,238.916,28.525,240.117,28.814,121.319,28.786,239.883,28.786,238.684-28.5,239.884-28.786l.233.972C1965.1-130.921,1844.875-102.395,1726.188-102.395Z" fill="#28482d"/>
        </g>
        <g id="Group_1048" data-name="Group 1048">
          <path id="Path_3557" data-name="Path 3557" d="M1726.188-84.219c-118.686,0-238.916-28.525-240.116-28.813s-121.319-28.787-239.884-28.787-238.683,28.5-239.883,28.787S884.875-84.219,766.188-84.219s-238.916-28.525-240.116-28.813-121.319-28.787-239.884-28.787S47.505-113.32,46.305-113.032L46.072-114c1.2-.288,121.43-28.814,240.116-28.814S525.1-114.293,526.3-114,647.624-85.219,766.188-85.219s238.684-28.5,239.884-28.786,121.43-28.814,240.116-28.814S1485.1-114.293,1486.305-114s121.319,28.786,239.883,28.786,238.684-28.5,239.884-28.786l.233.973C1965.1-112.744,1844.875-84.219,1726.188-84.219Z" fill="#28482d"/>
        </g>
        <g id="Group_1049" data-name="Group 1049">
          <path id="Path_3558" data-name="Path 3558" d="M1726.188-111.484c-118.686,0-238.916-28.525-240.116-28.813s-121.319-28.786-239.884-28.786-238.683,28.5-239.883,28.786-121.43,28.813-240.117,28.813S527.272-140.009,526.072-140.3s-121.319-28.786-239.884-28.786S47.505-140.585,46.305-140.3l-.233-.973c1.2-.288,121.43-28.813,240.116-28.813S525.1-141.558,526.3-141.27s121.319,28.786,239.883,28.786,238.684-28.5,239.884-28.786,121.43-28.813,240.116-28.813,238.916,28.525,240.117,28.813,121.319,28.786,239.883,28.786,238.684-28.5,239.884-28.786l.233.973C1965.1-140.009,1844.875-111.484,1726.188-111.484Z" fill="#28482d"/>
        </g>
        <g id="Group_1050" data-name="Group 1050">
          <path id="Path_3559" data-name="Path 3559" d="M1726.188-120.572c-118.686,0-238.916-28.525-240.116-28.814s-121.319-28.786-239.884-28.786-238.683,28.5-239.883,28.786-121.43,28.814-240.117,28.814S527.272-149.1,526.072-149.386s-121.319-28.786-239.884-28.786-238.683,28.5-239.883,28.786l-.233-.972c1.2-.288,121.43-28.814,240.116-28.814S525.1-150.646,526.3-150.358s121.319,28.786,239.883,28.786,238.684-28.5,239.884-28.786,121.43-28.814,240.116-28.814,238.916,28.526,240.117,28.814,121.319,28.786,239.883,28.786,238.684-28.5,239.884-28.786l.233.972C1965.1-149.1,1844.875-120.572,1726.188-120.572Z" fill="#28482d"/>
        </g>
        <g id="Group_1051" data-name="Group 1051">
          <path id="Path_3560" data-name="Path 3560" d="M1726.188-75.13c-118.686,0-238.916-28.526-240.116-28.814s-121.319-28.786-239.884-28.786-238.683,28.5-239.883,28.786S884.875-75.13,766.188-75.13s-238.916-28.526-240.116-28.814S404.753-132.73,286.188-132.73s-238.683,28.5-239.883,28.786l-.233-.972c1.2-.289,121.43-28.814,240.116-28.814S525.1-105.205,526.3-104.916,647.624-76.13,766.188-76.13s238.684-28.5,239.884-28.786,121.43-28.814,240.116-28.814,238.916,28.525,240.117,28.814S1607.624-76.13,1726.188-76.13s238.684-28.5,239.884-28.786l.233.972C1965.1-103.656,1844.875-75.13,1726.188-75.13Z" fill="#28482d"/>
        </g>
        <g id="Group_1052" data-name="Group 1052">
          <path id="Path_3561" data-name="Path 3561" d="M1726.188-38.778c-118.686,0-238.916-28.525-240.116-28.813s-121.319-28.786-239.884-28.786-238.683,28.5-239.883,28.786S884.875-38.778,766.188-38.778,527.272-67.3,526.072-67.591,404.753-96.377,286.188-96.377,47.505-67.879,46.305-67.591l-.233-.973c1.2-.288,121.43-28.813,240.116-28.813S525.1-68.852,526.3-68.564,647.624-39.778,766.188-39.778s238.684-28.5,239.884-28.786,121.43-28.813,240.116-28.813S1485.1-68.852,1486.305-68.564s121.319,28.786,239.883,28.786,238.684-28.5,239.884-28.786l.233.973C1965.1-67.3,1844.875-38.778,1726.188-38.778Z" fill="#28482d"/>
        </g>
        <g id="Group_1053" data-name="Group 1053">
          <path id="Path_3562" data-name="Path 3562" d="M1726.188-47.866c-118.686,0-238.916-28.525-240.116-28.813s-121.319-28.786-239.884-28.786-238.683,28.5-239.883,28.786S884.875-47.866,766.188-47.866,527.272-76.391,526.072-76.679s-121.319-28.786-239.884-28.786S47.505-76.967,46.305-76.679l-.233-.973c1.2-.288,121.43-28.813,240.116-28.813S525.1-77.94,526.3-77.652,647.624-48.866,766.188-48.866s238.684-28.5,239.884-28.786,121.43-28.813,240.116-28.813S1485.1-77.94,1486.305-77.652s121.319,28.786,239.883,28.786,238.684-28.5,239.884-28.786l.233.973C1965.1-76.391,1844.875-47.866,1726.188-47.866Z" fill="#28482d"/>
        </g>
        <g id="Group_1054" data-name="Group 1054">
          <path id="Path_3563" data-name="Path 3563" d="M1726.188-29.689c-118.686,0-238.916-28.525-240.116-28.814s-121.319-28.786-239.884-28.786S1007.505-58.791,1006.3-58.5,884.875-29.689,766.188-29.689,527.272-58.214,526.072-58.5,404.753-87.289,286.188-87.289,47.505-58.791,46.305-58.5l-.233-.972c1.2-.288,121.43-28.814,240.116-28.814S525.1-59.763,526.3-59.475,647.624-30.689,766.188-30.689s238.684-28.5,239.884-28.786,121.43-28.814,240.116-28.814S1485.1-59.763,1486.305-59.475s121.319,28.786,239.883,28.786,238.684-28.5,239.884-28.786l.233.972C1965.1-58.214,1844.875-29.689,1726.188-29.689Z" fill="#28482d"/>
        </g>
        <g id="Group_1055" data-name="Group 1055">
          <path id="Path_3564" data-name="Path 3564" d="M1726.188-56.954c-118.686,0-238.916-28.526-240.116-28.814s-121.319-28.786-239.884-28.786-238.683,28.5-239.883,28.786S884.875-56.954,766.188-56.954,527.272-85.48,526.072-85.768s-121.319-28.786-239.884-28.786S47.505-86.056,46.305-85.768l-.233-.972c1.2-.289,121.43-28.814,240.116-28.814S525.1-87.029,526.3-86.74,647.624-57.954,766.188-57.954s238.684-28.5,239.884-28.786,121.43-28.814,240.116-28.814S1485.1-87.029,1486.305-86.74s121.319,28.786,239.883,28.786,238.684-28.5,239.884-28.786l.233.972C1965.1-85.48,1844.875-56.954,1726.188-56.954Z" fill="#28482d"/>
        </g>
        <g id="Group_1056" data-name="Group 1056">
          <path id="Path_3565" data-name="Path 3565" d="M1726.188-66.042c-118.686,0-238.916-28.526-240.116-28.814s-121.319-28.786-239.884-28.786-238.683,28.5-239.883,28.786S884.875-66.042,766.188-66.042,527.272-94.568,526.072-94.856s-121.319-28.786-239.884-28.786S47.505-95.144,46.305-94.856l-.233-.973c1.2-.288,121.43-28.813,240.116-28.813S525.1-96.117,526.3-95.829,647.624-67.042,766.188-67.042s238.684-28.5,239.884-28.787,121.43-28.813,240.116-28.813S1485.1-96.117,1486.305-95.829s121.319,28.787,239.883,28.787,238.684-28.5,239.884-28.787l.233.973C1965.1-94.568,1844.875-66.042,1726.188-66.042Z" fill="#28482d"/>
        </g>
        <g id="Group_1057" data-name="Group 1057">
          <path id="Path_3566" data-name="Path 3566" d="M1726.188-20.6c-118.686,0-238.916-28.525-240.116-28.813S1364.753-78.2,1246.188-78.2,1007.505-49.7,1006.3-49.414,884.875-20.6,766.188-20.6,527.272-49.126,526.072-49.414,404.753-78.2,286.188-78.2,47.505-49.7,46.305-49.414l-.233-.973C47.272-50.675,167.5-79.2,286.188-79.2S525.1-50.675,526.3-50.387,647.624-21.6,766.188-21.6s238.684-28.5,239.884-28.786S1127.5-79.2,1246.188-79.2,1485.1-50.675,1486.305-50.387,1607.624-21.6,1726.188-21.6s238.684-28.5,239.884-28.786l.233.973C1965.1-49.126,1844.875-20.6,1726.188-20.6Z" fill="#28482d"/>
        </g>
        <g id="Group_1058" data-name="Group 1058">
          <path id="Path_3567" data-name="Path 3567" d="M1726.188,15.752c-118.686,0-238.916-28.525-240.116-28.814s-121.319-28.786-239.884-28.786S1007.505-13.35,1006.3-13.062,884.875,15.752,766.188,15.752,527.272-12.773,526.072-13.062,404.753-41.848,286.188-41.848,47.505-13.35,46.305-13.062l-.233-.972c1.2-.288,121.43-28.814,240.116-28.814S525.1-14.322,526.3-14.034,647.624,14.752,766.188,14.752s238.684-28.5,239.884-28.786,121.43-28.814,240.116-28.814S1485.1-14.322,1486.305-14.034s121.319,28.786,239.883,28.786,238.684-28.5,239.884-28.786l.233.972C1965.1-12.773,1844.875,15.752,1726.188,15.752Z" fill="#28482d"/>
        </g>
        <g id="Group_1059" data-name="Group 1059">
          <path id="Path_3568" data-name="Path 3568" d="M1726.188,6.664c-118.686,0-238.916-28.526-240.116-28.814s-121.319-28.786-239.884-28.786S1007.505-22.438,1006.3-22.15,884.875,6.664,766.188,6.664,527.272-21.862,526.072-22.15,404.753-50.936,286.188-50.936,47.505-22.438,46.305-22.15l-.233-.973c1.2-.288,121.43-28.813,240.116-28.813S525.1-23.411,526.3-23.123,647.624,5.664,766.188,5.664s238.684-28.5,239.884-28.787,121.43-28.813,240.116-28.813S1485.1-23.411,1486.305-23.123,1607.624,5.664,1726.188,5.664s238.684-28.5,239.884-28.787l.233.973C1965.1-21.862,1844.875,6.664,1726.188,6.664Z" fill="#28482d"/>
        </g>
        <g id="Group_1060" data-name="Group 1060">
          <path id="Path_3569" data-name="Path 3569" d="M1726.188,24.84c-118.686,0-238.916-28.525-240.116-28.814S1364.753-32.76,1246.188-32.76,1007.505-4.262,1006.3-3.974,884.875,24.84,766.188,24.84,527.272-3.685,526.072-3.974,404.753-32.76,286.188-32.76,47.505-4.262,46.305-3.974l-.233-.972c1.2-.288,121.43-28.814,240.116-28.814S525.1-5.234,526.3-4.946,647.624,23.84,766.188,23.84s238.684-28.5,239.884-28.786S1127.5-33.76,1246.188-33.76,1485.1-5.234,1486.305-4.946,1607.624,23.84,1726.188,23.84s238.684-28.5,239.884-28.786l.233.972C1965.1-3.685,1844.875,24.84,1726.188,24.84Z" fill="#28482d"/>
        </g>
        <g id="Group_1061" data-name="Group 1061">
          <path id="Path_3570" data-name="Path 3570" d="M1726.188-2.424c-118.686,0-238.916-28.526-240.116-28.814s-121.319-28.786-239.884-28.786-238.683,28.5-239.883,28.786S884.875-2.424,766.188-2.424,527.272-30.95,526.072-31.238,404.753-60.024,286.188-60.024,47.505-31.526,46.305-31.238l-.233-.973c1.2-.288,121.43-28.813,240.116-28.813S525.1-32.5,526.3-32.211,647.624-3.424,766.188-3.424s238.684-28.5,239.884-28.787,121.43-28.813,240.116-28.813S1485.1-32.5,1486.305-32.211,1607.624-3.424,1726.188-3.424s238.684-28.5,239.884-28.787l.233.973C1965.1-30.95,1844.875-2.424,1726.188-2.424Z" fill="#28482d"/>
        </g>
        <g id="Group_1062" data-name="Group 1062">
          <path id="Path_3571" data-name="Path 3571" d="M1726.188-11.513c-118.686,0-238.916-28.525-240.116-28.814s-121.319-28.786-239.884-28.786-238.683,28.5-239.883,28.786S884.875-11.513,766.188-11.513,527.272-40.038,526.072-40.327,404.753-69.113,286.188-69.113,47.505-40.615,46.305-40.327l-.233-.972c1.2-.288,121.43-28.814,240.116-28.814S525.1-41.587,526.3-41.3,647.624-12.513,766.188-12.513s238.684-28.5,239.884-28.786,121.43-28.814,240.116-28.814S1485.1-41.587,1486.305-41.3s121.319,28.786,239.883,28.786,238.684-28.5,239.884-28.786l.233.972C1965.1-40.038,1844.875-11.513,1726.188-11.513Z" fill="#28482d"/>
        </g>
        <g id="Group_1063" data-name="Group 1063">
          <path id="Path_3572" data-name="Path 3572" d="M1726.188,33.929c-118.686,0-238.916-28.526-240.116-28.814s-121.319-28.787-239.884-28.787S1007.505,4.827,1006.3,5.115,884.875,33.929,766.188,33.929,527.272,5.4,526.072,5.115,404.753-23.672,286.188-23.672,47.505,4.827,46.305,5.115l-.233-.973c1.2-.288,121.43-28.814,240.116-28.814S525.1,3.854,526.3,4.142,647.624,32.929,766.188,32.929s238.684-28.5,239.884-28.787,121.43-28.814,240.116-28.814S1485.1,3.854,1486.305,4.142s121.319,28.787,239.883,28.787,238.684-28.5,239.884-28.787l.233.973C1965.1,5.4,1844.875,33.929,1726.188,33.929Z" fill="#28482d"/>
        </g>
        <g id="Group_1064" data-name="Group 1064">
          <path id="Path_3573" data-name="Path 3573" d="M1726.188,70.281c-118.686,0-238.916-28.525-240.116-28.813s-121.319-28.786-239.884-28.786S1007.505,41.18,1006.3,41.468,884.875,70.281,766.188,70.281,527.272,41.756,526.072,41.468,404.753,12.682,286.188,12.682,47.505,41.18,46.305,41.468l-.233-.973c1.2-.288,121.43-28.813,240.116-28.813S525.1,40.207,526.3,40.495,647.624,69.281,766.188,69.281s238.684-28.5,239.884-28.786,121.43-28.813,240.116-28.813S1485.1,40.207,1486.305,40.495s121.319,28.786,239.883,28.786,238.684-28.5,239.884-28.786l.233.973C1965.1,41.756,1844.875,70.281,1726.188,70.281Z" fill="#28482d"/>
        </g>
        <g id="Group_1065" data-name="Group 1065">
          <path id="Path_3574" data-name="Path 3574" d="M1726.188,61.193c-118.686,0-238.916-28.525-240.116-28.813S1364.753,3.594,1246.188,3.594,1007.505,32.092,1006.3,32.38,884.875,61.193,766.188,61.193,527.272,32.668,526.072,32.38,404.753,3.594,286.188,3.594,47.505,32.092,46.305,32.38l-.233-.973c1.2-.288,121.43-28.813,240.116-28.813S525.1,31.119,526.3,31.407,647.624,60.193,766.188,60.193s238.684-28.5,239.884-28.786S1127.5,2.594,1246.188,2.594,1485.1,31.119,1486.305,31.407s121.319,28.786,239.883,28.786,238.684-28.5,239.884-28.786l.233.973C1965.1,32.668,1844.875,61.193,1726.188,61.193Z" fill="#28482d"/>
        </g>
        <g id="Group_1066" data-name="Group 1066">
          <path id="Path_3575" data-name="Path 3575" d="M1726.188,79.37c-118.686,0-238.916-28.526-240.116-28.814S1364.753,21.77,1246.188,21.77s-238.683,28.5-239.883,28.786S884.875,79.37,766.188,79.37,527.272,50.844,526.072,50.556,404.753,21.77,286.188,21.77,47.505,50.268,46.305,50.556l-.233-.972c1.2-.289,121.43-28.814,240.116-28.814S525.1,49.295,526.3,49.584,647.624,78.37,766.188,78.37s238.684-28.5,239.884-28.786S1127.5,20.77,1246.188,20.77,1485.1,49.295,1486.305,49.584,1607.624,78.37,1726.188,78.37s238.684-28.5,239.884-28.786l.233.972C1965.1,50.844,1844.875,79.37,1726.188,79.37Z" fill="#28482d"/>
        </g>
        <g id="Group_1067" data-name="Group 1067">
          <path id="Path_3576" data-name="Path 3576" d="M1726.188,52.1c-118.686,0-238.916-28.525-240.116-28.814S1364.753-5.495,1246.188-5.495,1007.505,23,1006.3,23.291,884.875,52.1,766.188,52.1,527.272,23.58,526.072,23.291,404.753-5.495,286.188-5.495,47.505,23,46.305,23.291l-.233-.972c1.2-.288,121.43-28.814,240.116-28.814S525.1,22.031,526.3,22.319,647.624,51.1,766.188,51.1s238.684-28.5,239.884-28.786S1127.5-6.495,1246.188-6.495,1485.1,22.031,1486.305,22.319,1607.624,51.1,1726.188,51.1s238.684-28.5,239.884-28.786l.233.972C1965.1,23.58,1844.875,52.1,1726.188,52.1Z" fill="#28482d"/>
        </g>
        <g id="Group_1068" data-name="Group 1068">
          <path id="Path_3577" data-name="Path 3577" d="M1726.188,43.017c-118.686,0-238.916-28.526-240.116-28.814s-121.319-28.786-239.884-28.786S1007.505,13.915,1006.3,14.2,884.875,43.017,766.188,43.017,527.272,14.491,526.072,14.2,404.753-14.583,286.188-14.583,47.505,13.915,46.305,14.2l-.233-.972c1.2-.289,121.43-28.814,240.116-28.814S525.1,12.942,526.3,13.231,647.624,42.017,766.188,42.017s238.684-28.5,239.884-28.786,121.43-28.814,240.116-28.814S1485.1,12.942,1486.305,13.231s121.319,28.786,239.883,28.786,238.684-28.5,239.884-28.786l.233.972C1965.1,14.491,1844.875,43.017,1726.188,43.017Z" fill="#28482d"/>
        </g>
        <g id="Group_1069" data-name="Group 1069">
          <path id="Path_3578" data-name="Path 3578" d="M1726.188,88.458c-118.686,0-238.916-28.525-240.116-28.814s-121.319-28.786-239.884-28.786-238.683,28.5-239.883,28.786S884.875,88.458,766.188,88.458,527.272,59.933,526.072,59.644,404.753,30.858,286.188,30.858,47.505,59.356,46.305,59.644l-.233-.972c1.2-.288,121.43-28.814,240.116-28.814S525.1,58.384,526.3,58.672,647.624,87.458,766.188,87.458s238.684-28.5,239.884-28.786,121.43-28.814,240.116-28.814S1485.1,58.384,1486.305,58.672s121.319,28.786,239.883,28.786,238.684-28.5,239.884-28.786l.233.972C1965.1,59.933,1844.875,88.458,1726.188,88.458Z" fill="#28482d"/>
        </g>
        <g id="Group_1070" data-name="Group 1070">
          <path id="Path_3579" data-name="Path 3579" d="M1726.188,124.811c-118.686,0-238.916-28.525-240.116-28.813s-121.319-28.787-239.884-28.787S1007.505,95.71,1006.3,96s-121.43,28.813-240.117,28.813S527.272,96.286,526.072,96,404.753,67.211,286.188,67.211,47.505,95.71,46.305,96l-.233-.973c1.2-.288,121.43-28.814,240.116-28.814S525.1,94.737,526.3,95.025s121.319,28.786,239.883,28.786,238.684-28.5,239.884-28.786,121.43-28.814,240.116-28.814S1485.1,94.737,1486.305,95.025s121.319,28.786,239.883,28.786,238.684-28.5,239.884-28.786l.233.973C1965.1,96.286,1844.875,124.811,1726.188,124.811Z" fill="#28482d"/>
        </g>
        <g id="Group_1071" data-name="Group 1071">
          <path id="Path_3580" data-name="Path 3580" d="M1726.188,115.723c-118.686,0-238.916-28.526-240.116-28.814s-121.319-28.786-239.884-28.786-238.683,28.5-239.883,28.786-121.43,28.814-240.117,28.814S527.272,87.2,526.072,86.909,404.753,58.123,286.188,58.123,47.505,86.621,46.305,86.909l-.233-.972c1.2-.289,121.43-28.814,240.116-28.814S525.1,85.648,526.3,85.937s121.319,28.786,239.883,28.786,238.684-28.5,239.884-28.786,121.43-28.814,240.116-28.814S1485.1,85.648,1486.305,85.937s121.319,28.786,239.883,28.786,238.684-28.5,239.884-28.786l.233.972C1965.1,87.2,1844.875,115.723,1726.188,115.723Z" fill="#28482d"/>
        </g>
        <g id="Group_1072" data-name="Group 1072">
          <path id="Path_3581" data-name="Path 3581" d="M1726.188,133.9c-118.686,0-238.916-28.526-240.116-28.814S1364.753,76.3,1246.188,76.3s-238.683,28.5-239.883,28.787S884.875,133.9,766.188,133.9s-238.916-28.526-240.116-28.814S404.753,76.3,286.188,76.3,47.505,104.8,46.305,105.086l-.233-.972c1.2-.289,121.43-28.815,240.116-28.815S525.1,103.825,526.3,104.114,647.624,132.9,766.188,132.9s238.684-28.5,239.884-28.786S1127.5,75.3,1246.188,75.3s238.916,28.526,240.117,28.815S1607.624,132.9,1726.188,132.9s238.684-28.5,239.884-28.786l.233.972C1965.1,105.374,1844.875,133.9,1726.188,133.9Z" fill="#28482d"/>
        </g>
        <g id="Group_1073" data-name="Group 1073">
          <path id="Path_3582" data-name="Path 3582" d="M1726.188,106.634c-118.686,0-238.916-28.525-240.116-28.813s-121.319-28.786-239.884-28.786-238.683,28.5-239.883,28.786-121.43,28.813-240.117,28.813S527.272,78.109,526.072,77.821,404.753,49.035,286.188,49.035,47.505,77.533,46.305,77.821l-.233-.973c1.2-.288,121.43-28.813,240.116-28.813S525.1,76.56,526.3,76.848s121.319,28.786,239.883,28.786,238.684-28.5,239.884-28.786,121.43-28.813,240.116-28.813S1485.1,76.56,1486.305,76.848s121.319,28.786,239.883,28.786,238.684-28.5,239.884-28.786l.233.973C1965.1,78.109,1844.875,106.634,1726.188,106.634Z" fill="#28482d"/>
        </g>
        <g id="Group_1074" data-name="Group 1074">
          <path id="Path_3583" data-name="Path 3583" d="M1726.188,97.546c-118.686,0-238.916-28.525-240.116-28.813s-121.319-28.786-239.884-28.786-238.683,28.5-239.883,28.786S884.875,97.546,766.188,97.546,527.272,69.021,526.072,68.733,404.753,39.947,286.188,39.947,47.505,68.445,46.305,68.733l-.233-.973c1.2-.288,121.43-28.813,240.116-28.813S525.1,67.472,526.3,67.76,647.624,96.546,766.188,96.546s238.684-28.5,239.884-28.786,121.43-28.813,240.116-28.813S1485.1,67.472,1486.305,67.76s121.319,28.786,239.883,28.786,238.684-28.5,239.884-28.786l.233.973C1965.1,69.021,1844.875,97.546,1726.188,97.546Z" fill="#28482d"/>
        </g>
        <g id="Group_1075" data-name="Group 1075">
          <path id="Path_3584" data-name="Path 3584" d="M1726.188,142.988c-118.686,0-238.916-28.525-240.116-28.814s-121.319-28.787-239.884-28.787-238.683,28.5-239.883,28.787-121.43,28.814-240.117,28.814-238.916-28.525-240.116-28.814S404.753,85.387,286.188,85.387s-238.683,28.5-239.883,28.787l-.233-.972c1.2-.288,121.43-28.815,240.116-28.815S525.1,112.914,526.3,113.2s121.319,28.786,239.883,28.786,238.684-28.5,239.884-28.786,121.43-28.815,240.116-28.815S1485.1,112.914,1486.305,113.2s121.319,28.786,239.883,28.786,238.684-28.5,239.884-28.786l.233.972C1965.1,114.463,1844.875,142.988,1726.188,142.988Z" fill="#28482d"/>
        </g>
        <g id="Group_1076" data-name="Group 1076">
          <path id="Path_3585" data-name="Path 3585" d="M1726.188,179.34c-118.686,0-238.916-28.525-240.116-28.813s-121.319-28.786-239.884-28.786-238.683,28.5-239.883,28.786S884.875,179.34,766.188,179.34s-238.916-28.525-240.116-28.813-121.319-28.786-239.884-28.786-238.683,28.5-239.883,28.786l-.233-.973c1.2-.288,121.43-28.813,240.116-28.813S525.1,149.266,526.3,149.554,647.624,178.34,766.188,178.34s238.684-28.5,239.884-28.786,121.43-28.813,240.116-28.813,238.916,28.525,240.117,28.813,121.319,28.786,239.883,28.786,238.684-28.5,239.884-28.786l.233.973C1965.1,150.815,1844.875,179.34,1726.188,179.34Z" fill="#28482d"/>
        </g>
        <g id="Group_1077" data-name="Group 1077">
          <path id="Path_3586" data-name="Path 3586" d="M1726.188,170.252c-118.686,0-238.916-28.525-240.116-28.813s-121.319-28.786-239.884-28.786-238.683,28.5-239.883,28.786-121.43,28.813-240.117,28.813-238.916-28.525-240.116-28.813-121.319-28.786-239.884-28.786-238.683,28.5-239.883,28.786l-.233-.973c1.2-.288,121.43-28.813,240.116-28.813S525.1,140.178,526.3,140.466s121.319,28.786,239.883,28.786,238.684-28.5,239.884-28.786,121.43-28.813,240.116-28.813,238.916,28.525,240.117,28.813,121.319,28.786,239.883,28.786,238.684-28.5,239.884-28.786l.233.973C1965.1,141.727,1844.875,170.252,1726.188,170.252Z" fill="#28482d"/>
        </g>
        <g id="Group_1078" data-name="Group 1078">
          <path id="Path_3587" data-name="Path 3587" d="M1726.188,188.429c-118.686,0-238.916-28.526-240.116-28.814s-121.319-28.786-239.884-28.786-238.683,28.5-239.883,28.786-121.43,28.814-240.117,28.814S527.272,159.9,526.072,159.615s-121.319-28.786-239.884-28.786-238.683,28.5-239.883,28.786l-.233-.972c1.2-.289,121.43-28.814,240.116-28.814S525.1,158.354,526.3,158.643s121.319,28.786,239.883,28.786,238.684-28.5,239.884-28.786,121.43-28.814,240.116-28.814,238.916,28.525,240.117,28.814,121.319,28.786,239.883,28.786,238.684-28.5,239.884-28.786l.233.972C1965.1,159.9,1844.875,188.429,1726.188,188.429Z" fill="#28482d"/>
        </g>
        <g id="Group_1079" data-name="Group 1079">
          <path id="Path_3588" data-name="Path 3588" d="M1726.188,161.164c-118.686,0-238.916-28.526-240.116-28.814s-121.319-28.786-239.884-28.786-238.683,28.5-239.883,28.786-121.43,28.814-240.117,28.814S527.272,132.638,526.072,132.35s-121.319-28.786-239.884-28.786S47.505,132.062,46.305,132.35l-.233-.973c1.2-.288,121.43-28.813,240.116-28.813S525.1,131.089,526.3,131.377s121.319,28.787,239.883,28.787,238.684-28.5,239.884-28.787,121.43-28.813,240.116-28.813,238.916,28.525,240.117,28.813,121.319,28.787,239.883,28.787,238.684-28.5,239.884-28.787l.233.973C1965.1,132.638,1844.875,161.164,1726.188,161.164Z" fill="#28482d"/>
        </g>
        <g id="Group_1080" data-name="Group 1080">
          <path id="Path_3589" data-name="Path 3589" d="M1726.188,152.076c-118.686,0-238.916-28.526-240.116-28.814s-121.319-28.786-239.884-28.786-238.683,28.5-239.883,28.786-121.43,28.814-240.117,28.814S527.272,123.55,526.072,123.262,404.753,94.476,286.188,94.476s-238.683,28.5-239.883,28.786l-.233-.973c1.2-.288,121.43-28.813,240.116-28.813S525.1,122,526.3,122.289s121.319,28.787,239.883,28.787,238.684-28.5,239.884-28.787,121.43-28.813,240.116-28.813S1485.1,122,1486.305,122.289s121.319,28.787,239.883,28.787,238.684-28.5,239.884-28.787l.233.973C1965.1,123.55,1844.875,152.076,1726.188,152.076Z" fill="#28482d"/>
        </g>
        <g id="Group_1081" data-name="Group 1081">
          <path id="Path_3590" data-name="Path 3590" d="M1726.188,197.517c-118.686,0-238.916-28.525-240.116-28.814s-121.319-28.786-239.884-28.786-238.683,28.5-239.883,28.786-121.43,28.814-240.117,28.814S527.272,168.992,526.072,168.7s-121.319-28.786-239.884-28.786S47.505,168.415,46.305,168.7l-.233-.972c1.2-.288,121.43-28.814,240.116-28.814S525.1,167.443,526.3,167.731s121.319,28.786,239.883,28.786,238.684-28.5,239.884-28.786,121.43-28.814,240.116-28.814,238.916,28.526,240.117,28.814,121.319,28.786,239.883,28.786,238.684-28.5,239.884-28.786l.233.972C1965.1,168.992,1844.875,197.517,1726.188,197.517Z" fill="#28482d"/>
        </g>
        <g id="Group_1082" data-name="Group 1082">
          <path id="Path_3591" data-name="Path 3591" d="M1726.188,233.87c-118.686,0-238.916-28.525-240.116-28.814s-121.319-28.786-239.884-28.786-238.683,28.5-239.883,28.786S884.875,233.87,766.188,233.87s-238.916-28.525-240.116-28.814S404.753,176.27,286.188,176.27s-238.683,28.5-239.883,28.786l-.233-.972c1.2-.288,121.43-28.814,240.116-28.814S525.1,203.8,526.3,204.084,647.624,232.87,766.188,232.87s238.684-28.5,239.884-28.786,121.43-28.814,240.116-28.814S1485.1,203.8,1486.305,204.084s121.319,28.786,239.883,28.786,238.684-28.5,239.884-28.786l.233.972C1965.1,205.345,1844.875,233.87,1726.188,233.87Z" fill="#28482d"/>
        </g>
        <g id="Group_1083" data-name="Group 1083">
          <path id="Path_3592" data-name="Path 3592" d="M1726.188,224.782c-118.686,0-238.916-28.526-240.116-28.814s-121.319-28.786-239.884-28.786-238.683,28.5-239.883,28.786-121.43,28.814-240.117,28.814-238.916-28.526-240.116-28.814-121.319-28.786-239.884-28.786S47.505,195.68,46.305,195.968L46.072,195c1.2-.289,121.43-28.814,240.116-28.814S525.1,194.707,526.3,195s121.319,28.786,239.883,28.786,238.684-28.5,239.884-28.786,121.43-28.814,240.116-28.814S1485.1,194.707,1486.305,195s121.319,28.786,239.883,28.786,238.684-28.5,239.884-28.786l.233.972C1965.1,196.256,1844.875,224.782,1726.188,224.782Z" fill="#28482d"/>
        </g>
        <g id="Group_1084" data-name="Group 1084">
          <path id="Path_3593" data-name="Path 3593" d="M1726.188,242.958c-118.686,0-238.916-28.525-240.116-28.813s-121.319-28.786-239.884-28.786-238.683,28.5-239.883,28.786-121.43,28.813-240.117,28.813-238.916-28.525-240.116-28.813-121.319-28.786-239.884-28.786-238.683,28.5-239.883,28.786l-.233-.973c1.2-.288,121.43-28.813,240.116-28.813S525.1,212.884,526.3,213.172s121.319,28.786,239.883,28.786,238.684-28.5,239.884-28.786,121.43-28.813,240.116-28.813,238.916,28.525,240.117,28.813,121.319,28.786,239.883,28.786,238.684-28.5,239.884-28.786l.233.973C1965.1,214.433,1844.875,242.958,1726.188,242.958Z" fill="#28482d"/>
        </g>
        <g id="Group_1085" data-name="Group 1085">
          <path id="Path_3594" data-name="Path 3594" d="M1726.188,215.693c-118.686,0-238.916-28.525-240.116-28.813s-121.319-28.786-239.884-28.786-238.683,28.5-239.883,28.786-121.43,28.813-240.117,28.813S527.272,187.168,526.072,186.88s-121.319-28.786-239.884-28.786S47.505,186.592,46.305,186.88l-.233-.973c1.2-.288,121.43-28.813,240.116-28.813S525.1,185.619,526.3,185.907s121.319,28.786,239.883,28.786,238.684-28.5,239.884-28.786,121.43-28.813,240.116-28.813,238.916,28.525,240.117,28.813,121.319,28.786,239.883,28.786,238.684-28.5,239.884-28.786l.233.973C1965.1,187.168,1844.875,215.693,1726.188,215.693Z" fill="#28482d"/>
        </g>
        <g id="Group_1086" data-name="Group 1086">
          <path id="Path_3595" data-name="Path 3595" d="M1726.188,206.6c-118.686,0-238.916-28.525-240.116-28.813s-121.319-28.786-239.884-28.786-238.683,28.5-239.883,28.786S884.875,206.6,766.188,206.6,527.272,178.08,526.072,177.792s-121.319-28.786-239.884-28.786S47.505,177.5,46.305,177.792l-.233-.973c1.2-.288,121.43-28.813,240.116-28.813S525.1,176.531,526.3,176.819,647.624,205.6,766.188,205.6s238.684-28.5,239.884-28.786,121.43-28.813,240.116-28.813,238.916,28.525,240.117,28.813S1607.624,205.6,1726.188,205.6s238.684-28.5,239.884-28.786l.233.973C1965.1,178.08,1844.875,206.6,1726.188,206.6Z" fill="#28482d"/>
        </g>
        <g id="Group_1087" data-name="Group 1087">
          <path id="Path_3596" data-name="Path 3596" d="M1726.188,252.047c-118.686,0-238.916-28.525-240.116-28.814s-121.319-28.787-239.884-28.787-238.683,28.5-239.883,28.787-121.43,28.814-240.117,28.814-238.916-28.525-240.116-28.814-121.319-28.787-239.884-28.787-238.683,28.5-239.883,28.787l-.233-.972c1.2-.288,121.43-28.815,240.116-28.815S525.1,221.973,526.3,222.261s121.319,28.786,239.883,28.786,238.684-28.5,239.884-28.786,121.43-28.815,240.116-28.815,238.916,28.527,240.117,28.815,121.319,28.786,239.883,28.786,238.684-28.5,239.884-28.786l.233.972C1965.1,223.522,1844.875,252.047,1726.188,252.047Z" fill="#28482d"/>
        </g>
        <g id="Group_1088" data-name="Group 1088">
          <path id="Path_3597" data-name="Path 3597" d="M1726.188,288.4c-118.686,0-238.916-28.526-240.116-28.814S1364.753,230.8,1246.188,230.8s-238.683,28.5-239.883,28.786S884.875,288.4,766.188,288.4s-238.916-28.526-240.116-28.814S404.753,230.8,286.188,230.8,47.505,259.3,46.305,259.586l-.233-.972c1.2-.289,121.43-28.814,240.116-28.814S525.1,258.325,526.3,258.614,647.624,287.4,766.188,287.4s238.684-28.5,239.884-28.786S1127.5,229.8,1246.188,229.8s238.916,28.525,240.117,28.814S1607.624,287.4,1726.188,287.4s238.684-28.5,239.884-28.786l.233.972C1965.1,259.874,1844.875,288.4,1726.188,288.4Z" fill="#28482d"/>
        </g>
        <g id="Group_1089" data-name="Group 1089">
          <path id="Path_3598" data-name="Path 3598" d="M1726.188,279.311c-118.686,0-238.916-28.525-240.116-28.813s-121.319-28.787-239.884-28.787S1007.505,250.21,1006.3,250.5s-121.43,28.813-240.117,28.813S527.272,250.786,526.072,250.5s-121.319-28.787-239.884-28.787S47.505,250.21,46.305,250.5l-.233-.973c1.2-.288,121.43-28.814,240.116-28.814S525.1,249.237,526.3,249.525s121.319,28.786,239.883,28.786,238.684-28.5,239.884-28.786,121.43-28.814,240.116-28.814,238.916,28.526,240.117,28.814,121.319,28.786,239.883,28.786,238.684-28.5,239.884-28.786l.233.973C1965.1,250.786,1844.875,279.311,1726.188,279.311Z" fill="#28482d"/>
        </g>
        <g id="Group_1090" data-name="Group 1090">
          <path id="Path_3599" data-name="Path 3599" d="M1726.188,297.488c-118.686,0-238.916-28.525-240.116-28.814s-121.319-28.786-239.884-28.786-238.683,28.5-239.883,28.786-121.43,28.814-240.117,28.814-238.916-28.525-240.116-28.814-121.319-28.786-239.884-28.786-238.683,28.5-239.883,28.786l-.233-.972c1.2-.288,121.43-28.814,240.116-28.814S525.1,267.414,526.3,267.7s121.319,28.786,239.883,28.786,238.684-28.5,239.884-28.786,121.43-28.814,240.116-28.814S1485.1,267.414,1486.305,267.7s121.319,28.786,239.883,28.786,238.684-28.5,239.884-28.786l.233.972C1965.1,268.963,1844.875,297.488,1726.188,297.488Z" fill="#28482d"/>
        </g>
        <g id="Group_1091" data-name="Group 1091">
          <path id="Path_3600" data-name="Path 3600" d="M1726.188,270.223c-118.686,0-238.916-28.525-240.116-28.814s-121.319-28.786-239.884-28.786-238.683,28.5-239.883,28.786-121.43,28.814-240.117,28.814S527.272,241.7,526.072,241.409s-121.319-28.786-239.884-28.786-238.683,28.5-239.883,28.786l-.233-.972c1.2-.288,121.43-28.814,240.116-28.814S525.1,240.149,526.3,240.437s121.319,28.786,239.883,28.786,238.684-28.5,239.884-28.786,121.43-28.814,240.116-28.814,238.916,28.526,240.117,28.814,121.319,28.786,239.883,28.786,238.684-28.5,239.884-28.786l.233.972C1965.1,241.7,1844.875,270.223,1726.188,270.223Z" fill="#28482d"/>
        </g>
        <g id="Group_1092" data-name="Group 1092">
          <path id="Path_3601" data-name="Path 3601" d="M1726.188,261.135c-118.686,0-238.916-28.526-240.116-28.814s-121.319-28.786-239.884-28.786-238.683,28.5-239.883,28.786-121.43,28.814-240.117,28.814-238.916-28.526-240.116-28.814-121.319-28.786-239.884-28.786-238.683,28.5-239.883,28.786l-.233-.973c1.2-.288,121.43-28.813,240.116-28.813S525.1,231.06,526.3,231.348s121.319,28.787,239.883,28.787,238.684-28.5,239.884-28.787,121.43-28.813,240.116-28.813,238.916,28.525,240.117,28.813,121.319,28.787,239.883,28.787,238.684-28.5,239.884-28.787l.233.973C1965.1,232.609,1844.875,261.135,1726.188,261.135Z" fill="#28482d"/>
        </g>
        <g id="Group_1093" data-name="Group 1093">
          <path id="Path_3602" data-name="Path 3602" d="M1726.188,306.576c-118.686,0-238.916-28.526-240.116-28.814s-121.319-28.786-239.884-28.786-238.683,28.5-239.883,28.786-121.43,28.814-240.117,28.814S527.272,278.05,526.072,277.762s-121.319-28.786-239.884-28.786-238.683,28.5-239.883,28.786l-.233-.972c1.2-.289,121.43-28.814,240.116-28.814S525.1,276.5,526.3,276.79s121.319,28.786,239.883,28.786,238.684-28.5,239.884-28.786,121.43-28.814,240.116-28.814S1485.1,276.5,1486.305,276.79s121.319,28.786,239.883,28.786,238.684-28.5,239.884-28.786l.233.972C1965.1,278.05,1844.875,306.576,1726.188,306.576Z" fill="#28482d"/>
        </g>
        <g id="Group_1094" data-name="Group 1094">
          <path id="Path_3603" data-name="Path 3603" d="M1726.188,342.929c-118.686,0-238.916-28.525-240.116-28.813s-121.319-28.787-239.884-28.787-238.683,28.5-239.883,28.787-121.43,28.813-240.117,28.813S527.272,314.4,526.072,314.116s-121.319-28.787-239.884-28.787-238.683,28.5-239.883,28.787l-.233-.973c1.2-.288,121.43-28.814,240.116-28.814S525.1,312.855,526.3,313.143s121.319,28.786,239.883,28.786,238.684-28.5,239.884-28.786,121.43-28.814,240.116-28.814,238.916,28.526,240.117,28.814,121.319,28.786,239.883,28.786,238.684-28.5,239.884-28.786l.233.973C1965.1,314.4,1844.875,342.929,1726.188,342.929Z" fill="#28482d"/>
        </g>
        <g id="Group_1095" data-name="Group 1095">
          <path id="Path_3604" data-name="Path 3604" d="M1726.188,333.841c-118.686,0-238.916-28.526-240.116-28.814s-121.319-28.786-239.884-28.786-238.683,28.5-239.883,28.786-121.43,28.814-240.117,28.814-238.916-28.526-240.116-28.814-121.319-28.786-239.884-28.786-238.683,28.5-239.883,28.786l-.233-.972c1.2-.289,121.43-28.814,240.116-28.814S525.1,303.766,526.3,304.055s121.319,28.786,239.883,28.786,238.684-28.5,239.884-28.786,121.43-28.814,240.116-28.814,238.916,28.525,240.117,28.814,121.319,28.786,239.883,28.786,238.684-28.5,239.884-28.786l.233.972C1965.1,305.315,1844.875,333.841,1726.188,333.841Z" fill="#28482d"/>
        </g>
        <g id="Group_1096" data-name="Group 1096">
          <path id="Path_3605" data-name="Path 3605" d="M1726.188,352.017c-118.686,0-238.916-28.525-240.116-28.813s-121.319-28.787-239.884-28.787-238.683,28.5-239.883,28.787-121.43,28.813-240.117,28.813S527.272,323.492,526.072,323.2s-121.319-28.787-239.884-28.787S47.505,322.916,46.305,323.2l-.233-.973c1.2-.288,121.43-28.814,240.116-28.814S525.1,321.943,526.3,322.231s121.319,28.786,239.883,28.786,238.684-28.5,239.884-28.786,121.43-28.814,240.116-28.814,238.916,28.526,240.117,28.814,121.319,28.786,239.883,28.786,238.684-28.5,239.884-28.786l.233.973C1965.1,323.492,1844.875,352.017,1726.188,352.017Z" fill="#28482d"/>
        </g>
        <g id="Group_1097" data-name="Group 1097">
          <path id="Path_3606" data-name="Path 3606" d="M1726.188,324.752c-118.686,0-238.916-28.525-240.116-28.813s-121.319-28.786-239.884-28.786-238.683,28.5-239.883,28.786-121.43,28.813-240.117,28.813-238.916-28.525-240.116-28.813-121.319-28.786-239.884-28.786-238.683,28.5-239.883,28.786l-.233-.973c1.2-.288,121.43-28.813,240.116-28.813S525.1,294.678,526.3,294.966s121.319,28.786,239.883,28.786,238.684-28.5,239.884-28.786,121.43-28.813,240.116-28.813,238.916,28.525,240.117,28.813,121.319,28.786,239.883,28.786,238.684-28.5,239.884-28.786l.233.973C1965.1,296.227,1844.875,324.752,1726.188,324.752Z" fill="#28482d"/>
        </g>
        <g id="Group_1098" data-name="Group 1098">
          <path id="Path_3607" data-name="Path 3607" d="M1726.188,315.664c-118.686,0-238.916-28.525-240.116-28.814s-121.319-28.786-239.884-28.786-238.683,28.5-239.883,28.786-121.43,28.814-240.117,28.814S527.272,287.139,526.072,286.85s-121.319-28.786-239.884-28.786S47.505,286.562,46.305,286.85l-.233-.972c1.2-.288,121.43-28.814,240.116-28.814S525.1,285.59,526.3,285.878s121.319,28.786,239.883,28.786,238.684-28.5,239.884-28.786,121.43-28.814,240.116-28.814,238.916,28.526,240.117,28.814,121.319,28.786,239.883,28.786,238.684-28.5,239.884-28.786l.233.972C1965.1,287.139,1844.875,315.664,1726.188,315.664Z" fill="#28482d"/>
        </g>
        <g id="Group_1099" data-name="Group 1099">
          <path id="Path_3608" data-name="Path 3608" d="M1726.188,361.106c-118.686,0-238.916-28.526-240.116-28.814s-121.319-28.786-239.884-28.786S1007.505,332,1006.3,332.292s-121.43,28.814-240.117,28.814S527.272,332.58,526.072,332.292s-121.319-28.786-239.884-28.786S47.505,332,46.305,332.292l-.233-.972c1.2-.289,121.43-28.814,240.116-28.814S525.1,331.031,526.3,331.32s121.319,28.786,239.883,28.786,238.684-28.5,239.884-28.786,121.43-28.814,240.116-28.814,238.916,28.525,240.117,28.814,121.319,28.786,239.883,28.786,238.684-28.5,239.884-28.786l.233.972C1965.1,332.58,1844.875,361.106,1726.188,361.106Z" fill="#28482d"/>
        </g>
        <g id="Group_1100" data-name="Group 1100">
          <path id="Path_3609" data-name="Path 3609" d="M1726.188,397.458c-118.686,0-238.916-28.525-240.116-28.813s-121.319-28.786-239.884-28.786-238.683,28.5-239.883,28.786-121.43,28.813-240.117,28.813-238.916-28.525-240.116-28.813-121.319-28.786-239.884-28.786-238.683,28.5-239.883,28.786l-.233-.973c1.2-.288,121.43-28.813,240.116-28.813S525.1,367.384,526.3,367.672s121.319,28.786,239.883,28.786,238.684-28.5,239.884-28.786,121.43-28.813,240.116-28.813,238.916,28.525,240.117,28.813,121.319,28.786,239.883,28.786,238.684-28.5,239.884-28.786l.233.973C1965.1,368.933,1844.875,397.458,1726.188,397.458Z" fill="#28482d"/>
        </g>
        <g id="Group_1101" data-name="Group 1101">
          <path id="Path_3610" data-name="Path 3610" d="M1726.188,388.37c-118.686,0-238.916-28.525-240.116-28.813s-121.319-28.786-239.884-28.786-238.683,28.5-239.883,28.786S884.875,388.37,766.188,388.37s-238.916-28.525-240.116-28.813-121.319-28.786-239.884-28.786-238.683,28.5-239.883,28.786l-.233-.973c1.2-.288,121.43-28.813,240.116-28.813S525.1,358.3,526.3,358.584,647.624,387.37,766.188,387.37s238.684-28.5,239.884-28.786,121.43-28.813,240.116-28.813S1485.1,358.3,1486.305,358.584s121.319,28.786,239.883,28.786,238.684-28.5,239.884-28.786l.233.973C1965.1,359.845,1844.875,388.37,1726.188,388.37Z" fill="#28482d"/>
        </g>
        <g id="Group_1102" data-name="Group 1102">
          <path id="Path_3611" data-name="Path 3611" d="M1726.188,406.547c-118.686,0-238.916-28.525-240.116-28.814s-121.319-28.786-239.884-28.786-238.683,28.5-239.883,28.786-121.43,28.814-240.117,28.814-238.916-28.525-240.116-28.814-121.319-28.786-239.884-28.786-238.683,28.5-239.883,28.786l-.233-.972c1.2-.288,121.43-28.814,240.116-28.814S525.1,376.473,526.3,376.761s121.319,28.786,239.883,28.786,238.684-28.5,239.884-28.786,121.43-28.814,240.116-28.814,238.916,28.526,240.117,28.814,121.319,28.786,239.883,28.786,238.684-28.5,239.884-28.786l.233.972C1965.1,378.022,1844.875,406.547,1726.188,406.547Z" fill="#28482d"/>
        </g>
        <g id="Group_1103" data-name="Group 1103">
          <path id="Path_3612" data-name="Path 3612" d="M1726.188,379.282c-118.686,0-238.916-28.526-240.116-28.814s-121.319-28.786-239.884-28.786-238.683,28.5-239.883,28.786-121.43,28.814-240.117,28.814-238.916-28.526-240.116-28.814-121.319-28.786-239.884-28.786S47.505,350.18,46.305,350.468l-.233-.972c1.2-.289,121.43-28.814,240.116-28.814S525.1,349.207,526.3,349.5s121.319,28.786,239.883,28.786,238.684-28.5,239.884-28.786,121.43-28.814,240.116-28.814S1485.1,349.207,1486.305,349.5s121.319,28.786,239.883,28.786,238.684-28.5,239.884-28.786l.233.972C1965.1,350.756,1844.875,379.282,1726.188,379.282Z" fill="#28482d"/>
        </g>
        <g id="Group_1104" data-name="Group 1104">
          <path id="Path_3613" data-name="Path 3613" d="M1726.188,370.194c-118.686,0-238.916-28.526-240.116-28.814s-121.319-28.786-239.884-28.786-238.683,28.5-239.883,28.786-121.43,28.814-240.117,28.814S527.272,341.668,526.072,341.38s-121.319-28.786-239.884-28.786S47.505,341.092,46.305,341.38l-.233-.973c1.2-.288,121.43-28.813,240.116-28.813S525.1,340.119,526.3,340.407s121.319,28.787,239.883,28.787,238.684-28.5,239.884-28.787,121.43-28.813,240.116-28.813,238.916,28.525,240.117,28.813,121.319,28.787,239.883,28.787,238.684-28.5,239.884-28.787l.233.973C1965.1,341.668,1844.875,370.194,1726.188,370.194Z" fill="#28482d"/>
        </g>
        <g id="Group_1105" data-name="Group 1105">
          <path id="Path_3614" data-name="Path 3614" d="M1726.188,415.635c-118.686,0-238.916-28.525-240.116-28.813s-121.319-28.787-239.884-28.787-238.683,28.5-239.883,28.787-121.43,28.813-240.117,28.813S527.272,387.11,526.072,386.822s-121.319-28.787-239.884-28.787-238.683,28.5-239.883,28.787l-.233-.973c1.2-.288,121.43-28.814,240.116-28.814S525.1,385.561,526.3,385.849s121.319,28.786,239.883,28.786,238.684-28.5,239.884-28.786,121.43-28.814,240.116-28.814,238.916,28.526,240.117,28.814,121.319,28.786,239.883,28.786,238.684-28.5,239.884-28.786l.233.973C1965.1,387.11,1844.875,415.635,1726.188,415.635Z" fill="#28482d"/>
        </g>
        <g id="Group_1106" data-name="Group 1106">
          <path id="Path_3615" data-name="Path 3615" d="M1726.188,451.988c-118.686,0-238.916-28.525-240.116-28.814s-121.319-28.786-239.884-28.786-238.683,28.5-239.883,28.786-121.43,28.814-240.117,28.814-238.916-28.525-240.116-28.814-121.319-28.786-239.884-28.786-238.683,28.5-239.883,28.786l-.233-.972c1.2-.288,121.43-28.814,240.116-28.814S525.1,421.914,526.3,422.2s121.319,28.786,239.883,28.786,238.684-28.5,239.884-28.786,121.43-28.814,240.116-28.814S1485.1,421.914,1486.305,422.2s121.319,28.786,239.883,28.786,238.684-28.5,239.884-28.786l.233.972C1965.1,423.463,1844.875,451.988,1726.188,451.988Z" fill="#28482d"/>
        </g>
        <g id="Group_1107" data-name="Group 1107">
          <path id="Path_3616" data-name="Path 3616" d="M1726.188,442.9c-118.686,0-238.916-28.526-240.116-28.814S1364.753,385.3,1246.188,385.3s-238.683,28.5-239.883,28.786S884.875,442.9,766.188,442.9s-238.916-28.526-240.116-28.814S404.753,385.3,286.188,385.3,47.505,413.8,46.305,414.086l-.233-.973c1.2-.288,121.43-28.813,240.116-28.813S525.1,412.825,526.3,413.113,647.624,441.9,766.188,441.9s238.684-28.5,239.884-28.787S1127.5,384.3,1246.188,384.3s238.916,28.525,240.117,28.813S1607.624,441.9,1726.188,441.9s238.684-28.5,239.884-28.787l.233.973C1965.1,414.374,1844.875,442.9,1726.188,442.9Z" fill="#28482d"/>
        </g>
        <g id="Group_1108" data-name="Group 1108">
          <path id="Path_3617" data-name="Path 3617" d="M1726.188,461.076c-118.686,0-238.916-28.525-240.116-28.814s-121.319-28.786-239.884-28.786-238.683,28.5-239.883,28.786-121.43,28.814-240.117,28.814-238.916-28.525-240.116-28.814-121.319-28.786-239.884-28.786-238.683,28.5-239.883,28.786l-.233-.972c1.2-.288,121.43-28.814,240.116-28.814S525.1,431,526.3,431.29s121.319,28.786,239.883,28.786,238.684-28.5,239.884-28.786,121.43-28.814,240.116-28.814S1485.1,431,1486.305,431.29s121.319,28.786,239.883,28.786,238.684-28.5,239.884-28.786l.233.972C1965.1,432.551,1844.875,461.076,1726.188,461.076Z" fill="#28482d"/>
        </g>
        <g id="Group_1109" data-name="Group 1109">
          <path id="Path_3618" data-name="Path 3618" d="M1726.188,433.812c-118.686,0-238.916-28.526-240.116-28.814s-121.319-28.786-239.884-28.786S1007.505,404.71,1006.3,405s-121.43,28.814-240.117,28.814S527.272,405.286,526.072,405s-121.319-28.786-239.884-28.786S47.505,404.71,46.305,405l-.233-.973c1.2-.288,121.43-28.813,240.116-28.813S525.1,403.737,526.3,404.025s121.319,28.787,239.883,28.787,238.684-28.5,239.884-28.787,121.43-28.813,240.116-28.813,238.916,28.525,240.117,28.813,121.319,28.787,239.883,28.787,238.684-28.5,239.884-28.787l.233.973C1965.1,405.286,1844.875,433.812,1726.188,433.812Z" fill="#28482d"/>
        </g>
        <g id="Group_1110" data-name="Group 1110">
          <path id="Path_3619" data-name="Path 3619" d="M1726.188,424.723c-118.686,0-238.916-28.525-240.116-28.814s-121.319-28.786-239.884-28.786-238.683,28.5-239.883,28.786-121.43,28.814-240.117,28.814S527.272,396.2,526.072,395.909s-121.319-28.786-239.884-28.786-238.683,28.5-239.883,28.786l-.233-.972c1.2-.288,121.43-28.814,240.116-28.814S525.1,394.649,526.3,394.937s121.319,28.786,239.883,28.786,238.684-28.5,239.884-28.786,121.43-28.814,240.116-28.814,238.916,28.526,240.117,28.814,121.319,28.786,239.883,28.786,238.684-28.5,239.884-28.786l.233.972C1965.1,396.2,1844.875,424.723,1726.188,424.723Z" fill="#28482d"/>
        </g>
        <g id="Group_1111" data-name="Group 1111">
          <path id="Path_3620" data-name="Path 3620" d="M1726.188,470.165c-118.686,0-238.916-28.526-240.116-28.814s-121.319-28.787-239.884-28.787-238.683,28.5-239.883,28.787-121.43,28.814-240.117,28.814-238.916-28.526-240.116-28.814-121.319-28.787-239.884-28.787-238.683,28.5-239.883,28.787l-.233-.973c1.2-.288,121.43-28.814,240.116-28.814S525.1,440.09,526.3,440.378s121.319,28.787,239.883,28.787,238.684-28.5,239.884-28.787,121.43-28.814,240.116-28.814,238.916,28.526,240.117,28.814,121.319,28.787,239.883,28.787,238.684-28.5,239.884-28.787l.233.973C1965.1,441.639,1844.875,470.165,1726.188,470.165Z" fill="#28482d"/>
        </g>
        <g id="Group_1112" data-name="Group 1112">
          <path id="Path_3621" data-name="Path 3621" d="M1726.188,506.517c-118.686,0-238.916-28.525-240.116-28.813s-121.319-28.786-239.884-28.786-238.683,28.5-239.883,28.786-121.43,28.813-240.117,28.813S527.272,477.992,526.072,477.7s-121.319-28.786-239.884-28.786S47.505,477.416,46.305,477.7l-.233-.973c1.2-.288,121.43-28.813,240.116-28.813S525.1,476.443,526.3,476.731s121.319,28.786,239.883,28.786,238.684-28.5,239.884-28.786,121.43-28.813,240.116-28.813,238.916,28.525,240.117,28.813,121.319,28.786,239.883,28.786,238.684-28.5,239.884-28.786l.233.973C1965.1,477.992,1844.875,506.517,1726.188,506.517Z" fill="#28482d"/>
        </g>
        <g id="Group_1113" data-name="Group 1113">
          <path id="Path_3622" data-name="Path 3622" d="M1726.188,497.429c-118.686,0-238.916-28.525-240.116-28.813s-121.319-28.786-239.884-28.786-238.683,28.5-239.883,28.786-121.43,28.813-240.117,28.813S527.272,468.9,526.072,468.616,404.753,439.83,286.188,439.83s-238.683,28.5-239.883,28.786l-.233-.973c1.2-.288,121.43-28.813,240.116-28.813S525.1,467.355,526.3,467.643s121.319,28.786,239.883,28.786,238.684-28.5,239.884-28.786,121.43-28.813,240.116-28.813,238.916,28.525,240.117,28.813,121.319,28.786,239.883,28.786,238.684-28.5,239.884-28.786l.233.973C1965.1,468.9,1844.875,497.429,1726.188,497.429Z" fill="#28482d"/>
        </g>
        <g id="Group_1114" data-name="Group 1114">
          <path id="Path_3623" data-name="Path 3623" d="M1726.188,515.606c-118.686,0-238.916-28.526-240.116-28.814s-121.319-28.786-239.884-28.786-238.683,28.5-239.883,28.786-121.43,28.814-240.117,28.814S527.272,487.08,526.072,486.792s-121.319-28.786-239.884-28.786S47.505,486.5,46.305,486.792l-.233-.972c1.2-.289,121.43-28.814,240.116-28.814S525.1,485.531,526.3,485.82s121.319,28.786,239.883,28.786,238.684-28.5,239.884-28.786,121.43-28.814,240.116-28.814,238.916,28.525,240.117,28.814,121.319,28.786,239.883,28.786,238.684-28.5,239.884-28.786l.233.972C1965.1,487.08,1844.875,515.606,1726.188,515.606Z" fill="#28482d"/>
        </g>
        <g id="Group_1115" data-name="Group 1115">
          <path id="Path_3624" data-name="Path 3624" d="M1726.188,488.341c-118.686,0-238.916-28.525-240.116-28.814s-121.319-28.786-239.884-28.786-238.683,28.5-239.883,28.786-121.43,28.814-240.117,28.814-238.916-28.525-240.116-28.814-121.319-28.786-239.884-28.786-238.683,28.5-239.883,28.786l-.233-.972c1.2-.288,121.43-28.814,240.116-28.814S525.1,458.267,526.3,458.555s121.319,28.786,239.883,28.786,238.684-28.5,239.884-28.786,121.43-28.814,240.116-28.814,238.916,28.526,240.117,28.814,121.319,28.786,239.883,28.786,238.684-28.5,239.884-28.786l.233.972C1965.1,459.816,1844.875,488.341,1726.188,488.341Z" fill="#28482d"/>
        </g>
        <g id="Group_1116" data-name="Group 1116">
          <path id="Path_3625" data-name="Path 3625" d="M1726.188,479.253c-118.686,0-238.916-28.526-240.116-28.814s-121.319-28.786-239.884-28.786-238.683,28.5-239.883,28.786-121.43,28.814-240.117,28.814-238.916-28.526-240.116-28.814-121.319-28.786-239.884-28.786-238.683,28.5-239.883,28.786l-.233-.972c1.2-.289,121.43-28.814,240.116-28.814S525.1,449.178,526.3,449.467s121.319,28.786,239.883,28.786,238.684-28.5,239.884-28.786,121.43-28.814,240.116-28.814,238.916,28.525,240.117,28.814,121.319,28.786,239.883,28.786,238.684-28.5,239.884-28.786l.233.972C1965.1,450.727,1844.875,479.253,1726.188,479.253Z" fill="#28482d"/>
        </g>
        <g id="Group_1117" data-name="Group 1117">
          <path id="Path_3626" data-name="Path 3626" d="M1726.188,524.694c-118.686,0-238.916-28.525-240.116-28.814s-121.319-28.786-239.884-28.786-238.683,28.5-239.883,28.786-121.43,28.814-240.117,28.814S527.272,496.169,526.072,495.88s-121.319-28.786-239.884-28.786S47.505,495.592,46.305,495.88l-.233-.972c1.2-.288,121.43-28.814,240.116-28.814S525.1,494.62,526.3,494.908s121.319,28.786,239.883,28.786,238.684-28.5,239.884-28.786,121.43-28.814,240.116-28.814,238.916,28.526,240.117,28.814,121.319,28.786,239.883,28.786,238.684-28.5,239.884-28.786l.233.972C1965.1,496.169,1844.875,524.694,1726.188,524.694Z" fill="#28482d"/>
        </g>
        <g id="Group_1118" data-name="Group 1118">
          <path id="Path_3627" data-name="Path 3627" d="M1726.188,561.047c-118.686,0-238.916-28.525-240.116-28.813s-121.319-28.787-239.884-28.787-238.683,28.5-239.883,28.787-121.43,28.813-240.117,28.813-238.916-28.525-240.116-28.813-121.319-28.787-239.884-28.787-238.683,28.5-239.883,28.787l-.233-.973c1.2-.288,121.43-28.814,240.116-28.814S525.1,530.973,526.3,531.261s121.319,28.786,239.883,28.786,238.684-28.5,239.884-28.786,121.43-28.814,240.116-28.814,238.916,28.526,240.117,28.814,121.319,28.786,239.883,28.786,238.684-28.5,239.884-28.786l.233.973C1965.1,532.522,1844.875,561.047,1726.188,561.047Z" fill="#28482d"/>
        </g>
        <g id="Group_1119" data-name="Group 1119">
          <path id="Path_3628" data-name="Path 3628" d="M1726.188,551.959c-118.686,0-238.916-28.526-240.116-28.814s-121.319-28.786-239.884-28.786-238.683,28.5-239.883,28.786-121.43,28.814-240.117,28.814-238.916-28.526-240.116-28.814-121.319-28.786-239.884-28.786-238.683,28.5-239.883,28.786l-.233-.972c1.2-.289,121.43-28.814,240.116-28.814S525.1,521.884,526.3,522.173s121.319,28.786,239.883,28.786,238.684-28.5,239.884-28.786,121.43-28.814,240.116-28.814,238.916,28.525,240.117,28.814,121.319,28.786,239.883,28.786,238.684-28.5,239.884-28.786l.233.972C1965.1,523.433,1844.875,551.959,1726.188,551.959Z" fill="#28482d"/>
        </g>
        <g id="Group_1120" data-name="Group 1120">
          <path id="Path_3629" data-name="Path 3629" d="M1726.188,570.136c-118.686,0-238.916-28.526-240.116-28.814s-121.319-28.787-239.884-28.787-238.683,28.5-239.883,28.787-121.43,28.814-240.117,28.814S527.272,541.61,526.072,541.322s-121.319-28.787-239.884-28.787-238.683,28.5-239.883,28.787l-.233-.972c1.2-.289,121.43-28.815,240.116-28.815S525.1,540.061,526.3,540.35s121.319,28.786,239.883,28.786,238.684-28.5,239.884-28.786,121.43-28.815,240.116-28.815,238.916,28.526,240.117,28.815,121.319,28.786,239.883,28.786,238.684-28.5,239.884-28.786l.233.972C1965.1,541.61,1844.875,570.136,1726.188,570.136Z" fill="#28482d"/>
        </g>
        <g id="Group_1121" data-name="Group 1121">
          <path id="Path_3630" data-name="Path 3630" d="M1726.188,542.87c-118.686,0-238.916-28.525-240.116-28.813s-121.319-28.786-239.884-28.786-238.683,28.5-239.883,28.786S884.875,542.87,766.188,542.87s-238.916-28.525-240.116-28.813-121.319-28.786-239.884-28.786-238.683,28.5-239.883,28.786l-.233-.973c1.2-.288,121.43-28.813,240.116-28.813S525.1,512.8,526.3,513.084,647.624,541.87,766.188,541.87s238.684-28.5,239.884-28.786,121.43-28.813,240.116-28.813S1485.1,512.8,1486.305,513.084s121.319,28.786,239.883,28.786,238.684-28.5,239.884-28.786l.233.973C1965.1,514.345,1844.875,542.87,1726.188,542.87Z" fill="#28482d"/>
        </g>
        <g id="Group_1122" data-name="Group 1122">
          <path id="Path_3631" data-name="Path 3631" d="M1726.188,533.782c-118.686,0-238.916-28.525-240.116-28.813s-121.319-28.786-239.884-28.786-238.683,28.5-239.883,28.786-121.43,28.813-240.117,28.813-238.916-28.525-240.116-28.813-121.319-28.786-239.884-28.786-238.683,28.5-239.883,28.786L46.072,504c1.2-.288,121.43-28.813,240.116-28.813S525.1,503.708,526.3,504s121.319,28.786,239.883,28.786,238.684-28.5,239.884-28.786,121.43-28.813,240.116-28.813S1485.1,503.708,1486.305,504s121.319,28.786,239.883,28.786,238.684-28.5,239.884-28.786l.233.973C1965.1,505.257,1844.875,533.782,1726.188,533.782Z" fill="#28482d"/>
        </g>
        <g id="Group_1123" data-name="Group 1123">
          <path id="Path_3632" data-name="Path 3632" d="M1726.188,579.224c-118.686,0-238.916-28.525-240.116-28.814s-121.319-28.787-239.884-28.787-238.683,28.5-239.883,28.787-121.43,28.814-240.117,28.814S527.272,550.7,526.072,550.41s-121.319-28.787-239.884-28.787S47.505,550.122,46.305,550.41l-.233-.972c1.2-.288,121.43-28.815,240.116-28.815S525.1,549.15,526.3,549.438s121.319,28.786,239.883,28.786,238.684-28.5,239.884-28.786,121.43-28.815,240.116-28.815,238.916,28.527,240.117,28.815,121.319,28.786,239.883,28.786,238.684-28.5,239.884-28.786l.233.972C1965.1,550.7,1844.875,579.224,1726.188,579.224Z" fill="#28482d"/>
        </g>
        <g id="Group_1124" data-name="Group 1124">
          <path id="Path_3633" data-name="Path 3633" d="M1726.188,615.576c-118.686,0-238.916-28.525-240.116-28.813s-121.319-28.786-239.884-28.786-238.683,28.5-239.883,28.786-121.43,28.813-240.117,28.813-238.916-28.525-240.116-28.813-121.319-28.786-239.884-28.786-238.683,28.5-239.883,28.786l-.233-.973c1.2-.288,121.43-28.813,240.116-28.813S525.1,585.5,526.3,585.79s121.319,28.786,239.883,28.786,238.684-28.5,239.884-28.786,121.43-28.813,240.116-28.813S1485.1,585.5,1486.305,585.79s121.319,28.786,239.883,28.786,238.684-28.5,239.884-28.786l.233.973C1965.1,587.051,1844.875,615.576,1726.188,615.576Z" fill="#28482d"/>
        </g>
        <g id="Group_1125" data-name="Group 1125">
          <path id="Path_3634" data-name="Path 3634" d="M1726.188,606.488c-118.686,0-238.916-28.525-240.116-28.813s-121.319-28.786-239.884-28.786-238.683,28.5-239.883,28.786-121.43,28.813-240.117,28.813-238.916-28.525-240.116-28.813-121.319-28.786-239.884-28.786-238.683,28.5-239.883,28.786l-.233-.973c1.2-.288,121.43-28.813,240.116-28.813S525.1,576.414,526.3,576.7s121.319,28.786,239.883,28.786,238.684-28.5,239.884-28.786,121.43-28.813,240.116-28.813S1485.1,576.414,1486.305,576.7s121.319,28.786,239.883,28.786,238.684-28.5,239.884-28.786l.233.973C1965.1,577.963,1844.875,606.488,1726.188,606.488Z" fill="#28482d"/>
        </g>
        <g id="Group_1126" data-name="Group 1126">
          <path id="Path_3635" data-name="Path 3635" d="M1726.188,624.665c-118.686,0-238.916-28.526-240.116-28.814s-121.319-28.786-239.884-28.786-238.683,28.5-239.883,28.786-121.43,28.814-240.117,28.814-238.916-28.526-240.116-28.814-121.319-28.786-239.884-28.786-238.683,28.5-239.883,28.786l-.233-.972c1.2-.289,121.43-28.814,240.116-28.814S525.1,594.59,526.3,594.879s121.319,28.786,239.883,28.786,238.684-28.5,239.884-28.786,121.43-28.814,240.116-28.814,238.916,28.525,240.117,28.814,121.319,28.786,239.883,28.786,238.684-28.5,239.884-28.786l.233.972C1965.1,596.139,1844.875,624.665,1726.188,624.665Z" fill="#28482d"/>
        </g>
        <g id="Group_1127" data-name="Group 1127">
          <path id="Path_3636" data-name="Path 3636" d="M1726.188,597.4c-118.686,0-238.916-28.526-240.116-28.814S1364.753,539.8,1246.188,539.8s-238.683,28.5-239.883,28.786S884.875,597.4,766.188,597.4s-238.916-28.526-240.116-28.814S404.753,539.8,286.188,539.8,47.505,568.3,46.305,568.586l-.233-.973c1.2-.288,121.43-28.813,240.116-28.813S525.1,567.325,526.3,567.613,647.624,596.4,766.188,596.4s238.684-28.5,239.884-28.787S1127.5,538.8,1246.188,538.8s238.916,28.525,240.117,28.813S1607.624,596.4,1726.188,596.4s238.684-28.5,239.884-28.787l.233.973C1965.1,568.874,1844.875,597.4,1726.188,597.4Z" fill="#28482d"/>
        </g>
        <g id="Group_1128" data-name="Group 1128">
          <path id="Path_3637" data-name="Path 3637" d="M1726.188,588.312c-118.686,0-238.916-28.526-240.116-28.814s-121.319-28.786-239.884-28.786S1007.505,559.21,1006.3,559.5s-121.43,28.814-240.117,28.814S527.272,559.786,526.072,559.5s-121.319-28.786-239.884-28.786S47.505,559.21,46.305,559.5l-.233-.973c1.2-.288,121.43-28.813,240.116-28.813S525.1,558.237,526.3,558.525s121.319,28.787,239.883,28.787,238.684-28.5,239.884-28.787,121.43-28.813,240.116-28.813,238.916,28.525,240.117,28.813,121.319,28.787,239.883,28.787,238.684-28.5,239.884-28.787l.233.973C1965.1,559.786,1844.875,588.312,1726.188,588.312Z" fill="#28482d"/>
        </g>
        <g id="Group_1129" data-name="Group 1129">
          <path id="Path_3638" data-name="Path 3638" d="M1726.188,633.753c-118.686,0-238.916-28.525-240.116-28.814s-121.319-28.786-239.884-28.786-238.683,28.5-239.883,28.786-121.43,28.814-240.117,28.814-238.916-28.525-240.116-28.814-121.319-28.786-239.884-28.786-238.683,28.5-239.883,28.786l-.233-.972c1.2-.288,121.43-28.814,240.116-28.814S525.1,603.679,526.3,603.967s121.319,28.786,239.883,28.786,238.684-28.5,239.884-28.786,121.43-28.814,240.116-28.814,238.916,28.526,240.117,28.814,121.319,28.786,239.883,28.786,238.684-28.5,239.884-28.786l.233.972C1965.1,605.228,1844.875,633.753,1726.188,633.753Z" fill="#28482d"/>
        </g>
        <g id="Group_1130" data-name="Group 1130">
          <path id="Path_3639" data-name="Path 3639" d="M1726.188,670.106c-118.686,0-238.916-28.525-240.116-28.814s-121.319-28.786-239.884-28.786S1007.505,641,1006.3,641.292s-121.43,28.814-240.117,28.814-238.916-28.525-240.116-28.814-121.319-28.786-239.884-28.786S47.505,641,46.305,641.292l-.233-.972c1.2-.288,121.43-28.814,240.116-28.814S525.1,640.032,526.3,640.32s121.319,28.786,239.883,28.786,238.684-28.5,239.884-28.786,121.43-28.814,240.116-28.814,238.916,28.526,240.117,28.814,121.319,28.786,239.883,28.786,238.684-28.5,239.884-28.786l.233.972C1965.1,641.581,1844.875,670.106,1726.188,670.106Z" fill="#28482d"/>
        </g>
        <g id="Group_1131" data-name="Group 1131">
          <path id="Path_3640" data-name="Path 3640" d="M1726.188,661.018c-118.686,0-238.916-28.526-240.116-28.814s-121.319-28.786-239.884-28.786-238.683,28.5-239.883,28.786-121.43,28.814-240.117,28.814S527.272,632.492,526.072,632.2s-121.319-28.786-239.884-28.786S47.505,631.916,46.305,632.2l-.233-.972c1.2-.289,121.43-28.814,240.116-28.814S525.1,630.943,526.3,631.232s121.319,28.786,239.883,28.786,238.684-28.5,239.884-28.786,121.43-28.814,240.116-28.814,238.916,28.525,240.117,28.814,121.319,28.786,239.883,28.786,238.684-28.5,239.884-28.786l.233.972C1965.1,632.492,1844.875,661.018,1726.188,661.018Z" fill="#28482d"/>
        </g>
        <g id="Group_1132" data-name="Group 1132">
          <path id="Path_3641" data-name="Path 3641" d="M1726.188,679.194c-118.686,0-238.916-28.525-240.116-28.813s-121.319-28.786-239.884-28.786-238.683,28.5-239.883,28.786-121.43,28.813-240.117,28.813-238.916-28.525-240.116-28.813-121.319-28.786-239.884-28.786-238.683,28.5-239.883,28.786l-.233-.973c1.2-.288,121.43-28.813,240.116-28.813S525.1,649.12,526.3,649.408s121.319,28.786,239.883,28.786,238.684-28.5,239.884-28.786,121.43-28.813,240.116-28.813,238.916,28.525,240.117,28.813,121.319,28.786,239.883,28.786,238.684-28.5,239.884-28.786l.233.973C1965.1,650.669,1844.875,679.194,1726.188,679.194Z" fill="#28482d"/>
        </g>
        <g id="Group_1133" data-name="Group 1133">
          <path id="Path_3642" data-name="Path 3642" d="M1726.188,651.929c-118.686,0-238.916-28.525-240.116-28.813s-121.319-28.786-239.884-28.786-238.683,28.5-239.883,28.786-121.43,28.813-240.117,28.813S527.272,623.4,526.072,623.116,404.753,594.33,286.188,594.33s-238.683,28.5-239.883,28.786l-.233-.973c1.2-.288,121.43-28.813,240.116-28.813S525.1,621.855,526.3,622.143s121.319,28.786,239.883,28.786,238.684-28.5,239.884-28.786,121.43-28.813,240.116-28.813,238.916,28.525,240.117,28.813,121.319,28.786,239.883,28.786,238.684-28.5,239.884-28.786l.233.973C1965.1,623.4,1844.875,651.929,1726.188,651.929Z" fill="#28482d"/>
        </g>
        <g id="Group_1134" data-name="Group 1134">
          <path id="Path_3643" data-name="Path 3643" d="M1726.188,642.841c-118.686,0-238.916-28.525-240.116-28.813s-121.319-28.786-239.884-28.786-238.683,28.5-239.883,28.786-121.43,28.813-240.117,28.813-238.916-28.525-240.116-28.813-121.319-28.786-239.884-28.786S47.505,613.74,46.305,614.028l-.233-.973c1.2-.288,121.43-28.813,240.116-28.813S525.1,612.767,526.3,613.055s121.319,28.786,239.883,28.786,238.684-28.5,239.884-28.786,121.43-28.813,240.116-28.813,238.916,28.525,240.117,28.813,121.319,28.786,239.883,28.786,238.684-28.5,239.884-28.786l.233.973C1965.1,614.316,1844.875,642.841,1726.188,642.841Z" fill="#28482d"/>
        </g>
        <g id="Group_1135" data-name="Group 1135">
          <path id="Path_3644" data-name="Path 3644" d="M1726.188,688.283c-118.686,0-238.916-28.525-240.116-28.814s-121.319-28.787-239.884-28.787-238.683,28.5-239.883,28.787-121.43,28.814-240.117,28.814-238.916-28.525-240.116-28.814-121.319-28.787-239.884-28.787-238.683,28.5-239.883,28.787l-.233-.972c1.2-.288,121.43-28.815,240.116-28.815S525.1,658.209,526.3,658.5s121.319,28.786,239.883,28.786,238.684-28.5,239.884-28.786,121.43-28.815,240.116-28.815S1485.1,658.209,1486.305,658.5s121.319,28.786,239.883,28.786,238.684-28.5,239.884-28.786l.233.972C1965.1,659.758,1844.875,688.283,1726.188,688.283Z" fill="#28482d"/>
        </g>
        <g id="Group_1136" data-name="Group 1136">
          <path id="Path_3645" data-name="Path 3645" d="M1726.188,724.636c-118.686,0-238.916-28.526-240.116-28.814s-121.319-28.786-239.884-28.786-238.683,28.5-239.883,28.786-121.43,28.814-240.117,28.814S527.272,696.11,526.072,695.822s-121.319-28.786-239.884-28.786-238.683,28.5-239.883,28.786l-.233-.972c1.2-.289,121.43-28.814,240.116-28.814S525.1,694.561,526.3,694.85s121.319,28.786,239.883,28.786,238.684-28.5,239.884-28.786,121.43-28.814,240.116-28.814,238.916,28.525,240.117,28.814,121.319,28.786,239.883,28.786,238.684-28.5,239.884-28.786l.233.972C1965.1,696.11,1844.875,724.636,1726.188,724.636Z" fill="#28482d"/>
        </g>
        <g id="Group_1137" data-name="Group 1137">
          <path id="Path_3646" data-name="Path 3646" d="M1726.188,715.547c-118.686,0-238.916-28.525-240.116-28.813s-121.319-28.787-239.884-28.787-238.683,28.5-239.883,28.787-121.43,28.813-240.117,28.813-238.916-28.525-240.116-28.813-121.319-28.787-239.884-28.787-238.683,28.5-239.883,28.787l-.233-.973c1.2-.288,121.43-28.814,240.116-28.814S525.1,685.473,526.3,685.761s121.319,28.786,239.883,28.786,238.684-28.5,239.884-28.786,121.43-28.814,240.116-28.814,238.916,28.526,240.117,28.814,121.319,28.786,239.883,28.786,238.684-28.5,239.884-28.786l.233.973C1965.1,687.022,1844.875,715.547,1726.188,715.547Z" fill="#28482d"/>
        </g>
        <g id="Group_1138" data-name="Group 1138">
          <path id="Path_3647" data-name="Path 3647" d="M1726.188,733.724c-118.686,0-238.916-28.525-240.116-28.814s-121.319-28.786-239.884-28.786-238.683,28.5-239.883,28.786-121.43,28.814-240.117,28.814S527.272,705.2,526.072,704.91s-121.319-28.786-239.884-28.786S47.505,704.622,46.305,704.91l-.233-.972c1.2-.288,121.43-28.814,240.116-28.814S525.1,703.65,526.3,703.938s121.319,28.786,239.883,28.786,238.684-28.5,239.884-28.786,121.43-28.814,240.116-28.814,238.916,28.526,240.117,28.814,121.319,28.786,239.883,28.786,238.684-28.5,239.884-28.786l.233.972C1965.1,705.2,1844.875,733.724,1726.188,733.724Z" fill="#28482d"/>
        </g>
        <g id="Group_1139" data-name="Group 1139">
          <path id="Path_3648" data-name="Path 3648" d="M1726.188,706.459c-118.686,0-238.916-28.525-240.116-28.814s-121.319-28.786-239.884-28.786-238.683,28.5-239.883,28.786-121.43,28.814-240.117,28.814-238.916-28.525-240.116-28.814-121.319-28.786-239.884-28.786-238.683,28.5-239.883,28.786l-.233-.972c1.2-.288,121.43-28.814,240.116-28.814S525.1,676.385,526.3,676.673s121.319,28.786,239.883,28.786,238.684-28.5,239.884-28.786,121.43-28.814,240.116-28.814,238.916,28.526,240.117,28.814,121.319,28.786,239.883,28.786,238.684-28.5,239.884-28.786l.233.972C1965.1,677.934,1844.875,706.459,1726.188,706.459Z" fill="#28482d"/>
        </g>
        <g id="Group_1140" data-name="Group 1140">
          <path id="Path_3649" data-name="Path 3649" d="M1726.188,697.371c-118.686,0-238.916-28.526-240.116-28.814s-121.319-28.786-239.884-28.786-238.683,28.5-239.883,28.786-121.43,28.814-240.117,28.814-238.916-28.526-240.116-28.814-121.319-28.786-239.884-28.786-238.683,28.5-239.883,28.786l-.233-.973c1.2-.288,121.43-28.813,240.116-28.813S525.1,667.3,526.3,667.584s121.319,28.787,239.883,28.787,238.684-28.5,239.884-28.787,121.43-28.813,240.116-28.813S1485.1,667.3,1486.305,667.584s121.319,28.787,239.883,28.787,238.684-28.5,239.884-28.787l.233.973C1965.1,668.845,1844.875,697.371,1726.188,697.371Z" fill="#28482d"/>
        </g>
        <g id="Group_1141" data-name="Group 1141">
          <path id="Path_3650" data-name="Path 3650" d="M1726.188,742.812c-118.686,0-238.916-28.526-240.116-28.814s-121.319-28.786-239.884-28.786S1007.505,713.71,1006.3,714s-121.43,28.814-240.117,28.814S527.272,714.286,526.072,714s-121.319-28.786-239.884-28.786S47.505,713.71,46.305,714l-.233-.972c1.2-.289,121.43-28.814,240.116-28.814S525.1,712.737,526.3,713.026s121.319,28.786,239.883,28.786,238.684-28.5,239.884-28.786,121.43-28.814,240.116-28.814,238.916,28.525,240.117,28.814,121.319,28.786,239.883,28.786,238.684-28.5,239.884-28.786l.233.972C1965.1,714.286,1844.875,742.812,1726.188,742.812Z" fill="#28482d"/>
        </g>
        <g id="Group_1142" data-name="Group 1142">
          <path id="Path_3651" data-name="Path 3651" d="M1726.188,779.165c-118.686,0-238.916-28.525-240.116-28.813s-121.319-28.787-239.884-28.787-238.683,28.5-239.883,28.787-121.43,28.813-240.117,28.813S527.272,750.64,526.072,750.352s-121.319-28.787-239.884-28.787-238.683,28.5-239.883,28.787l-.233-.973c1.2-.288,121.43-28.814,240.116-28.814S525.1,749.091,526.3,749.379s121.319,28.786,239.883,28.786,238.684-28.5,239.884-28.786,121.43-28.814,240.116-28.814,238.916,28.526,240.117,28.814,121.319,28.786,239.883,28.786,238.684-28.5,239.884-28.786l.233.973C1965.1,750.64,1844.875,779.165,1726.188,779.165Z" fill="#28482d"/>
        </g>
        <g id="Group_1143" data-name="Group 1143">
          <path id="Path_3652" data-name="Path 3652" d="M1726.188,770.077c-118.686,0-238.916-28.526-240.116-28.814s-121.319-28.786-239.884-28.786-238.683,28.5-239.883,28.786-121.43,28.814-240.117,28.814-238.916-28.526-240.116-28.814-121.319-28.786-239.884-28.786-238.683,28.5-239.883,28.786l-.233-.972c1.2-.289,121.43-28.814,240.116-28.814S525.1,740,526.3,740.291s121.319,28.786,239.883,28.786,238.684-28.5,239.884-28.786,121.43-28.814,240.116-28.814S1485.1,740,1486.305,740.291s121.319,28.786,239.883,28.786,238.684-28.5,239.884-28.786l.233.972C1965.1,741.551,1844.875,770.077,1726.188,770.077Z" fill="#28482d"/>
        </g>
        <g id="Group_1144" data-name="Group 1144">
          <path id="Path_3653" data-name="Path 3653" d="M1726.188,788.253c-118.686,0-238.916-28.525-240.116-28.813s-121.319-28.787-239.884-28.787-238.683,28.5-239.883,28.787-121.43,28.813-240.117,28.813S527.272,759.728,526.072,759.44s-121.319-28.787-239.884-28.787S47.505,759.152,46.305,759.44l-.233-.973c1.2-.288,121.43-28.814,240.116-28.814S525.1,758.179,526.3,758.467s121.319,28.786,239.883,28.786,238.684-28.5,239.884-28.786,121.43-28.814,240.116-28.814,238.916,28.526,240.117,28.814,121.319,28.786,239.883,28.786,238.684-28.5,239.884-28.786l.233.973C1965.1,759.728,1844.875,788.253,1726.188,788.253Z" fill="#28482d"/>
        </g>
        <g id="Group_1145" data-name="Group 1145">
          <path id="Path_3654" data-name="Path 3654" d="M1726.188,760.988c-118.686,0-238.916-28.525-240.116-28.813s-121.319-28.786-239.884-28.786-238.683,28.5-239.883,28.786-121.43,28.813-240.117,28.813-238.916-28.525-240.116-28.813-121.319-28.786-239.884-28.786-238.683,28.5-239.883,28.786l-.233-.973c1.2-.288,121.43-28.813,240.116-28.813S525.1,730.914,526.3,731.2s121.319,28.786,239.883,28.786,238.684-28.5,239.884-28.786,121.43-28.813,240.116-28.813S1485.1,730.914,1486.305,731.2s121.319,28.786,239.883,28.786,238.684-28.5,239.884-28.786l.233.973C1965.1,732.463,1844.875,760.988,1726.188,760.988Z" fill="#28482d"/>
        </g>
        <g id="Group_1146" data-name="Group 1146">
          <path id="Path_3655" data-name="Path 3655" d="M1726.188,751.9c-118.686,0-238.916-28.525-240.116-28.814S1364.753,694.3,1246.188,694.3s-238.683,28.5-239.883,28.786S884.875,751.9,766.188,751.9s-238.916-28.525-240.116-28.814S404.753,694.3,286.188,694.3,47.505,722.8,46.305,723.086l-.233-.972c1.2-.288,121.43-28.814,240.116-28.814S525.1,721.826,526.3,722.114,647.624,750.9,766.188,750.9s238.684-28.5,239.884-28.786S1127.5,693.3,1246.188,693.3s238.916,28.526,240.117,28.814S1607.624,750.9,1726.188,750.9s238.684-28.5,239.884-28.786l.233.972C1965.1,723.375,1844.875,751.9,1726.188,751.9Z" fill="#28482d"/>
        </g>
        <g id="Group_1147" data-name="Group 1147">
          <path id="Path_3656" data-name="Path 3656" d="M1726.188,797.342c-118.686,0-238.916-28.526-240.116-28.814s-121.319-28.786-239.884-28.786-238.683,28.5-239.883,28.786-121.43,28.814-240.117,28.814-238.916-28.526-240.116-28.814-121.319-28.786-239.884-28.786S47.505,768.24,46.305,768.528l-.233-.972c1.2-.289,121.43-28.814,240.116-28.814S525.1,767.267,526.3,767.556s121.319,28.786,239.883,28.786,238.684-28.5,239.884-28.786,121.43-28.814,240.116-28.814,238.916,28.525,240.117,28.814,121.319,28.786,239.883,28.786,238.684-28.5,239.884-28.786l.233.972C1965.1,768.816,1844.875,797.342,1726.188,797.342Z" fill="#28482d"/>
        </g>
        <g id="Group_1148" data-name="Group 1148">
          <path id="Path_3657" data-name="Path 3657" d="M1726.188,833.694c-118.686,0-238.916-28.525-240.116-28.813s-121.319-28.786-239.884-28.786-238.683,28.5-239.883,28.786-121.43,28.813-240.117,28.813-238.916-28.525-240.116-28.813-121.319-28.786-239.884-28.786-238.683,28.5-239.883,28.786l-.233-.973c1.2-.288,121.43-28.813,240.116-28.813S525.1,803.62,526.3,803.908s121.319,28.786,239.883,28.786,238.684-28.5,239.884-28.786,121.43-28.813,240.116-28.813,238.916,28.525,240.117,28.813,121.319,28.786,239.883,28.786,238.684-28.5,239.884-28.786l.233.973C1965.1,805.169,1844.875,833.694,1726.188,833.694Z" fill="#28482d"/>
        </g>
        <g id="Group_1149" data-name="Group 1149">
          <path id="Path_3658" data-name="Path 3658" d="M1726.188,824.606c-118.686,0-238.916-28.525-240.116-28.813s-121.319-28.786-239.884-28.786-238.683,28.5-239.883,28.786-121.43,28.813-240.117,28.813-238.916-28.525-240.116-28.813-121.319-28.786-239.884-28.786-238.683,28.5-239.883,28.786l-.233-.973c1.2-.288,121.43-28.813,240.116-28.813S525.1,794.532,526.3,794.82s121.319,28.786,239.883,28.786,238.684-28.5,239.884-28.786,121.43-28.813,240.116-28.813,238.916,28.525,240.117,28.813,121.319,28.786,239.883,28.786,238.684-28.5,239.884-28.786l.233.973C1965.1,796.081,1844.875,824.606,1726.188,824.606Z" fill="#28482d"/>
        </g>
        <g id="Group_1150" data-name="Group 1150">
          <path id="Path_3659" data-name="Path 3659" d="M1726.188,842.783c-118.686,0-238.916-28.525-240.116-28.814s-121.319-28.786-239.884-28.786-238.683,28.5-239.883,28.786-121.43,28.814-240.117,28.814-238.916-28.525-240.116-28.814-121.319-28.786-239.884-28.786-238.683,28.5-239.883,28.786L46.072,813c1.2-.288,121.43-28.814,240.116-28.814S525.1,812.709,526.3,813s121.319,28.786,239.883,28.786,238.684-28.5,239.884-28.786,121.43-28.814,240.116-28.814S1485.1,812.709,1486.305,813s121.319,28.786,239.883,28.786,238.684-28.5,239.884-28.786l.233.972C1965.1,814.258,1844.875,842.783,1726.188,842.783Z" fill="#28482d"/>
        </g>
        <g id="Group_1151" data-name="Group 1151">
          <path id="Path_3660" data-name="Path 3660" d="M1726.188,815.518c-118.686,0-238.916-28.526-240.116-28.814s-121.319-28.786-239.884-28.786-238.683,28.5-239.883,28.786-121.43,28.814-240.117,28.814S527.272,786.992,526.072,786.7s-121.319-28.786-239.884-28.786S47.505,786.416,46.305,786.7l-.233-.972c1.2-.289,121.43-28.814,240.116-28.814S525.1,785.443,526.3,785.732s121.319,28.786,239.883,28.786,238.684-28.5,239.884-28.786,121.43-28.814,240.116-28.814,238.916,28.525,240.117,28.814,121.319,28.786,239.883,28.786,238.684-28.5,239.884-28.786l.233.972C1965.1,786.992,1844.875,815.518,1726.188,815.518Z" fill="#28482d"/>
        </g>
        <g id="Group_1152" data-name="Group 1152">
          <path id="Path_3661" data-name="Path 3661" d="M1726.188,806.43c-118.686,0-238.916-28.526-240.116-28.814s-121.319-28.786-239.884-28.786-238.683,28.5-239.883,28.786S884.875,806.43,766.188,806.43,527.272,777.9,526.072,777.616,404.753,748.83,286.188,748.83s-238.683,28.5-239.883,28.786l-.233-.973c1.2-.288,121.43-28.813,240.116-28.813S525.1,776.355,526.3,776.643,647.624,805.43,766.188,805.43s238.684-28.5,239.884-28.787,121.43-28.813,240.116-28.813,238.916,28.525,240.117,28.813,121.319,28.787,239.883,28.787,238.684-28.5,239.884-28.787l.233.973C1965.1,777.9,1844.875,806.43,1726.188,806.43Z" fill="#28482d"/>
        </g>
        <g id="Group_1153" data-name="Group 1153">
          <path id="Path_3662" data-name="Path 3662" d="M1726.188,851.871c-118.686,0-238.916-28.525-240.116-28.813s-121.319-28.787-239.884-28.787-238.683,28.5-239.883,28.787-121.43,28.813-240.117,28.813-238.916-28.525-240.116-28.813-121.319-28.787-239.884-28.787S47.505,822.77,46.305,823.058l-.233-.973c1.2-.288,121.43-28.814,240.116-28.814S525.1,821.8,526.3,822.085s121.319,28.786,239.883,28.786,238.684-28.5,239.884-28.786,121.43-28.814,240.116-28.814S1485.1,821.8,1486.305,822.085s121.319,28.786,239.883,28.786,238.684-28.5,239.884-28.786l.233.973C1965.1,823.346,1844.875,851.871,1726.188,851.871Z" fill="#28482d"/>
        </g>
        <g id="Group_1154" data-name="Group 1154">
          <path id="Path_3663" data-name="Path 3663" d="M1726.188,888.224c-118.686,0-238.916-28.525-240.116-28.814s-121.319-28.786-239.884-28.786-238.683,28.5-239.883,28.786-121.43,28.814-240.117,28.814S527.272,859.7,526.072,859.41s-121.319-28.786-239.884-28.786S47.505,859.122,46.305,859.41l-.233-.972c1.2-.288,121.43-28.814,240.116-28.814S525.1,858.15,526.3,858.438s121.319,28.786,239.883,28.786,238.684-28.5,239.884-28.786,121.43-28.814,240.116-28.814,238.916,28.526,240.117,28.814,121.319,28.786,239.883,28.786,238.684-28.5,239.884-28.786l.233.972C1965.1,859.7,1844.875,888.224,1726.188,888.224Z" fill="#28482d"/>
        </g>
        <g id="Group_1155" data-name="Group 1155">
          <path id="Path_3664" data-name="Path 3664" d="M1726.188,879.136c-118.686,0-238.916-28.526-240.116-28.814s-121.319-28.786-239.884-28.786-238.683,28.5-239.883,28.786-121.43,28.814-240.117,28.814S527.272,850.61,526.072,850.322s-121.319-28.786-239.884-28.786-238.683,28.5-239.883,28.786l-.233-.973c1.2-.288,121.43-28.813,240.116-28.813S525.1,849.061,526.3,849.349s121.319,28.787,239.883,28.787,238.684-28.5,239.884-28.787,121.43-28.813,240.116-28.813,238.916,28.525,240.117,28.813,121.319,28.787,239.883,28.787,238.684-28.5,239.884-28.787l.233.973C1965.1,850.61,1844.875,879.136,1726.188,879.136Z" fill="#28482d"/>
        </g>
        <g id="Group_1156" data-name="Group 1156">
          <path id="Path_3665" data-name="Path 3665" d="M1726.188,897.312c-118.686,0-238.916-28.525-240.116-28.814s-121.319-28.786-239.884-28.786S1007.505,868.21,1006.3,868.5s-121.43,28.814-240.117,28.814S527.272,868.787,526.072,868.5s-121.319-28.786-239.884-28.786S47.505,868.21,46.305,868.5l-.233-.972c1.2-.288,121.43-28.814,240.116-28.814S525.1,867.238,526.3,867.526s121.319,28.786,239.883,28.786,238.684-28.5,239.884-28.786,121.43-28.814,240.116-28.814,238.916,28.526,240.117,28.814,121.319,28.786,239.883,28.786,238.684-28.5,239.884-28.786l.233.972C1965.1,868.787,1844.875,897.312,1726.188,897.312Z" fill="#28482d"/>
        </g>
        <g id="Group_1157" data-name="Group 1157">
          <path id="Path_3666" data-name="Path 3666" d="M1726.188,870.048c-118.686,0-238.916-28.526-240.116-28.814s-121.319-28.786-239.884-28.786-238.683,28.5-239.883,28.786-121.43,28.814-240.117,28.814-238.916-28.526-240.116-28.814-121.319-28.786-239.884-28.786-238.683,28.5-239.883,28.786l-.233-.973c1.2-.288,121.43-28.813,240.116-28.813S525.1,839.973,526.3,840.261s121.319,28.787,239.883,28.787,238.684-28.5,239.884-28.787,121.43-28.813,240.116-28.813,238.916,28.525,240.117,28.813,121.319,28.787,239.883,28.787,238.684-28.5,239.884-28.787l.233.973C1965.1,841.522,1844.875,870.048,1726.188,870.048Z" fill="#28482d"/>
        </g>
        <g id="Group_1158" data-name="Group 1158">
          <path id="Path_3667" data-name="Path 3667" d="M1726.188,860.959c-118.686,0-238.916-28.525-240.116-28.814s-121.319-28.786-239.884-28.786-238.683,28.5-239.883,28.786-121.43,28.814-240.117,28.814-238.916-28.525-240.116-28.814-121.319-28.786-239.884-28.786-238.683,28.5-239.883,28.786l-.233-.972c1.2-.288,121.43-28.814,240.116-28.814S525.1,830.885,526.3,831.173s121.319,28.786,239.883,28.786,238.684-28.5,239.884-28.786,121.43-28.814,240.116-28.814,238.916,28.526,240.117,28.814,121.319,28.786,239.883,28.786,238.684-28.5,239.884-28.786l.233.972C1965.1,832.434,1844.875,860.959,1726.188,860.959Z" fill="#28482d"/>
        </g>
        <g id="Group_1159" data-name="Group 1159">
          <path id="Path_3668" data-name="Path 3668" d="M1726.188,906.4c-118.686,0-238.916-28.526-240.116-28.814S1364.753,848.8,1246.188,848.8s-238.683,28.5-239.883,28.787S884.875,906.4,766.188,906.4s-238.916-28.526-240.116-28.814S404.753,848.8,286.188,848.8,47.505,877.3,46.305,877.587l-.233-.973c1.2-.288,121.43-28.814,240.116-28.814S525.1,876.326,526.3,876.614,647.624,905.4,766.188,905.4s238.684-28.5,239.884-28.787S1127.5,847.8,1246.188,847.8s238.916,28.526,240.117,28.814S1607.624,905.4,1726.188,905.4s238.684-28.5,239.884-28.787l.233.973C1965.1,877.875,1844.875,906.4,1726.188,906.4Z" fill="#28482d"/>
        </g>
        <g id="Group_1160" data-name="Group 1160">
          <path id="Path_3669" data-name="Path 3669" d="M1726.188,942.753c-118.686,0-238.916-28.525-240.116-28.813s-121.319-28.786-239.884-28.786-238.683,28.5-239.883,28.786-121.43,28.813-240.117,28.813S527.272,914.228,526.072,913.94s-121.319-28.786-239.884-28.786S47.505,913.652,46.305,913.94l-.233-.973c1.2-.288,121.43-28.813,240.116-28.813S525.1,912.679,526.3,912.967s121.319,28.786,239.883,28.786,238.684-28.5,239.884-28.786,121.43-28.813,240.116-28.813,238.916,28.525,240.117,28.813,121.319,28.786,239.883,28.786,238.684-28.5,239.884-28.786l.233.973C1965.1,914.228,1844.875,942.753,1726.188,942.753Z" fill="#28482d"/>
        </g>
        <g id="Group_1161" data-name="Group 1161">
          <path id="Path_3670" data-name="Path 3670" d="M1726.188,933.665c-118.686,0-238.916-28.525-240.116-28.813s-121.319-28.786-239.884-28.786-238.683,28.5-239.883,28.786-121.43,28.813-240.117,28.813S527.272,905.14,526.072,904.852s-121.319-28.786-239.884-28.786-238.683,28.5-239.883,28.786l-.233-.973c1.2-.288,121.43-28.813,240.116-28.813S525.1,903.591,526.3,903.879s121.319,28.786,239.883,28.786,238.684-28.5,239.884-28.786,121.43-28.813,240.116-28.813,238.916,28.525,240.117,28.813,121.319,28.786,239.883,28.786,238.684-28.5,239.884-28.786l.233.973C1965.1,905.14,1844.875,933.665,1726.188,933.665Z" fill="#28482d"/>
        </g>
        <g id="Group_1162" data-name="Group 1162">
          <path id="Path_3671" data-name="Path 3671" d="M1726.188,951.842c-118.686,0-238.916-28.526-240.116-28.814s-121.319-28.786-239.884-28.786-238.683,28.5-239.883,28.786-121.43,28.814-240.117,28.814-238.916-28.526-240.116-28.814-121.319-28.786-239.884-28.786S47.505,922.74,46.305,923.028l-.233-.972c1.2-.289,121.43-28.814,240.116-28.814S525.1,921.767,526.3,922.056s121.319,28.786,239.883,28.786,238.684-28.5,239.884-28.786,121.43-28.814,240.116-28.814,238.916,28.525,240.117,28.814,121.319,28.786,239.883,28.786,238.684-28.5,239.884-28.786l.233.972C1965.1,923.316,1844.875,951.842,1726.188,951.842Z" fill="#28482d"/>
        </g>
        <g id="Group_1163" data-name="Group 1163">
          <path id="Path_3672" data-name="Path 3672" d="M1726.188,924.577c-118.686,0-238.916-28.525-240.116-28.814s-121.319-28.786-239.884-28.786-238.683,28.5-239.883,28.786-121.43,28.814-240.117,28.814-238.916-28.525-240.116-28.814-121.319-28.786-239.884-28.786-238.683,28.5-239.883,28.786l-.233-.972c1.2-.288,121.43-28.814,240.116-28.814S525.1,894.5,526.3,894.791s121.319,28.786,239.883,28.786,238.684-28.5,239.884-28.786,121.43-28.814,240.116-28.814S1485.1,894.5,1486.305,894.791s121.319,28.786,239.883,28.786,238.684-28.5,239.884-28.786l.233.972C1965.1,896.052,1844.875,924.577,1726.188,924.577Z" fill="#28482d"/>
        </g>
        <g id="Group_1164" data-name="Group 1164">
          <path id="Path_3673" data-name="Path 3673" d="M1726.188,915.489c-118.686,0-238.916-28.526-240.116-28.814s-121.319-28.786-239.884-28.786-238.683,28.5-239.883,28.786-121.43,28.814-240.117,28.814-238.916-28.526-240.116-28.814-121.319-28.786-239.884-28.786-238.683,28.5-239.883,28.786l-.233-.972c1.2-.289,121.43-28.814,240.116-28.814S525.1,885.414,526.3,885.7s121.319,28.786,239.883,28.786,238.684-28.5,239.884-28.786,121.43-28.814,240.116-28.814S1485.1,885.414,1486.305,885.7s121.319,28.786,239.883,28.786,238.684-28.5,239.884-28.786l.233.972C1965.1,886.963,1844.875,915.489,1726.188,915.489Z" fill="#28482d"/>
        </g>
        <g id="Group_1165" data-name="Group 1165">
          <path id="Path_3674" data-name="Path 3674" d="M1726.188,960.93c-118.686,0-238.916-28.525-240.116-28.814s-121.319-28.786-239.884-28.786-238.683,28.5-239.883,28.786S884.875,960.93,766.188,960.93s-238.916-28.525-240.116-28.814S404.753,903.33,286.188,903.33s-238.683,28.5-239.883,28.786l-.233-.972c1.2-.288,121.43-28.814,240.116-28.814S525.1,930.856,526.3,931.144,647.624,959.93,766.188,959.93s238.684-28.5,239.884-28.786,121.43-28.814,240.116-28.814,238.916,28.526,240.117,28.814,121.319,28.786,239.883,28.786,238.684-28.5,239.884-28.786l.233.972C1965.1,932.405,1844.875,960.93,1726.188,960.93Z" fill="#28482d"/>
        </g>
        <g id="Group_1166" data-name="Group 1166">
          <path id="Path_3675" data-name="Path 3675" d="M1726.188,997.283c-118.686,0-238.916-28.525-240.116-28.813s-121.319-28.787-239.884-28.787-238.683,28.5-239.883,28.787-121.43,28.813-240.117,28.813S527.272,968.758,526.072,968.47s-121.319-28.787-239.884-28.787S47.505,968.182,46.305,968.47l-.233-.973c1.2-.288,121.43-28.814,240.116-28.814S525.1,967.209,526.3,967.5s121.319,28.786,239.883,28.786,238.684-28.5,239.884-28.786,121.43-28.814,240.116-28.814S1485.1,967.209,1486.305,967.5s121.319,28.786,239.883,28.786,238.684-28.5,239.884-28.786l.233.973C1965.1,968.758,1844.875,997.283,1726.188,997.283Z" fill="#28482d"/>
        </g>
        <g id="Group_1167" data-name="Group 1167">
          <path id="Path_3676" data-name="Path 3676" d="M1726.188,988.2c-118.686,0-238.916-28.526-240.116-28.814s-121.319-28.786-239.884-28.786-238.683,28.5-239.883,28.786S884.875,988.2,766.188,988.2s-238.916-28.526-240.116-28.814-121.319-28.786-239.884-28.786-238.683,28.5-239.883,28.786l-.233-.972c1.2-.289,121.43-28.814,240.116-28.814S525.1,958.12,526.3,958.409,647.624,987.2,766.188,987.2s238.684-28.5,239.884-28.786,121.43-28.814,240.116-28.814,238.916,28.525,240.117,28.814S1607.624,987.2,1726.188,987.2s238.684-28.5,239.884-28.786l.233.972C1965.1,959.669,1844.875,988.2,1726.188,988.2Z" fill="#28482d"/>
        </g>
        <g id="Group_1168" data-name="Group 1168">
          <path id="Path_3677" data-name="Path 3677" d="M1726.188,1006.372c-118.686,0-238.916-28.526-240.116-28.814s-121.319-28.787-239.884-28.787-238.683,28.5-239.883,28.787-121.43,28.814-240.117,28.814-238.916-28.526-240.116-28.814-121.319-28.787-239.884-28.787S47.505,977.27,46.305,977.558l-.233-.973c1.2-.288,121.43-28.814,240.116-28.814S525.1,976.3,526.3,976.585s121.319,28.787,239.883,28.787,238.684-28.5,239.884-28.787,121.43-28.814,240.116-28.814S1485.1,976.3,1486.305,976.585s121.319,28.787,239.883,28.787,238.684-28.5,239.884-28.787l.233.973C1965.1,977.846,1844.875,1006.372,1726.188,1006.372Z" fill="#28482d"/>
        </g>
        <g id="Group_1169" data-name="Group 1169">
          <path id="Path_3678" data-name="Path 3678" d="M1726.188,979.106c-118.686,0-238.916-28.525-240.116-28.813s-121.319-28.786-239.884-28.786-238.683,28.5-239.883,28.786-121.43,28.813-240.117,28.813-238.916-28.525-240.116-28.813-121.319-28.786-239.884-28.786-238.683,28.5-239.883,28.786l-.233-.973c1.2-.288,121.43-28.813,240.116-28.813S525.1,949.032,526.3,949.32s121.319,28.786,239.883,28.786,238.684-28.5,239.884-28.786,121.43-28.813,240.116-28.813,238.916,28.525,240.117,28.813,121.319,28.786,239.883,28.786,238.684-28.5,239.884-28.786l.233.973C1965.1,950.581,1844.875,979.106,1726.188,979.106Z" fill="#28482d"/>
        </g>
        <g id="Group_1170" data-name="Group 1170">
          <path id="Path_3679" data-name="Path 3679" d="M1726.188,970.018c-118.686,0-238.916-28.525-240.116-28.813s-121.319-28.786-239.884-28.786-238.683,28.5-239.883,28.786-121.43,28.813-240.117,28.813-238.916-28.525-240.116-28.813-121.319-28.786-239.884-28.786-238.683,28.5-239.883,28.786l-.233-.973c1.2-.288,121.43-28.813,240.116-28.813S525.1,939.944,526.3,940.232s121.319,28.786,239.883,28.786,238.684-28.5,239.884-28.786,121.43-28.813,240.116-28.813,238.916,28.525,240.117,28.813,121.319,28.786,239.883,28.786,238.684-28.5,239.884-28.786l.233.973C1965.1,941.493,1844.875,970.018,1726.188,970.018Z" fill="#28482d"/>
        </g>
        <g id="Group_1171" data-name="Group 1171">
          <path id="Path_3680" data-name="Path 3680" d="M1726.188,1015.46c-118.686,0-238.916-28.526-240.116-28.814s-121.319-28.787-239.884-28.787-238.683,28.5-239.883,28.787-121.43,28.814-240.117,28.814-238.916-28.526-240.116-28.814-121.319-28.787-239.884-28.787-238.683,28.5-239.883,28.787l-.233-.972c1.2-.288,121.43-28.815,240.116-28.815S525.1,985.386,526.3,985.674s121.319,28.786,239.883,28.786,238.684-28.5,239.884-28.786,121.43-28.815,240.116-28.815,238.916,28.527,240.117,28.815,121.319,28.786,239.883,28.786,238.684-28.5,239.884-28.786l.233.972C1965.1,986.934,1844.875,1015.46,1726.188,1015.46Z" fill="#28482d"/>
        </g>
        <g id="Group_1172" data-name="Group 1172">
          <path id="Path_3681" data-name="Path 3681" d="M1726.188,1051.812c-118.686,0-238.916-28.525-240.116-28.813s-121.319-28.786-239.884-28.786-238.683,28.5-239.883,28.786-121.43,28.813-240.117,28.813S527.272,1023.287,526.072,1023s-121.319-28.786-239.884-28.786S47.505,1022.711,46.305,1023l-.233-.973c1.2-.288,121.43-28.813,240.116-28.813S525.1,1021.738,526.3,1022.026s121.319,28.786,239.883,28.786,238.684-28.5,239.884-28.786,121.43-28.813,240.116-28.813,238.916,28.525,240.117,28.813,121.319,28.786,239.883,28.786,238.684-28.5,239.884-28.786l.233.973C1965.1,1023.287,1844.875,1051.812,1726.188,1051.812Z" fill="#28482d"/>
        </g>
        <g id="Group_1173" data-name="Group 1173">
          <path id="Path_3682" data-name="Path 3682" d="M1726.188,1042.724c-118.686,0-238.916-28.525-240.116-28.813s-121.319-28.786-239.884-28.786-238.683,28.5-239.883,28.786-121.43,28.813-240.117,28.813-238.916-28.525-240.116-28.813-121.319-28.786-239.884-28.786-238.683,28.5-239.883,28.786l-.233-.973c1.2-.288,121.43-28.813,240.116-28.813S525.1,1012.65,526.3,1012.938s121.319,28.786,239.883,28.786,238.684-28.5,239.884-28.786,121.43-28.813,240.116-28.813,238.916,28.525,240.117,28.813,121.319,28.786,239.883,28.786,238.684-28.5,239.884-28.786l.233.973C1965.1,1014.2,1844.875,1042.724,1726.188,1042.724Z" fill="#28482d"/>
        </g>
        <g id="Group_1174" data-name="Group 1174">
          <path id="Path_3683" data-name="Path 3683" d="M1726.188,1060.9c-118.686,0-238.916-28.526-240.116-28.814s-121.319-28.786-239.884-28.786-238.683,28.5-239.883,28.786S884.875,1060.9,766.188,1060.9s-238.916-28.526-240.116-28.814S404.753,1003.3,286.188,1003.3s-238.683,28.5-239.883,28.786l-.233-.972c1.2-.289,121.43-28.814,240.116-28.814S525.1,1030.826,526.3,1031.115,647.624,1059.9,766.188,1059.9s238.684-28.5,239.884-28.786,121.43-28.814,240.116-28.814,238.916,28.525,240.117,28.814,121.319,28.786,239.883,28.786,238.684-28.5,239.884-28.786l.233.972C1965.1,1032.375,1844.875,1060.9,1726.188,1060.9Z" fill="#28482d"/>
        </g>
        <g id="Group_1175" data-name="Group 1175">
          <path id="Path_3684" data-name="Path 3684" d="M1726.188,1033.636c-118.686,0-238.916-28.526-240.116-28.814s-121.319-28.786-239.884-28.786-238.683,28.5-239.883,28.786-121.43,28.814-240.117,28.814-238.916-28.526-240.116-28.814-121.319-28.786-239.884-28.786-238.683,28.5-239.883,28.786l-.233-.973c1.2-.288,121.43-28.813,240.116-28.813S525.1,1003.561,526.3,1003.849s121.319,28.787,239.883,28.787,238.684-28.5,239.884-28.787,121.43-28.813,240.116-28.813,238.916,28.525,240.117,28.813,121.319,28.787,239.883,28.787,238.684-28.5,239.884-28.787l.233.973C1965.1,1005.11,1844.875,1033.636,1726.188,1033.636Z" fill="#28482d"/>
        </g>
        <g id="Group_1176" data-name="Group 1176">
          <path id="Path_3685" data-name="Path 3685" d="M1726.188,1024.548c-118.686,0-238.916-28.526-240.116-28.814s-121.319-28.786-239.884-28.786-238.683,28.5-239.883,28.786-121.43,28.814-240.117,28.814-238.916-28.526-240.116-28.814-121.319-28.786-239.884-28.786-238.683,28.5-239.883,28.786l-.233-.973c1.2-.288,121.43-28.813,240.116-28.813S525.1,994.473,526.3,994.761s121.319,28.787,239.883,28.787,238.684-28.5,239.884-28.787,121.43-28.813,240.116-28.813,238.916,28.525,240.117,28.813,121.319,28.787,239.883,28.787,238.684-28.5,239.884-28.787l.233.973C1965.1,996.022,1844.875,1024.548,1726.188,1024.548Z" fill="#28482d"/>
        </g>
        <g id="Group_1177" data-name="Group 1177">
          <path id="Path_3686" data-name="Path 3686" d="M1726.188,1069.989c-118.686,0-238.916-28.526-240.116-28.814s-121.319-28.786-239.884-28.786-238.683,28.5-239.883,28.786-121.43,28.814-240.117,28.814-238.916-28.526-240.116-28.814-121.319-28.786-239.884-28.786-238.683,28.5-239.883,28.786l-.233-.972c1.2-.288,121.43-28.814,240.116-28.814S525.1,1039.915,526.3,1040.2s121.319,28.786,239.883,28.786,238.684-28.5,239.884-28.786,121.43-28.814,240.116-28.814,238.916,28.526,240.117,28.814,121.319,28.786,239.883,28.786,238.684-28.5,239.884-28.786l.233.972C1965.1,1041.463,1844.875,1069.989,1726.188,1069.989Z" fill="#28482d"/>
        </g>
        <g id="Group_1178" data-name="Group 1178">
          <path id="Path_3687" data-name="Path 3687" d="M1726.188,1106.342c-118.686,0-238.916-28.526-240.116-28.814s-121.319-28.786-239.884-28.786-238.683,28.5-239.883,28.786-121.43,28.814-240.117,28.814-238.916-28.526-240.116-28.814-121.319-28.786-239.884-28.786-238.683,28.5-239.883,28.786l-.233-.972c1.2-.288,121.43-28.814,240.116-28.814S525.1,1076.268,526.3,1076.556s121.319,28.786,239.883,28.786,238.684-28.5,239.884-28.786,121.43-28.814,240.116-28.814,238.916,28.526,240.117,28.814,121.319,28.786,239.883,28.786,238.684-28.5,239.884-28.786l.233.972C1965.1,1077.816,1844.875,1106.342,1726.188,1106.342Z" fill="#28482d"/>
        </g>
        <g id="Group_1179" data-name="Group 1179">
          <path id="Path_3688" data-name="Path 3688" d="M1726.188,1097.254c-118.686,0-238.916-28.526-240.116-28.814s-121.319-28.786-239.884-28.786-238.683,28.5-239.883,28.786-121.43,28.814-240.117,28.814-238.916-28.526-240.116-28.814-121.319-28.786-239.884-28.786-238.683,28.5-239.883,28.786l-.233-.972c1.2-.289,121.43-28.814,240.116-28.814S525.1,1067.179,526.3,1067.468s121.319,28.786,239.883,28.786,238.684-28.5,239.884-28.786,121.43-28.814,240.116-28.814,238.916,28.525,240.117,28.814,121.319,28.786,239.883,28.786,238.684-28.5,239.884-28.786l.233.972C1965.1,1068.728,1844.875,1097.254,1726.188,1097.254Z" fill="#28482d"/>
        </g>
        <g id="Group_1180" data-name="Group 1180">
          <path id="Path_3689" data-name="Path 3689" d="M1726.188,1115.43c-118.686,0-238.916-28.525-240.116-28.813s-121.319-28.786-239.884-28.786-238.683,28.5-239.883,28.786-121.43,28.813-240.117,28.813-238.916-28.525-240.116-28.813-121.319-28.786-239.884-28.786-238.683,28.5-239.883,28.786l-.233-.973c1.2-.288,121.43-28.813,240.116-28.813S525.1,1085.356,526.3,1085.644s121.319,28.786,239.883,28.786,238.684-28.5,239.884-28.786,121.43-28.813,240.116-28.813,238.916,28.525,240.117,28.813,121.319,28.786,239.883,28.786,238.684-28.5,239.884-28.786l.233.973C1965.1,1086.905,1844.875,1115.43,1726.188,1115.43Z" fill="#28482d"/>
        </g>
        <g id="Group_1181" data-name="Group 1181">
          <path id="Path_3690" data-name="Path 3690" d="M1726.188,1088.165c-118.686,0-238.916-28.525-240.116-28.813s-121.319-28.786-239.884-28.786-238.683,28.5-239.883,28.786-121.43,28.813-240.117,28.813-238.916-28.525-240.116-28.813-121.319-28.786-239.884-28.786-238.683,28.5-239.883,28.786l-.233-.973c1.2-.288,121.43-28.813,240.116-28.813S525.1,1058.091,526.3,1058.379s121.319,28.786,239.883,28.786,238.684-28.5,239.884-28.786,121.43-28.813,240.116-28.813,238.916,28.525,240.117,28.813,121.319,28.786,239.883,28.786,238.684-28.5,239.884-28.786l.233.973C1965.1,1059.64,1844.875,1088.165,1726.188,1088.165Z" fill="#28482d"/>
        </g>
        <g id="Group_1182" data-name="Group 1182">
          <path id="Path_3691" data-name="Path 3691" d="M1726.188,1079.077c-118.686,0-238.916-28.525-240.116-28.813s-121.319-28.786-239.884-28.786-238.683,28.5-239.883,28.786-121.43,28.813-240.117,28.813-238.916-28.525-240.116-28.813-121.319-28.786-239.884-28.786-238.683,28.5-239.883,28.786l-.233-.973c1.2-.288,121.43-28.813,240.116-28.813S525.1,1049,526.3,1049.291s121.319,28.786,239.883,28.786,238.684-28.5,239.884-28.786,121.43-28.813,240.116-28.813S1485.1,1049,1486.305,1049.291s121.319,28.786,239.883,28.786,238.684-28.5,239.884-28.786l.233.973C1965.1,1050.552,1844.875,1079.077,1726.188,1079.077Z" fill="#28482d"/>
        </g>
        <g id="Group_1183" data-name="Group 1183">
          <path id="Path_3692" data-name="Path 3692" d="M1726.188,1124.519c-118.686,0-238.916-28.526-240.116-28.814s-121.319-28.787-239.884-28.787-238.683,28.5-239.883,28.787-121.43,28.814-240.117,28.814-238.916-28.526-240.116-28.814-121.319-28.787-239.884-28.787-238.683,28.5-239.883,28.787l-.233-.972c1.2-.288,121.43-28.815,240.116-28.815S525.1,1094.445,526.3,1094.733s121.319,28.786,239.883,28.786,238.684-28.5,239.884-28.786,121.43-28.815,240.116-28.815,238.916,28.527,240.117,28.815,121.319,28.786,239.883,28.786,238.684-28.5,239.884-28.786l.233.972C1965.1,1095.993,1844.875,1124.519,1726.188,1124.519Z" fill="#28482d"/>
        </g>
      </g>
    </g>
  </g>
</svg>
