<svg width="520" height="320" viewBox="0 0 520 320" fill="none" xmlns="http://www.w3.org/2000/svg"><ellipse rx="231" ry="1.5" transform="matrix(1 0 0 -1 250 314.5)" fill="#DFDFDF"/><mask id="a" fill="#fff"><rect x="141" y="7.671" width="267" height="192.329" rx="1"/></mask><rect x="141" y="7.671" width="267" height="192.329" rx="1" fill="#fff" stroke="#DEDEE2" stroke-width="4" mask="url(#a)"/><path fill-rule="evenodd" clip-rule="evenodd" d="M147 5a6 6 0 0 0-6 6v9.027a1 1 0 0 0 1 1h265a1 1 0 0 0 1-1V11a6 6 0 0 0-6-6H147zm4.013 10.017a2.003 2.003 0 1 0-.002-4.006 2.003 2.003 0 0 0 .002 4.006zm10.012-2.003a2.003 2.003 0 1 1-4.006 0 2.003 2.003 0 0 1 4.006 0zm6.008 2.003a2.003 2.003 0 1 0-.002-4.006 2.003 2.003 0 0 0 .002 4.006z" fill="#DEDEE2"/><rect x="365.28" y="31.712" width="26.7" height="3.562" rx="1.781" fill="#DEDEE2"/><rect x="329.68" y="31.712" width="26.7" height="3.562" rx="1.781" fill="#DEDEE2"/><rect x="294.08" y="31.712" width="26.7" height="3.562" rx="1.781" fill="#DEDEE2"/><rect x="258.48" y="31.712" width="26.7" height="3.562" rx="1.781" fill="#DEDEE2"/><rect x="176.6" y="31.712" width="26.7" height="3.562" rx="1.781" fill="#DEDEE2"/><rect x="157.02" y="27.26" width="12.46" height="12.466" rx="2" fill="#DEDEE2"/><path fill="#C6E2F7" d="M281.62 120.753h48.06v48.082h-48.06z"/><path fill="#FBE5B4" d="M281.62 120.753h48.06v48.082h-48.06z"/><rect x="281.62" y="174.178" width="48.06" height="3.562" rx="1.781" fill="#DEDEE2"/><rect x="286.96" y="181.301" width="37.38" height="3.562" rx="1.781" fill="#DEDEE2"/><path fill="#D0E9D6" d="M219.32 120.753h48.06v48.082h-48.06z"/><rect x="219.32" y="174.178" width="48.06" height="3.562" rx="1.781" fill="#DEDEE2"/><rect x="224.66" y="181.301" width="37.38" height="3.562" rx="1.781" fill="#DEDEE2"/><path fill="#FADADA" d="M343.92 120.753h48.06v48.082h-48.06z"/><rect x="343.92" y="174.178" width="48.06" height="3.562" rx="1.781" fill="#DEDEE2"/><rect x="349.26" y="181.301" width="37.38" height="3.562" rx="1.781" fill="#DEDEE2"/><path fill="#E0E0F5" d="M157.02 120.753h48.06v48.082h-48.06z"/><rect x="157.02" y="174.178" width="48.06" height="3.562" rx="1.781" fill="#DEDEE2"/><rect x="162.36" y="181.301" width="37.38" height="3.562" rx="1.781" fill="#DEDEE2"/><path fill="#C6E2F7" d="M281.62 45.069h48.06v48.082h-48.06z"/><path fill="#D0E9D6" d="M281.62 45.069h48.06v48.082h-48.06z"/><rect x="281.62" y="99.384" width="48.06" height="3.562" rx="1.781" fill="#DEDEE2"/><rect x="286.96" y="106.507" width="37.38" height="3.562" rx="1.781" fill="#DEDEE2"/><path fill="#FADADA" d="M219.32 45.069h48.06v48.082h-48.06z"/><rect x="219.32" y="99.384" width="48.06" height="3.562" rx="1.781" fill="#DEDEE2"/><rect x="224.66" y="106.507" width="37.38" height="3.562" rx="1.781" fill="#DEDEE2"/><path fill="#E0E0F5" d="M343.92 45.069h48.06v48.082h-48.06z"/><rect x="343.92" y="99.384" width="48.06" height="3.562" rx="1.781" fill="#DEDEE2"/><rect x="349.26" y="106.507" width="37.38" height="3.562" rx="1.781" fill="#DEDEE2"/><path fill="#FBE5B4" d="M157.02 45.069h48.06v48.082h-48.06z"/><rect x="157.02" y="99.384" width="48.06" height="3.562" rx="1.781" fill="#DEDEE2"/><rect x="162.36" y="106.507" width="37.38" height="3.562" rx="1.781" fill="#DEDEE2"/><path fill="url(#b)" d="M142.335 45.069h264.33v6.678h-264.33z"/><path fill-rule="evenodd" clip-rule="evenodd" d="M96.069 116.951l2.439-9.378s3.523.952 5.072-.545c.649-.626 1.245-3.363 1.495-7.694.026-.463 1.556 0 1.793-.92.415-1.608-3.096-4.208-2.825-5.918.99-6.263.466-7.938-1.348-9.712-4.033-3.94-18.158-4.518-20.082 2.344-1.926 6.861-1.308 10.188 2.182 19.94l-2.135 9.727 13.409 2.156z" fill="#F1BD9A"/><path fill-rule="evenodd" clip-rule="evenodd" d="M102.024 113.64l-3.109 8.189-17.378-11.408 1.968-4.202c9.083.635 18.519 7.421 18.519 7.421zm36.586 53.466l2.39.717 2.733-8.385-3.235-1.162-1.888 8.83z" fill="#FADADA"/><path fill-rule="evenodd" clip-rule="evenodd" d="M97.005 74.092c1.658-.573 3.302-1.14 5.338-.788.793.138 1.488.32 2.095.535 7.581 2.707 1.196 11.064-5.354 12.004-.864 4.019-5.654 2.431-5.654 2.431l-.205 5.922a.23.23 0 0 1-.05.013.234.234 0 0 0-.058.016c-.879.44-1.708.921-2.48 1.5-.142-1.46-.21-2.59-.21-2.59s-1.598-2.836-3.134-1.013c-1.536 1.823 1.958 5.874 1.958 5.874l-4.578 4.467s-2.36-4.872-3.736-8.315c-1.373-3.444-4.468-11.239 0-13.065-.834-1.57-.392-3.968.885-5.209 1.277-1.24 3.128-1.746 4.91-1.744 1.084.003 2.118.224 3.14.443 1.195.256 2.375.508 3.605.406 1.267-.105 2.4-.497 3.528-.887zM72.58 304.493l2.567-.063 10.12-51.589 2.863-13.72 1.959 10.734 1.23 55.273 2.54-.063-.178 1.693 7.762.816.284-2.705 3.201-.08 4.677-55.421-1.891-47.292c2.547-.322 4.068-.56 4.068-.56l-6.239-38.328c12.409 2.136 33.521 4.635 33.521 4.635l3.499-10.307s-26.419-7.364-37.491-9.772c.621-5.094 1.325-11.218 1.239-12.131-.153-1.602-6.992-15.872-11.232-20.804-4.24-4.934-12.678-7.614-12.678-7.614s-2.077 2.935-3.748 4.391c-1.672 1.457-6.534 8.592-7.598 14.853-.142.837-.292 1.681-.443 2.535-.982 5.544-2.043 11.536-1.685 18.798.414 8.381 0 16.195 0 16.195L63 201.516c.984.308 2.027.579 3.119.816l.126 49.406-4.22 53.015 2.717-.067-.156 2.224 7.786.544.207-2.961z" fill="#2F302F"/><path fill-rule="evenodd" clip-rule="evenodd" d="M74.587 304.999l3.558 3.512 7.993 1.946c.824.201 1.49.804 1.77 1.603l.408 1.158a.872.872 0 0 1-.843 1.161l-23.29-.491a1.453 1.453 0 0 1-1.419-1.572l.604-7.447 2.872.954a4.77 4.77 0 0 0 3.907-.405l1.383-.805a2.536 2.536 0 0 1 3.057.386zm29.268 0l3.558 3.512 7.994 1.946a2.507 2.507 0 0 1 1.77 1.603l.407 1.158a.872.872 0 0 1-.843 1.161l-23.29-.491a1.453 1.453 0 0 1-1.419-1.572l.604-7.447 2.872.954c1.3.433 2.724.284 3.908-.405l1.383-.805a2.535 2.535 0 0 1 3.056.386z" fill="#8A3F31"/><path d="M87.39 240.5l1.388-23.531L92.524 214" stroke="#636363" stroke-width=".6" stroke-linecap="round" stroke-linejoin="round"/><path fill-rule="evenodd" clip-rule="evenodd" d="M104.546 137.439a.406.406 0 0 1-.38-.262c-.925-2.469-3.528-5.714-5.922-7.386l-.169-.117-.013-.462c-.049-1.724-.102-3.665.085-5.417a22.79 22.79 0 0 0-3.786-1.398l-.257-.07-.039-.266c-.243-1.757-1.538-3.349-2.79-4.89-.666-.82-1.356-1.668-1.875-2.531a.404.404 0 1 1 .694-.419c.49.814 1.132 1.605 1.81 2.438 1.263 1.554 2.566 3.157 2.922 5.025a23.62 23.62 0 0 1 3.933 1.505l.26.127-.035.286c-.218 1.768-.161 3.797-.112 5.586l.001.057c2.502 1.809 5.082 5.059 6.053 7.647a.41.41 0 0 1-.237.522.423.423 0 0 1-.143.025zM82.442 203.78c-5.804 0-11.2-.267-16.162-.8-.222-.025-.379-.189-.35-.369.03-.179.225-.298.458-.28 11.214 1.206 24.692 1.039 40.056-.5.244-.017.426.106.455.284.028.18-.13.343-.354.364-8.648.867-16.706 1.301-24.103 1.301z" fill="#636363"/><path fill-rule="evenodd" clip-rule="evenodd" d="M159.745 166.854l-9.733 5.905-5.798-4.602 8.757-5.76 4.166-1.423 2.608 5.88z" fill="#ECB38C"/><path fill-rule="evenodd" clip-rule="evenodd" d="M143.029 167.532l8.78 4.651a1.15 1.15 0 0 0-.084.521 1.182 1.182 0 0 0 1.267 1.09 1.18 1.18 0 0 0 1.081-1.412c.213.113.46.169.719.151a1.328 1.328 0 0 0 1.174-1.74 1.329 1.329 0 0 0 1.666-1.373 1.304 1.304 0 0 0-.275-.716l.05-.003a1.328 1.328 0 0 0 1.239-1.411 1.318 1.318 0 0 0-.795-1.118l.006-.012-6.468-5.934-5.991.419-2.369 6.887z" fill="#ECB38C"/><path fill-rule="evenodd" clip-rule="evenodd" d="M143.496 168.513l-2.43-.762 2.68-8.347 2.43.762-2.68 8.347z" fill="#F0F0F0"/><path fill-rule="evenodd" clip-rule="evenodd" d="M156.499 160.392s-2.619-1.099-4.462-.932c-1.842.167-1.676.14-3.156 1.623-1.48 1.483-1.761 3.306-1.761 3.306s1.548 1.262 2.489 0c.941-1.263 1.002-1.503 1.002-1.503l1.199-.241s1.077 2.303 3.718 2.305c1.922 0 2.58-1.225 2.58-1.225l-1.609-3.333z" fill="#A4714F"/><path fill-rule="evenodd" clip-rule="evenodd" d="M144.745 167.839c-.509-.17-1.312 1.087-1.312 1.087-.228.496 1.077 1.367 1.441 1.443a.282.282 0 0 0 .119-.003c-.113.696 1.105 1.309 1.611 1.235.132-.019.298-.113.478-.253.031.2.177.487.655.814.288.196.661.163 1.043.004-.052.184-.04.54.47 1.052.777.778 2.843-.535 3.14-1.228.299-.693-.432-1.984-1.531-1.304l-.797.53c.28-.307.479-.618.529-.842.161-.736-.8-1.869-1.751-.997l-.414.405c.045-.079.08-.151.106-.214.44-1.108-.82-1.498-1.26-1.373-.248.07-.944.72-1.493 1.26a1.41 1.41 0 0 0 .082-.258c.091-.466-.607-1.187-1.116-1.358z" fill="#AF8162"/><path fill-rule="evenodd" clip-rule="evenodd" d="M147.196 164.247s.482.362.865.205c.384-.157.886-1.31.807-1.401-.079-.092-.832-.314-.832-.314l-.84 1.51zm-2.346 5.404c-.386.196-.962-.766-.962-.766s.476-.531.714-.619c.238-.088.407.029.744.383.338.354-.109.805-.496 1.002zm2.798.275c-.387.196-.962-.766-.962-.766s.476-.531.714-.619c.238-.088.406.029.744.383.337.354-.109.805-.496 1.002zm1.032.167s.575.962.962.766c.387-.197.833-.648.496-1.002-.337-.354-.506-.471-.744-.383-.238.088-.714.619-.714.619zm2.813 2.259c-.387.196-.962-.766-.962-.766s.476-.531.714-.619c.238-.089.407.029.744.383.338.353-.109.805-.496 1.002z" fill="#C99C7E"/><path fill-rule="evenodd" clip-rule="evenodd" d="M99.976 146.826a2.608 2.608 0 0 1-2.179-1.641c-2.344-5.899-11.489-27.322-20.66-27.322-.217.058-.43-.106-.471-.333-.042-.226.098-.489.32-.489 10.13 0 19.025 21.407 21.266 27.256a2.538 2.538 0 0 0 2.108 1.624l4.406.457a.45.45 0 0 1-.089.895l-4.7-.447zm-17.536 5.926a.4.4 0 1 1 .687-.409l2.311 3.912a8.359 8.359 0 0 0 5.778 3.986l9.955 1.715a.46.46 0 1 1-.166.906L88.7 160.479a4.202 4.202 0 0 1-2.807-1.967l-3.452-5.76z" fill="#636363"/><path d="M235.435 300.331l7.176-.756 1.157 11.03-7.177.756-1.156-11.03zm-24.73-2.258l7.212-.253.386 11.085-7.212.252-.386-11.084z" fill="#AF8162"/><path fill-rule="evenodd" clip-rule="evenodd" d="M214.939 116.92c3.413-2.655 12.004-3.567 12.614 4.052.174 2.17-.667 4.341-1.642 6.336-3.624 7.409-9.235 13.588-15.257 19.093-.177.161-.401.371-.667.621v.001c-2.71 2.547-9.788 9.198-15.593 9.974-.091.047-.139.07-.139.07l-34.811 12.44-3.75-11.436 37.498-15.648a650.388 650.388 0 0 0 3.478-4.465l.002-.002v-.001c5.82-7.513 13.304-17.173 18.267-21.035zm-9.028 191.867l-7.063 1.729a2.219 2.219 0 0 0-1.565 1.424l-.359 1.028a.774.774 0 0 0 .744 1.032l20.581-.437a1.288 1.288 0 0 0 1.254-1.396l-.533-6.615-2.538.847a4.195 4.195 0 0 1-3.454-.36l-1.221-.715a2.233 2.233 0 0 0-2.702.343l-3.144 3.12zm24.961-.778l-7.063 1.846c-.728.19-1.316.763-1.565 1.521l-.359 1.098c-.179.545.205 1.114.744 1.102l20.581-.467c.74-.016 1.315-.698 1.254-1.49l-.533-7.065-2.538.905a3.964 3.964 0 0 1-3.454-.384l-1.221-.764c-.874-.547-1.982-.396-2.702.367l-3.144 3.331zm13.562-114.889c.489-6.267-.769-16.461-.769-16.461s-40.932.651-41.368 4.144l-.218 1.736c-.641 5.069-1.281 10.133-1.451 15.225l-.001.015-.002.018a73.093 73.093 0 0 0-.04 3.659c.125 7.072 3.157 41.959 3.927 45.651 1.899 9.091 2.926 57.486 2.926 57.486h12.774l1.029-51.549s.848-29.507 1.625-29.421c1.427 8.55 4.193 33.047 4.193 33.047l5.258 47.037h12.148l-1.028-49.189s1.133-43.318.997-61.398zm-15.441-61.773c.283-6.802.564-13.555 7.257-13.555 1.164 0 5.143 2.19 5.143 2.19 3.942 5.484 4.466 16.117 3.456 21.358-.887 4.614-5.203 24.206-13.616 20.753-2.421-.993-3.317-4.282-3.172-6.66.206-3.405.289-6.814.372-10.224.088-3.594.176-7.189.408-10.778.065-1.014.108-2.05.152-3.084z" fill="#373463"/><path fill-rule="evenodd" clip-rule="evenodd" d="M229.377 204.93c-5.538.527-29.051-2.087-29.375-2.257-2.027-1.061-.42-7.22 0-10.066.723-4.934 4.733-32.016 5.556-35.649 2.939-12.971 3.428-34.584 17.294-42.958 4.005.701 7.471.488 11.74.503.097.171 3.224 1.21 7.517 5.817 4.292 4.606 4.791 25.652 4.791 35.158 0 21.164 2.825 44.079 3.092 45.692.343.402-10.329 2.781-20.615 3.76z" fill="#373463"/><path fill-rule="evenodd" clip-rule="evenodd" d="M205.092 183c-.014-.133-.2-3.199 0-6.463 2.389-39.024 6.47-49.191 16.238-60.663 1.733-2.035 1.375-2.679 8.047-2.874 6.897.783 4.26 3.19 3.446 5.285-3.918 10.088-10.04 20.255-13.1 64.715 0 0-13.659-.039-14.631 0z" fill="#F0F0F0"/><path fill-rule="evenodd" clip-rule="evenodd" d="M227.088 117.4c-2.053-.491-3.331-2.556-2.867-4.629l2.835-12.671 7.495 1.794-2.816 12.584c-.471 2.109-2.561 3.422-4.647 2.922z" fill="#A87C5E"/><path fill-rule="evenodd" clip-rule="evenodd" d="M223.099 111.99l-.107-1.502s-5.243 1.354-6.838.076c-.666-.535-1.48-3.071-2.113-7.145-.067-.435-1.697-1.227-1.908-1.637-1.024-1.978 2.603-4.146 2.192-5.74-1.509-5.838-1.112-6.654.431-8.492 3.427-4.089 18.064-6.529 20.504-.21 2.442 6.32.754 10.154-1.629 19.692l.3 4.215c.302 4.244-1.093 5.891-5.377 6.184-6.047.415-5.455-5.441-5.455-5.441z" fill="#A4714F"/><path fill-rule="evenodd" clip-rule="evenodd" d="M214.126 82.55c.017-.046.021-.091.04-.137.505-1.263 1.751-2.114 3.089-2.116.351 0 .697.055 1.027.153.137-1.42.957-2.77 2.428-3.376.067-.027.14-.038.21-.058.578-.414.68-.297 1.379-.283.88-.596 1.858-.434 2.636.148.089-.084.174-.171.273-.25 2.237-1.755 5.584-.306 6.557 2.21.125-.038.248-.083.379-.11 2.581-.525 4.468 1.459 5.078 3.808.131-.01.262-.025.392-.03 1.768-.072 3.072 1.525 2.722 3.295a3.589 3.589 0 0 1-.381 1.03c.045.08.099.155.139.238.299.248.583.52.823.843 1.252 1.69-.331 3.82-.925 5.714.622 1.43-2.348 5.317-3.934 7.669-1.586 2.352-2.389 3.891-2.431 3.842-.311-.367-4.195-7.185-4.195-7.185s1.91-4.765-1.183-6.296c-3.093-1.53-3.529 5.249-4.344 5.247-1.505-.002-.418-1.595-1.581-3.374-.272-.417-1.251-.542-2.022-1.288-.77-.746-1.03-1.828-1.03-1.828s-5.858.057-6.291-.42c-1.306-1.439-1.114-5.087.169-6.658a3.21 3.21 0 0 1 .976-.788z" fill="#261A13"/><path fill-rule="evenodd" clip-rule="evenodd" d="M227.954 119.09c-1.627 0-3.968-1.787-4.532-2.07-.564-.283-1.491 2.561-.564 3.05-.485 1.04-3.248 7.661-6.262 19.865-1.54 6.236-4.596 23.081-4.596 23.081s1.739 2.95 2.42 2.983c.68.034 2.877-1.746 2.877-1.746s1.868-16.039 2.966-22.091c2.5-13.778 4.829-20.756 4.957-20.934 2.061.426 3.007-2.138 2.734-2.138z" fill="#373463"/><path d="M220.959 179s-1.605 19.077-1.959 25c15.022-.74 21-1.864 21-1.864" stroke="#48458D" stroke-width=".8" stroke-linecap="round" stroke-linejoin="round"/><path fill-rule="evenodd" clip-rule="evenodd" d="M224.828 184.874c2.144-.596 4.68.136 6.935.593-1.327 5.438-2.884 9.998-2.884 13.532 0 4.661-1.217 7.031-1.565 7.803-.702 1.556-1.395 2.254-3.027 1.085-1.221.699-1.641-.102-2.112-.767-.839.809-2.202.665-2.543-.31-.727.678-1.374.577-1.721-.131-.645-1.314.51-4.325 1.21-5.505-1.104-3.361-.856-3.422 2.215-4.896 1.635-.418 3.288-9.077 3.492-11.404z" fill="#A4714F"/><path fill-rule="evenodd" clip-rule="evenodd" d="M221.643 195.033l.519-2.579 8.847 1.853-.519 2.579-8.847-1.853z" fill="#F0F0F0"/><path fill-rule="evenodd" clip-rule="evenodd" d="M232.264 195.151s5.303-26.57 6.452-34.47c.468-3.219.466-6.892-1.37-8.834-1.14-1.207-2.765-1.485-4.322-1.616-7.757-.658-6.717 8.458-7.605 15.719-1.118 9.142-2.24 18.284-3.358 27.427l10.203 1.774z" fill="#373463"/><path d="M245.295 135.029s-2.36 23.802-4.653 33.483c-2.293 9.68-9 26.488-9 26.488L221 193.405l6.854-29.223 1.719-17.551M204.672 191l.328 11-5-.458" stroke="#48458D" stroke-width=".8" stroke-linecap="round" stroke-linejoin="round"/><path fill="#F1BD9A" d="M420 304h5v7h-5zm12 0h5v7h-5z"/><path fill-rule="evenodd" clip-rule="evenodd" d="M426.238 308.506l2.779 2.431 6.243 1.348c.643.138 1.164.556 1.383 1.109l.318.802c.157.398-.182.813-.658.804l-18.191-.341c-.654-.011-1.162-.509-1.108-1.087l.471-5.156 2.244.66a4.15 4.15 0 0 0 3.052-.28l1.08-.558c.772-.398 1.751-.289 2.387.268z" fill="#8A3F31"/><path fill-rule="evenodd" clip-rule="evenodd" d="M440.238 308.506l2.779 2.431 6.243 1.348c.643.138 1.164.556 1.383 1.109l.318.802c.157.398-.182.813-.658.804l-18.191-.341c-.654-.011-1.162-.509-1.108-1.087l.471-5.156 2.244.66a4.15 4.15 0 0 0 3.052-.28l1.08-.558c.772-.398 1.751-.289 2.387.268z" fill="#8A3F31"/><path d="M432 311s2.422.526 3.366 1.143S437 315 437 315" stroke="#A6665B" stroke-linecap="round" stroke-linejoin="round"/><path fill-rule="evenodd" clip-rule="evenodd" d="M450.143 182h-38.01c-.737 2.432 1.84 4.759 1.6 6.519-.848 6.237 4.381 20.976 4.381 20.976l1.393 8.106s.245 45.751-.698 57.655a71.337 71.337 0 0 0-.215 5.392c-.001.473.029.93.072 1.377.269 9.159-.009 17.387.143 26.975l10.303-.211c0-8.121-.597-14.177 1.235-28.139.309-2.363.621-4.667.925-6.839-.04.484-.328 5.072-.332 6.837-.001.473.021 18.186.737 28.141h10.618c-.33 0-1.435-14.177.398-28.139 1.31-9.992 2.649-19.044 3.386-20.7 1.149-2.578 3.212-24.885 5.372-40.575.861-5.982.6-23.396-.03-29.266-.307-2.854-.918-5.282-1.278-8.109z" fill="#CD7050"/><path fill-rule="evenodd" clip-rule="evenodd" d="M410.8 184.133l1.08 4.867h38.541v-4.124s1.545-14.345-1.034-25.855c-2.579-11.511-5.398-13.019-4.903-16.864.495-3.844-8.635-24.882-10.39-27.231-1.756-2.35-8.707-2.777-11.656 0-2.949 2.776-10.959 14.949-11.638 17.512-.681 2.562-2.8 34.75-2.8 34.75s2.191 3.682 2.8 8.076c.517 3.734-.595 8.22 0 8.869z" fill="#F1E1D3"/><path fill-rule="evenodd" clip-rule="evenodd" d="M432.368 206a.358.358 0 0 0 .279-.139c1.845-2.349 3.036-5.338 3.351-8.415.023-.22-.123-.419-.325-.443-.193-.027-.384.135-.405.355-.3 2.917-1.428 5.753-3.179 7.978a.43.43 0 0 0 .038.567.355.355 0 0 0 .241.097z" fill="#7F4D4E"/><path fill-rule="evenodd" clip-rule="evenodd" d="M424.174 198.963l4.807.637s4.87-.363 5.875.341l-1.681 2.088s6.477 5.869 6.339 6.266l-.768 2.192-2.371-1.411s-.145 1.376-.55 1.57c-.404.196-1.084.212-1.084.212s-.601.993-1.451 1.733c-.848.74-1.428-1.533-2.463-1.222-1.037.312-5.582-4.01-6.15-4.683-.568-.672-7.246-5.527-7.246-5.527l6.743-2.196z" fill="#C69C6C"/><path fill-rule="evenodd" clip-rule="evenodd" d="M424.994 113c-3.939.946-15.88 9.743-17.474 12.908-1.592 3.167-14.817 39.827-10.745 46.19 4.071 6.363 20.141 32.902 20.141 32.902L429 197.103l-16.301-29.027L424.994 113z" fill="#F1E1D3"/><path d="M414.556 124s9.049 1.592 9.049 8.989S414 168.826 414 168.826L425 189" stroke="#C39679" stroke-linecap="square"/><path fill-rule="evenodd" clip-rule="evenodd" d="M430.387 271a.362.362 0 0 1-.092-.011.4.4 0 0 1-.284-.483c.083-.347 8.252-34.623 9.659-41.092 1.394-6.424.632-33.422.624-33.693a.406.406 0 0 1 .106-.287l3.933-4.309a.378.378 0 0 1 .546-.016.408.408 0 0 1 .015.564l-3.822 4.189c.069 2.499.725 27.399-.648 33.728-1.408 6.478-9.579 40.76-9.661 41.106a.391.391 0 0 1-.376.304z" fill="#7F4D4E"/><path fill-rule="evenodd" clip-rule="evenodd" d="M470.622 104.632c-.05-.509-6.561-1.199-7.179-1.825-.618-.625 1.591-4.45-.907-4.45-2.497 0-1.76 4.936-1.196 6.275.427 1.015 2.103 4.622 2.103 4.622l1.579 5.851c1.726.521 3.884-.55 5.6 0 0 0-.638-4.156-.635-5.621.009-3.198.658-4.619.635-4.852z" fill="#C69C6C"/><path fill-rule="evenodd" clip-rule="evenodd" d="M473.837 87.495l-7.426 1.25a5 5 0 0 0-4.162 5.226l.034.57a5 5 0 0 0 5.959 4.61l6.898-1.361-1.303-10.296z" fill="#FC5854"/><path fill-rule="evenodd" clip-rule="evenodd" d="M489.83 76.69s-7.505 6.624-11.463 8.645c-3.958 2.022-8.485 3.62-8.485 3.62l1.535 9.486s4.153-.808 9.413.196c5.26 1.004 14.716 3.552 14.716 3.552l-5.716-25.5z" fill="#FC5854"/><path d="M494.135 101.203c-.942.149-1.79-.272-2.46-.856-.675-.588-1.288-1.436-1.828-2.43-1.083-1.995-1.98-4.78-2.473-7.887-.492-3.108-.499-6.034-.085-8.266.206-1.112.527-2.108.987-2.876.457-.762 1.133-1.424 2.076-1.573.943-.15 1.79.272 2.46.855.675.588 1.288 1.436 1.828 2.43 1.084 1.995 1.98 4.78 2.473 7.887.492 3.108.499 6.034.085 8.267-.206 1.111-.527 2.107-.987 2.875-.457.762-1.133 1.424-2.076 1.574z" fill="#fff" stroke="#FC5854" stroke-width="2" stroke-linejoin="round"/><ellipse rx="1.965" ry="4.567" transform="scale(-1 1) rotate(8 -885.263 -3477.504)" fill="#FC5854"/><path fill-rule="evenodd" clip-rule="evenodd" d="M469.55 96.007l-6.911.42s.345 10.268 2.287 11.776c1.943 1.509 2.664 1.462 3.614.002.41-.631.389-1.958-.003-5.402-.213-1.872 1.013-6.796 1.013-6.796z" fill="#FC5854"/><path fill-rule="evenodd" clip-rule="evenodd" d="M470.81 101.214c-.281-2.86-2.728-4.01-5.057-2.9-1.524.727-1.288 4.725.082 6.631.724 1.009 2.357 1.3 2.92 1.652 1.626 1.02 2.335-2.523 2.055-5.383z" fill="#C69C6C"/><path fill-rule="evenodd" clip-rule="evenodd" d="M442.034 129.458c2.436 5.622 15.976 30.5 25.346 28.419 10.626-2.36 4.196-45.877 4.196-45.877h-9.393v23.08s-9.207-18.495-16.726-18.495c-10.883-.204-3.423 12.873-3.423 12.873z" fill="#F1E1D3"/><path fill-rule="evenodd" clip-rule="evenodd" d="M428 113c21.046 0 25.231 7.26 23.722 16.516L449.046 166l-11.783-16.337L428 113z" fill="#F1E1D3"/><path d="M449 144l-.227-8.073L447 130m21.394 17.043s-.974-4.398-2.19-6.806c-1.215-2.408-3.093-3.664-3.093-3.664" stroke="#C39679" stroke-linecap="round" stroke-linejoin="round"/><path fill-rule="evenodd" clip-rule="evenodd" d="M437.785 114.986l1.123-5.476s3.5-.207 4.457-2.04c.399-.766.109-3.436-.984-7.449-.117-.428 2.112-2.021 1.984-2.458-.253-.851-4.734-1.806-5.01-3.443-1.005-5.996-1.994-7.36-4.188-8.418-4.876-2.355-19.499 1.42-19.161 8.244.336 6.824 3.489 9.66 9.643 17.463l-.215 1.322c-.683 4.228 2.989 7.881 7.223 7.183a6.273 6.273 0 0 0 5.128-4.928z" fill="#C69C6C"/><path fill-rule="evenodd" clip-rule="evenodd" d="M427.04 103.622s-6.382-3.501-3.64-6.947c2.744-3.447 10.892 8.08 10.892 8.08l.72-1.711-3.683-7.476s2.591-2.319 2.044-5.313c0 0 7.184-2.746 6.592-7.63-.14-1.158-2.689-3.415-4.953-3.587-7.27-.554-21.012 5.09-21.012 10.23 0 6.74 1.954 12.32 11.428 21.732l1.612-7.378z" fill="#2F302F"/><defs><linearGradient id="b" x1="142.335" y1="45.069" x2="142.335" y2="51.747" gradientUnits="userSpaceOnUse"><stop stop-opacity=".06"/><stop offset="1" stop-opacity=".01"/></linearGradient></defs></svg>