<svg width="520" height="380" viewBox="0 0 520 380" fill="none" xmlns="http://www.w3.org/2000/svg"><g clip-path="url(#a)"><g filter="url(#b)"><mask id="c" fill="#fff"><path d="M90 73c0-5.523 4.477-10 10-10h280c5.523 0 10 4.477 10 10v229a1 1 0 0 1-1 1H91a1 1 0 0 1-1-1V73z"/></mask><path d="M90 73c0-5.523 4.477-10 10-10h280c5.523 0 10 4.477 10 10v229a1 1 0 0 1-1 1H91a1 1 0 0 1-1-1V73z" fill="#fff"/><path d="M90 73c0-5.523 4.477-10 10-10h280c5.523 0 10 4.477 10 10v229a1 1 0 0 1-1 1H91a1 1 0 0 1-1-1V73z" stroke="#DEDEE2" stroke-width="4" mask="url(#c)"/></g><path fill="#D9EDDE" d="M245 208h60v60h-60z"/><path fill-rule="evenodd" clip-rule="evenodd" d="M289.66 239.786c-1.458.279-2.729.682-4.248 1.085-.155-1.519-.372-3.473-.403-4.434-.125-3.039-.931-5.085-3.07-6.915-1.675-1.488-2.822 1.023-5.209 1.054-1.458.031-2.76-4.496-5.241-3.503-3.566 1.457-5.891 4.837-6.232 8.899-.062.93-.403 2.883-.62 4.403-1.551-.434-2.791-.93-4.279-1.303-2.698-.651-4.868-.713-3.783 1.675.775 1.767 8.186 3.721 18.356 3.969 10.171.248 17.643-1.334 18.512-3.07 1.085-2.325-1.086-2.388-3.783-1.86z" fill="#fff"/><path fill-rule="evenodd" clip-rule="evenodd" d="M249 276a2 2 0 1 0 0 4h52a2 2 0 1 0 0-4h-52zm7 8a2 2 0 1 0 0 4h38a2 2 0 1 0 0-4h-38z" fill="#DEDEE2"/><path fill="#D1E7F8" d="M175 208h60v60h-60z"/><path fill-rule="evenodd" clip-rule="evenodd" d="M219.702 239.51a16.394 16.394 0 0 0-.355-1.286c-.252-.838-.597-1.983-.999-3.777-1.404-6.468-2.055-7.872-4.111-8.574-.125-.05-.276-.1-.445-.157a15.609 15.609 0 0 1-.558-.194 2.607 2.607 0 0 0-.381-.141 3.944 3.944 0 0 1-.321-.11c-1.54-.697-2.255-1.597-2.789-2.269-.387-.488-.679-.855-1.121-.939-.481-.074-1.261-.066-2.18-.057-.328.003-.673.007-1.029.007-.356 0-.701-.004-1.029-.007-.919-.009-1.699-.017-2.18.057-.475.086-.783.47-1.188.976-.535.668-1.239 1.548-2.723 2.232a3.699 3.699 0 0 1-.321.11 2.607 2.607 0 0 0-.381.141c-.2.075-.388.138-.557.194-.17.057-.32.107-.445.157-2.056.702-2.708 2.106-4.112 8.574-.465 2.075-.828 3.282-1.089 4.15-.104.348-.193.641-.264.913-.201.953-.151 8.925.1 9.827.109.354.277.545.407.694.111.126.195.222.195.359l.2 1.905h2.958l.201-2.256c.629-.629.567-2.661.496-5.004-.042-1.39-.088-2.89.005-4.271.224-.745.468-1.489.699-2.195.392-1.196.748-2.281.906-3.07.802 5.014-.452 15.042-1.003 16.596.702 1.203 4.663 1.855 8.373 1.905l.501-1.705v-22.134a.539.539 0 0 0 0-.454v-.776a375.727 375.727 0 0 0-3.058-2.456h-5.014s3.66-1.404 4.512-3.61c0 .301.101.551.301 1.003v-.452c.121-.565 1.022-.545 2.362-.516.325.007.676.015 1.048.015h.1c.371 0 .723-.008 1.05-.015 1.352-.029 2.278-.049 2.359.516a.7.7 0 0 1 0 .452c.201-.452.301-.702.301-1.003.852 2.156 4.512 3.61 4.512 3.61h-5.114s-1.855 1.755-2.958 2.456v23.364l.502 1.705c3.71-.05 7.62-.702 8.322-1.905-.551-1.554-1.805-11.582-1.002-16.596.157.789.513 1.874.905 3.07.232.706.476 1.45.699 2.195.093 1.381.048 2.874.005 4.258-.071 2.333-.133 4.356.496 5.017l.201 2.256h2.958l.201-1.905c0-.132.087-.225.197-.344.141-.151.32-.343.404-.709.401-.902.451-8.874.251-9.827zm-14.54-9.803a.556.556 0 0 0-.501-.324.556.556 0 0 0-.552.551c0 .301.251.552.552.552.22 0 .413-.135.501-.325v-.454zm.301-5.238h-.05c-.376 0-.734-.007-1.067-.014-.908-.018-1.625-.032-1.992.115.853 1.604 2.357 3.559 3.109 4.412.752-.903 2.256-2.808 3.108-4.412-.424-.177-1.098-.155-1.95-.126-.357.012-.744.025-1.158.025zm-11.632 26.874c0 .2.201.401.401.401a.395.395 0 0 0 .401-.401.43.43 0 0 0-.401-.401c-.2 0-.401.2-.401.401zm11.131-5.365a.556.556 0 0 0-.552-.551.555.555 0 0 0-.551.551c0 .301.25.552.551.552a.557.557 0 0 0 .552-.552zm-.552-5.866c.301 0 .552.251.552.552 0 .3-.251.551-.552.551a.556.556 0 0 1-.551-.551c0-.301.25-.552.551-.552zm.552-4.763a.557.557 0 0 0-.552-.552.556.556 0 0 0-.551.552c0 .301.25.552.551.552a.557.557 0 0 0 .552-.552zm-.552 15.392c.301 0 .552.251.552.552 0 .3-.251.551-.552.551a.556.556 0 0 1-.551-.551c0-.301.25-.552.551-.552zm11.782.602c0 .2.151.401.401.401a.395.395 0 0 0 .401-.401.395.395 0 0 0-.401-.401c-.2 0-.401.15-.401.401z" fill="#fff"/><path fill-rule="evenodd" clip-rule="evenodd" d="M180 276a2 2 0 1 0 0 4h52a2 2 0 1 0 0-4h-52zm7 8a2 2 0 1 0 0 4h38a2 2 0 1 0 0-4h-38z" fill="#DEDEE2"/><path fill="#FADADA" d="M315 208h60v60h-60z"/><path fill-rule="evenodd" clip-rule="evenodd" d="M320 276a2 2 0 1 0 0 4h52a2 2 0 1 0 0-4h-52zm7 8a2 2 0 1 0 0 4h38a2 2 0 1 0 0-4h-38z" fill="#EBEDEE"/><path fill-rule="evenodd" clip-rule="evenodd" d="M349.888 223.021s-.312-.105-.521.156c-1.668 2.501-3.335 2.762-4.69 2.762-1.303 0-2.971-.208-4.691-2.762-.156-.261-.521-.156-.521-.156-2.241 1.667-6.462 2.241-7.035 2.97-1.251 1.616-4.065 12.091-4.43 14.592.625 3.7 3.648 12.404 3.648 12.404.99.104 2.814-.417 3.492-.991 0 0-2.137-10.162-2.085-11.361.313-.938 1.876-6.462 2.397-6.462.261 0 1.043 1.772 1.043 5.524 0 2.815-.938 8.495-.938 10.319 2.241.834 6.462 1.147 9.016 1.147 2.397-.157 6.931-.417 9.172-1.199 0-1.824-.938-7.505-.938-10.319 0-3.752.781-5.524 1.042-5.524.521 0 2.085 5.524 2.397 6.462.052 1.199-2.084 11.361-2.084 11.361.677.574 2.501 1.095 3.491.991 0 0 3.075-8.756 3.648-12.404-.364-2.501-3.179-12.976-4.429-14.592-.522-.677-4.743-1.251-6.984-2.918z" fill="#fff"/><path fill="#FBE5B4" d="M105 208h60v60h-60z"/><path fill-rule="evenodd" clip-rule="evenodd" d="M150.322 243.731c-.34-9.667-2.318-14.53-3.506-16.678-.226-.283-1.244-.622-1.244-.622h.848V224s-5.992.226-11.477.226c-5.484 0-11.477-.226-11.477-.226v2.261l-.056.17h.848s-1.018.396-1.244.622c-1.187 2.092-3.166 7.011-3.505 16.678-.113 2.658-.283 4.806-.509 6.615 2.431 1.64 9.894 2.544 13.965 1.47.565-1.696.395-8.085 2.035-10.233 1.64 2.148 1.413 8.537 2.035 10.233 4.071 1.131 11.534.17 13.965-1.47-.396-1.809-.565-3.957-.678-6.615z" fill="#fff"/><path fill-rule="evenodd" clip-rule="evenodd" d="M109 276a2 2 0 1 0 0 4h52a2 2 0 1 0 0-4h-52zm7 8a2 2 0 1 0 0 4h38a2 2 0 1 0 0-4h-38zM96 63a6 6 0 0 0-6 6v11a1 1 0 0 0 1 1h298a1 1 0 0 0 1-1V69a6 6 0 0 0-6-6H96zm4.22 11.75a2.5 2.5 0 1 0 0-5 2.5 2.5 0 0 0 0 5zm12.22-2.5a2.5 2.5 0 1 1-5 0 2.5 2.5 0 0 1 5 0zm7.22 2.5a2.5 2.5 0 1 0 0-5 2.5 2.5 0 0 0 0 5zM104 88.25a2 2 0 0 0-2 2v9a2 2 0 0 0 2 2h9a2 2 0 0 0 2-2v-9a2 2 0 0 0-2-2h-9zm18 6.25a2.25 2.25 0 0 1 2.25-2.25h25.5a2.25 2.25 0 1 1 0 4.5h-25.5A2.25 2.25 0 0 1 122 94.5zm102.25-2.25a2.25 2.25 0 1 0 0 4.5h25.5a2.25 2.25 0 1 0 0-4.5h-25.5zM264 94.5a2.25 2.25 0 0 1 2.25-2.25h25.5a2.25 2.25 0 1 1 0 4.5h-25.5A2.25 2.25 0 0 1 264 94.5zm44.25-2.25a2.25 2.25 0 1 0 0 4.5h25.5a2.25 2.25 0 1 0 0-4.5h-25.5zm42 0a2.25 2.25 0 1 0 0 4.5h25.5a2.25 2.25 0 1 0 0-4.5h-25.5z" fill="#DEDEE2"/><path fill="#EFF1F2" d="M105 108h270v90H105z"/><path fill-rule="evenodd" clip-rule="evenodd" d="M160.615 108.174c25.638-.09 214.82-.174 214.82-.174v90H214.347c-28.377 0-37.242-16.883-33.783-24.48 5.406-11.873 5.406-18.848-5.434-21.768-22.136-5.962-20.375 16.317-41.695 0-23.636-18.089 1.542-43.488 27.18-43.578z" fill="#E0E0F5"/><rect x="210" y="134" width="60" height="5" rx="2.5" fill="#fff"/><rect x="190" y="146" width="100" height="5" rx="2.5" fill="#fff"/><rect x="220" y="160" width="40" height="12" rx="2.5" fill="#fff"/><path fill="url(#d)" d="M92 108h290v8H92z"/><path fill="#373463" d="M47 365h5v7h-5zm12 0h5v7h-5z"/><path fill-rule="evenodd" clip-rule="evenodd" d="M54.877 368.651l3.272 3.126 7.352 1.732c.757.178 1.37.715 1.628 1.426l.374 1.031c.185.512-.214 1.045-.775 1.034l-21.418-.438c-.77-.015-1.369-.655-1.305-1.399l.555-6.628 2.641.848a4.512 4.512 0 0 0 3.594-.36l1.271-.716a2.39 2.39 0 0 1 2.811.344z" fill="#FC5854"/><path fill-rule="evenodd" clip-rule="evenodd" d="M67.877 368.651l3.272 3.126 7.352 1.732c.757.178 1.37.715 1.628 1.426l.374 1.031c.185.512-.214 1.045-.775 1.034l-21.418-.438c-.77-.015-1.369-.655-1.305-1.399l.555-6.628 2.641.848a4.512 4.512 0 0 0 3.594-.36l1.271-.716a2.39 2.39 0 0 1 2.811.344z" fill="#FC5854"/><path d="M59 371.16s6.043 1.3 6.943 1.84c.9.54 1.557 2.5 1.557 2.5" stroke="#E54547" stroke-linecap="round" stroke-linejoin="round"/><path fill-rule="evenodd" clip-rule="evenodd" d="M74.78 248.056H38.183c-.71 2.335 1.77 4.569 1.54 6.259-.816 5.989 4.219 20.141 4.219 20.141l1.34 7.784s.236 43.929-.672 55.36a68.272 68.272 0 0 0-.207 5.177c-.001.454.028.893.07 1.322.258 8.794-.01 16.695.137 25.901l9.92-.203c0-7.797-.575-13.612 1.189-27.019.297-2.268.598-4.481.89-6.566-.038.464-.315 4.869-.319 6.565-.001.454.02 17.461.709 27.02h10.223c-.317 0-1.381-13.612.384-27.019 1.261-9.593 2.55-18.285 3.26-19.876 1.106-2.475 3.093-23.894 5.171-38.959.83-5.744.578-22.465-.029-28.101-.295-2.74-.883-5.071-1.23-7.786z" fill="#373463"/><path fill-rule="evenodd" clip-rule="evenodd" d="M51.159 267.938a.384.384 0 0 0 .29-.133 14.974 14.974 0 0 0 3.482-8.009.38.38 0 0 0-.337-.421.385.385 0 0 0-.421.338 14.195 14.195 0 0 1-3.304 7.593.385.385 0 0 0 .04.54.39.39 0 0 0 .25.092z" fill="#48458D"/><path fill-rule="evenodd" clip-rule="evenodd" d="M38.105 250l1.047 4.651h37.35v-3.942S78 237 75.501 226c-2.5-11-5.232-12.441-4.752-16.116.48-3.674-8.369-23.779-10.07-26.025-1.701-2.245-8.437-2.654-11.295 0-2.858 2.653-10.62 14.287-11.279 16.737-.66 2.448-2.713 33.209-2.713 33.209s2.124 3.52 2.713 7.719c.502 3.568-.576 7.855 0 8.476z" fill="#FC5854"/><path fill-rule="evenodd" clip-rule="evenodd" d="M45.345 255.565l3.677 2.829s4.21 2.027 4.704 3.094c0 0-.87 2.167-1.696 3.178.73 2.382 1.74 5.83 1.542 6.002l-1.69 1.457-1.286-2.308s-.781 1.075-1.21 1.043c-.43-.03-1-.342-1-.342s-.975.538-2.035.748c-1.058.21-.446-1.959-1.454-2.195-1.009-.238-2.698-6.007-2.845-6.84-.148-.831-3.349-8.065-3.349-8.065l6.642 1.399z" fill="#F8D294"/><path fill-rule="evenodd" clip-rule="evenodd" d="M52.164 181.637c-3.78.915-20.136 10.402-21.667 13.461-1.529 3.061-12.587 33.317-9.385 38.195 3.203 4.877 16.944 27.126 16.944 27.126l11.04-5.768-8.382-41.005 11.45-32.009z" fill="#FC5854"/><path fill-rule="evenodd" clip-rule="evenodd" d="M57.422 333.938a.383.383 0 0 1-.372-.473c.081-.332 8.165-33.149 9.556-39.343 1.38-6.151.626-32 .619-32.26a.382.382 0 0 1 .104-.275l3.892-4.125a.382.382 0 0 1 .555.525l-3.782 4.01c.068 2.393.718 26.234-.64 32.293-1.395 6.203-9.48 39.026-9.56 39.357a.384.384 0 0 1-.372.291z" fill="#48458D"/><path d="M49.78 251.26h23.162" stroke="#E54547" stroke-linecap="round" stroke-linejoin="round"/><path fill-rule="evenodd" clip-rule="evenodd" d="M116.326 180.217c.234-.433-.98-5.968-.98-5.968s1.278-2.465 1.218-3.228c-.032-.415-.559-2.339-1.148-1.202l-1.822 3.495-1.972 1.729c-.75.726-1.438 4.863-1.438 4.863l-3.675 4.24c1.089 1.338 2.368 2.027 3.434 3.384 0 0 6.149-6.881 6.383-7.313z" fill="#F8D294"/><path d="M120.274 148.276l-.766-.642a.999.999 0 0 0-1.408.123l-5.736 6.835a1 1 0 0 0 .124 1.409l11.49 9.641a1 1 0 0 1 .124 1.409l-2.622 3.124" stroke="#D1D3D4" stroke-linecap="square"/><rect x="119.948" y="168.889" width="4" height="16" rx="1" transform="rotate(40 119.948 168.889)" fill="#FBE5B4"/><rect x="122.846" y="145.212" width="30" height="8" rx="1" transform="rotate(40 122.846 145.212)" fill="#E0E0F5"/><path fill-rule="evenodd" clip-rule="evenodd" d="M113.783 178.038l1.048-1.212 1.074.744-.916-1.025 1.005-1.078 1.285.856-1.109-.978.839-1.02 1.266.763-1.154-.912.852-1.029s2.822.726 2.287 3.095c-.535 2.369-3.15 4.509-4.991 5.258-.307.125.288-.89 0-1.495-.244-.511-1.486-1.967-1.486-1.967z" fill="#F8D294"/><path fill-rule="evenodd" clip-rule="evenodd" d="M67.802 198.412c7.198 4.175 20.556 5.95 27.556 7.709 7 1.76 16.309-15.56 18.698-18.253l-7.028-6.368s-8.857 9.166-12.563 13.5C82.725 188.923 73 183.75 65.64 183.75c-10.653-.196 2.162 14.662 2.162 14.662z" fill="#FC5854"/><path fill-rule="evenodd" clip-rule="evenodd" d="M55.355 182.023c19.203 0 23.021 7.024 21.645 15.977l-2.442 35.293-10.751-15.804-8.452-35.466z" fill="#FC5854"/><path d="M76.62 201.5s-.13-2.095-1.96-3.898C72.829 195.8 69 194 69 194m24.354 7s1.129-.704 1.646-2.588c.517-1.885-.517-3.412-.517-3.412" stroke="#E54547" stroke-width=".8" stroke-linecap="round" stroke-linejoin="round"/><path d="M38.056 194.463s3.072 1.343 1.932 8.083c-1.14 6.74-6.486 26.131-6.486 26.131l13.715 24.195" stroke="#E54547" stroke-linecap="round" stroke-linejoin="round"/><path fill-rule="evenodd" clip-rule="evenodd" d="M65.243 178.505s3.397-.2 4.326-1.983c.387-.745.106-3.342-.955-7.243-.114-.417 1.69-1.099 1.565-1.524-.244-.827-4.234-2.623-4.502-4.215-.976-5.83-1.936-7.156-4.066-8.186-4.733-2.289-18.927 1.382-18.599 8.017.327 6.636 3.387 9.393 9.36 16.981l-.208 1.285c-.663 4.112 2.901 7.664 7.011 6.985a6.094 6.094 0 0 0 4.978-4.792l1.09-5.325z" fill="#F8D294"/><path fill-rule="evenodd" clip-rule="evenodd" d="M52.372 180.352l1.486-7.038s-5.883-3.339-3.355-6.627c2.529-3.287 10.04 7.708 10.04 7.708l.665-1.632-3.396-7.132s2.389-2.211 1.884-5.067c0 0 6.623-2.62 6.078-7.277-.546-4.657-20.523 2.403-23.938 6.335-3.415 3.932 1.802 11.752 10.536 20.73z" fill="#5D2E34"/><g filter="url(#e)"><path fill-rule="evenodd" clip-rule="evenodd" d="M315 40c0-16.569 13.431-30 30-30h126c16.569 0 30 13.431 30 30v295c0 16.569-13.431 30-30 30H345c-16.569 0-30-13.431-30-30V40z" fill="#fff"/><path d="M319 40c0-14.36 11.641-26 26-26h126c14.359 0 26 11.64 26 26v295c0 14.359-11.641 26-26 26H345c-14.359 0-26-11.641-26-26V40z" stroke="#64676D" stroke-width="8"/></g><path fill="#CEEBFC" d="M323 70h170v80H323z"/><rect x="373" y="101" width="70" height="6" rx="3" fill="#fff"/><rect x="358" y="113" width="100" height="6" rx="3" fill="#fff"/><rect x="355" y="49" width="36" height="6" rx="3" fill="#DEDEE2"/><rect x="467" y="46" width="16" height="3" rx="1.5" fill="#DEDEE2"/><rect x="467" y="51" width="16" height="3" rx="1.5" fill="#DEDEE2"/><rect x="467" y="56" width="16" height="3" rx="1.5" fill="#DEDEE2"/><rect x="333" y="44" width="16" height="16" rx="2" fill="#DEDEE2"/><path fill="#FADADA" d="M413 160h70v70h-70z"/><rect x="413" y="235" width="70" height="4" rx="2" fill="#DEDEE2"/><rect x="423" y="243" width="50" height="4" rx="2" fill="#DEDEE2"/><path fill-rule="evenodd" clip-rule="evenodd" d="M463.299 187.557c-.355-1.676-2.488-6.805-3.91-8.328-.305-.305-1.219-.305-1.676 0l-.16.092c-1.183.682-2.604 1.502-6.442 7.525-1.033 1.62-1.877 3.192-2.692 4.709-2.786 5.191-5.222 9.732-13.711 13.268-2.793 1.168-1.32 4.977-1.32 4.977s5.383 2.235 16.505 1.422c2.691-.203 3.91-1.574 4.367-2.742.398-1.004.817-2.429 1.276-3.991 1.003-3.414 2.2-7.487 3.802-9.264 1.676-1.879 4.317-5.941 3.961-7.668zm-6.144 13.458l.101 4.926c1.219.254 2.032-.051 2.032-.051s-.102-3.352.101-5.688c.102-1.32.508-3.504.863-5.18-.146.176-.275.351-.397.517-.09.122-.177.239-.263.347-.914 1.218-1.726 3.097-2.437 5.129zm-1.643-6.881l.068-.331c.317-1.408.821-3.087 1.328-4.777 1.119-3.733 2.254-7.514 1.415-8.528h-.203c-.356 0-3.047 1.828-6.45 7.059-.704 1.076-1.272 2.186-1.816 3.247a78.24 78.24 0 0 1-.368.714c-2.082 3.961-4.672 8.735-8.227 10.512-.711.66 7.009 2.59 9.954.102 3.202-2.668 3.808-5.615 4.299-7.998z" fill="#fff"/><path fill="#FBE5B4" d="M333 160h70v70h-70z"/><rect x="333" y="235" width="70" height="4" rx="2" fill="#DEDEE2"/><rect x="343" y="243" width="50" height="4" rx="2" fill="#DEDEE2"/><path fill-rule="evenodd" clip-rule="evenodd" d="M381.429 183.295c-.62-.79-5.304-1.411-7.73-3.273 0 0-.338-.113-.564.17-1.185 1.749-2.37 3.216-5.135 3.216-2.765 0-3.95-1.467-5.135-3.216-.169-.283-.564-.17-.564-.17-2.426 1.806-7.11 2.483-7.73 3.273-1.355 1.749-3.273 5.586-4.571 8.069 1.185 1.975 3.893 3.16 5.812 3.329.621-.621 1.58-2.426 2.144-2.426.282 0 .847 1.918.847 6.037 0 3.104-1.016 9.367-1.016 11.342 2.426.903 7.392.847 10.213.847 2.821 0 7.787.056 10.213-.847 0-1.975-1.016-8.238-1.016-11.342 0-4.119.565-6.037.847-6.037.564 0 1.523 1.805 2.144 2.426 1.862-.169 4.571-1.411 5.812-3.329-1.298-2.483-3.216-6.32-4.571-8.069z" fill="#fff"/><path fill="#D0E9D6" d="M333 257h70v70h-70z"/><rect x="333" y="332" width="70" height="4" rx="2" fill="#DEDEE2"/><rect x="343" y="340" width="50" height="4" rx="2" fill="#DEDEE2"/><path fill-rule="evenodd" clip-rule="evenodd" d="M376.013 278s-4.289.451-8.013.451-8.013-.451-8.013-.451v3.16c-7.73 9.931-7.899 19.918-9.987 22.288.451.339 1.693 1.072 5.755 1.58.621-4.796 4.402-16.928 5.474-20.313-.903 3.555-4.006 16.194-4.119 20.482v.847c.113.056 6.545.846 6.827.846.057-.169.113-.451.226-.903 0-.112.056-.225.056-.338.395-2.426 1.806-14.727 2.032-15.799-.226 5.247-.903 16.025-.903 16.137 1.072.17 1.693.226 2.652.226.959 0 1.58-.056 2.652-.226 0-.112-.677-10.89-.903-16.137.169 1.072 1.637 13.373 2.032 15.799 0 .113.056.226.056.338.056.395.113.734.226.903.282 0 6.714-.733 6.827-.846 0-.226.057-.508 0-.847-.113-4.231-3.216-16.871-4.119-20.482 1.072 3.385 4.853 15.573 5.474 20.313 4.062-.508 5.304-1.241 5.755-1.58-2.088-2.37-2.257-12.301-9.987-22.288V278z" fill="#fff"/><path fill="#E0E0F5" d="M413 257h70v70h-70z"/><rect x="413" y="332" width="70" height="4" rx="2" fill="#DEDEE2"/><rect x="423" y="340" width="50" height="4" rx="2" fill="#DEDEE2"/><path fill-rule="evenodd" clip-rule="evenodd" d="M460.721 308.642l-1.036-2.203c-1.75-5.053-4.795-11.791-5.054-17.363-.194-5.183 2.332-4.794 2.138-9.783-.842-.842-1.944-2.073-1.944-3.11V271h-.907v5.637s-3.887.129-5.701 2.915c-.065.065-.259.13-.454.194-.194-.064-.388-.129-.453-.194-1.814-2.786-5.702-2.915-5.702-2.915V271h-.907v5.183c0 1.037-1.101 2.268-1.943 3.11-.195 4.989 2.332 4.665 2.138 9.783-.195 6.025-3.758 13.411-5.442 18.53l-.454.971 1.49.713-.389.972 2.009.907.972-2.203c.129.065.259.065.388.13l-.259.648 1.296.518-.259.777 2.073.713.648-1.944-.259 2.398 1.879.194.129-1.037 1.814.195.065-.324h.583v.842l2.009-.065-.065-.907v.259l1.749-.194.065.713 1.879-.195-.194-1.943h.194l.583 2.397 2.073-.713-.324-1.036 1.62-.648-.324-.778c.13-.065.324-.065.454-.129l.842 1.814 1.944-.907-.065-.583 1.101-.519z" fill="#fff"/><path fill-rule="evenodd" clip-rule="evenodd" d="M353 18h110-.365a2.823 2.823 0 0 0-2.823 2.823c0 7.278-5.9 13.177-13.177 13.177h-77.27c-7.277 0-13.177-5.9-13.177-13.177A2.823 2.823 0 0 0 353.365 18H353z" fill="#64676D"/></g><defs><filter id="b" x="60" y="43" width="360" height="300" filterUnits="userSpaceOnUse" color-interpolation-filters="sRGB"><feFlood flood-opacity="0" result="BackgroundImageFix"/><feColorMatrix in="SourceAlpha" values="0 0 0 0 0 0 0 0 0 0 0 0 0 0 0 0 0 0 127 0"/><feOffset dy="10"/><feGaussianBlur stdDeviation="15"/><feColorMatrix values="0 0 0 0 0 0 0 0 0 0 0 0 0 0 0 0 0 0 0.05 0"/><feBlend in2="BackgroundImageFix" result="effect1_dropShadow"/><feBlend in="SourceGraphic" in2="effect1_dropShadow" result="shape"/></filter><filter id="e" x="295" y="0" width="226" height="395" filterUnits="userSpaceOnUse" color-interpolation-filters="sRGB"><feFlood flood-opacity="0" result="BackgroundImageFix"/><feColorMatrix in="SourceAlpha" values="0 0 0 0 0 0 0 0 0 0 0 0 0 0 0 0 0 0 127 0"/><feOffset dy="10"/><feGaussianBlur stdDeviation="10"/><feColorMatrix values="0 0 0 0 0.0816135 0 0 0 0 0.0861971 0 0 0 0 0.0993546 0 0 0 0.12 0"/><feBlend in2="BackgroundImageFix" result="effect1_dropShadow"/><feBlend in="SourceGraphic" in2="effect1_dropShadow" result="shape"/></filter><linearGradient id="d" x1="92" y1="108" x2="92" y2="116" gradientUnits="userSpaceOnUse"><stop stop-opacity=".04"/><stop offset="1" stop-opacity=".01"/></linearGradient><clipPath id="a"><path fill="#fff" d="M0 0h520v380H0z"/></clipPath></defs></svg>